<ttFont>
          <CharString index="0">
            -86 callsubr
            58 -11 21 29 40 hvcurveto
            8 -8 rlineto
            -26 13 20 -18 45 41 13 9 26 hhcurveto
            -55 3 rmoveto
            -20 -20 1 1 -20 -69 callsubr
            -20 -30 5 -29 -53 hhcurveto
            -27 -34 3 1 -8 hvcurveto
            45 57 55 45 53 50 50 -50 50 -51 51 -50 -15 -1 -14 -4 -14 -1 rrcurveto
            return
          </CharString>
          <CharString index="1">
            -8 4 0 7 7 11 4 12 11 vvcurveto
            -3 1 -3 1 -2 2 rrcurveto
            -32 -32 -47 -25 -46 hhcurveto
            -100 -47 142 120 127 68 99 106 41 25 -6 -34 20 hvcurveto
            -1 1 0 -1 vvcurveto
            1 hlineto
            3 3 1 1 3 hvcurveto
            0 -1 0 1 vvcurveto
            1 hlineto
            -1 hlineto
            2 -1 2 2 13 6 14 13 vvcurveto
            45 45 -5 46 hhcurveto
            return
          </CharString>
          <CharString index="2">
            -20 -21 1 3 -19 hvcurveto
            -3 12 -1 13 12 vvcurveto
            24 3 25 1 23 vhcurveto
            28 29 3 30 29 25 -1 31 hhcurveto
            33 54 1 14 7 hvcurveto
            34 3 36 36 vvcurveto
            14 -1 15 -6 13 vhcurveto
            4 -21 -21 2 -23 hhcurveto
            -34 -36 -4 -1 -33 hvcurveto
            -83 -3 -82 1 -82 -5 5 callsubr
            -5 -80 -1 -80 -80 -148 5 -148 -148 vvcurveto
            -68 callgsubr
            -4 51 52 -2 52 hhcurveto
            return
          </CharString>
          <CharString index="3">
            599 rmoveto
            -9 20 -11 23 -17 15 rrcurveto
            34 -40 -69 20 -63 hhcurveto
            -70 -67 -23 -50 -33 hvcurveto
            -36 -53 -4 -72 -62 vvcurveto
            -70 1 -64 4 -67 vhcurveto
            -109 5 -24 -157 205 hhcurveto
            78 86 27 49 35 hvcurveto
            56 78 -11 184 82 31 2 30 27 vvcurveto
            38 -3 34 -15 35 vhcurveto
            -9 -4 rmoveto
            14 -33 4 -35 -36 -33 -3 -33 -31 -24 1 -30 -32 vvcurveto
            -86 -6 -103 -38 -53 vhcurveto
            return
          </CharString>
          <CharString index="4">
            3 4 -1 3 21 30 5 25 hhcurveto
            11 10 -1 -3 8 hvcurveto
            -81 -12 27 -113 -157 -14 -15 0 -15 hhcurveto
            -52 -55 4 37 -32 hvcurveto
            -59 66 -7 93 86 vvcurveto
            46 2 63 23 40 vhcurveto
            60 35 69 23 67 hhcurveto
            45 62 -7 -32 33 hvcurveto
            45 -43 15 -62 -61 vvcurveto
            -14 -1 -14 -1 -14 vhcurveto
            -12 -32 -117 1 -33 -8 -18 -2 -18 hhcurveto
            -14 -13 1 4 -7 hvcurveto
            return
          </CharString>
          <CharString index="5">
            -20 callgsubr
            -65 callgsubr
            hintmask 0001111001000000
            278 hmoveto
            1 vlineto
            hintmask 1000111001000000
            19 callgsubr
            hintmask 0010111001000000
            58 4 5 1 4 hvcurveto
            10 hlineto
            hintmask 0100111001000000
            -3 5 -90 callsubr
            hintmask 1000111001000000
            -91 callsubr
            -1 -39 19 -20 rrcurveto
            hintmask 0001111001000000
            -87 callgsubr
            hintmask 1000110010000000
            -60 callgsubr
            13 14 -10 14 hhcurveto
            57 10 54 41 hvcurveto
            hintmask 1000110100000000
            -93 callsubr
            -2 17 17 vvcurveto
            return
          </CharString>
          <CharString index="6">
            -108 -5 7 -185 -200 hhcurveto
            -90 -104 41 77 -22 hvcurveto
            -7 23 -2 26 25 167 6 160 168 vvcurveto
            20 20 1 20 hhcurveto
            24 23 -1 -4 24 hvcurveto
            -3 -64 -2 -64 -65 vvcurveto
            -49 1 -49 3 -49 vhcurveto
            -72 4 -18 -125 85 hhcurveto
            59 10 35 67 5 hvcurveto
            4 144 -4 143 7 144 rrcurveto
            29 return
          </CharString>
          <CharString index="7">
            -32 callsubr
            -11 -3 -10 -1 -11 vhcurveto
            26 -19 -24 6 -44 hhcurveto
            -110 -75 -104 -133 -105 43 -125 59 -28 hvcurveto
            -9 18 19 -3 19 hhcurveto
            44 43 20 29 34 hvcurveto
            -1 -7 -1 -8 -7 vvcurveto
            return
          </CharString>
          <CharString index="8">
            -3 7 -1 9 10 22 5 26 19 vvcurveto
            3 16 23 4 21 hhcurveto
            14 13 -2 -4 11 hvcurveto
            return
          </CharString>
          <CharString index="9">
            rmoveto
            -8 67 -3 112 -30 35 rrcurveto
            -4 hlineto
            -19 -14 -146 -67 -6 hvcurveto
            -6 6 6 -1 7 19 20 1 21 hhcurveto
            -69 9 rmoveto
            7 65 3 70 21 63 8 -10 1 -24 2 -9 9 -51 6 -51 6 -52 rrcurveto
            -1 -15 -14 -1 -15 hhcurveto
            -6 -7 0 1 -6 hvcurveto
            endchar
          </CharString>
          <CharString index="10">
            -18 1 -18 -18 -52 -3 -51 -54 vvcurveto
            -51 -43 -22 -37 -27 -28 11 19 -19 vhcurveto
            -17 33 1 38 -3 36 rrcurveto
            -3 36 -5 38 37 vvcurveto
            80 25 98 78 23 22 -11 -24 16 vhcurveto
            21 -33 -9 -38 7 -36 rrcurveto
            return
          </CharString>
          <CharString index="11">
            rmoveto
            51 -13 61 -43 33 vhcurveto
            34 -45 -68 1 -56 hhcurveto
            -86 -114 -27 -129 -90 84 -53 84 -14 hvcurveto
            37 -6 61 -10 -42 vvcurveto
            -29 -23 -17 -34 -29 -29 14 30 -3 vhcurveto
            3 hlineto
            -1 -1 1 -1 hhcurveto
            4 vlineto
            hintmask 0111001010000000
            6 -6 -25 2 -23 -18 -17 -1 -10 -5 -5 0 -6 hhcurveto
            -17 -18 -1 -8 -8 hvcurveto
            hintmask 1000101010000000
            -134 113 -43 117 87 113 34 140 67 -41 52 -74 19 vhcurveto
            -47 12 -91 -6 69 vvcurveto
            26 5 23 9 22 hhcurveto
            29 27 -18 -34 hvcurveto
            -1 vlineto
            hintmask 0111000100000000
            -15 7 42 1 19 hhcurveto
            27 27 3 4 26 hvcurveto
            -138 9 rmoveto
            41 -36 21 -33 -29 -28 -17 -33 -74 100 5 46 -12 vhcurveto
            73 -20 32 -48 -61 vvcurveto
            -136 -104 -28 -94 vhcurveto
            hintmask 0111001010000000
            -103 -107 45 120 hvcurveto
            2 16 17 0 17 hhcurveto
            29 30 -1 -1 29 hvcurveto
            -34 4 37 -22 34 hhcurveto
            hintmask 1000010100000000
            30 31 18 43 58 -84 2 -39 8 hvcurveto
            -81 17 -59 54 74 vvcurveto
            135 126 9 84 92 102 -16 -149 vhcurveto
            -4 -24 -26 -3 -24 hhcurveto
            -20 -19 2 5 -19 hvcurveto
            endchar
          </CharString>
          <CharString index="12">
            -77 -7 -15 -66 -127 hhcurveto
            -15 -13 1 2 -11 hvcurveto
            -35 5 -31 -4 -34 12 rrcurveto
            -102 36 7 131 81 vvcurveto
            48 0 49 5 47 vhcurveto
            2 18 10 18 4 17 rrcurveto
            117 -112 rmoveto
            -14 -14 -3 -31 -30 -21 1 -20 -14 -11 -1 -9 -11 vvcurveto
            -36 41 -19 40 54 21 37 79 85 -23 42 -54 -24 return
          </CharString>
          <CharString index="13">
            6 rmoveto
            62 159 52 163 55 162 60 177 rcurveline
            4 13 8 12 13 vvcurveto
            9 -9 -11 1 -13 -16 -16 -3 -17 hhcurveto
            -5 -4 0 1 -5 hvcurveto
            1 1 -1 0 hvcurveto
            -2 -1 -3 0 -3 -1 -54 callgsubr
            return
          </CharString>
          <CharString index="14">
            64 -6 57 53 22 5 22 22 vvcurveto
            4 13 13 1 13 15 13 -3 16 hhcurveto
            11 11 1 1 9 hvcurveto
            -114 3 -115 -114 vvcurveto
            -49 0 -49 -2 -49 vhcurveto
            -10 -10 3 -9 -33 -30 -7 -28 hhcurveto
            17 return
          </CharString>
          <CharString index="15">
            -1 -20 -19 -1 -20 hhcurveto
            -67 -67 6 1 -66 hvcurveto
            -3 17 -2 19 19 vvcurveto
            21 2 22 4 20 vhcurveto
            10 2 9 -1 10 3 rrcurveto
            14 14 -1 14 hhcurveto
            14 30 0 11 6 hvcurveto
            -1 7 0 8 8 vvcurveto
            return
          </CharString>
          <CharString index="16">
            -40 -8 -47 -57 vhcurveto
            -8 2 -22 7 1 vvcurveto
            -5 5 rlineto
            -17 34 -3 49 48 55 2 47 51 vvcurveto
            14 -1 13 -6 13 vhcurveto
            -28 -21 0 -32 hhcurveto
            -20 -20 -1 -9 -9 hvcurveto
            -14 1 -14 -13 -84 -5 -82 -83 vvcurveto
            -30 1 -29 2 -30 vhcurveto
            2 -23 return
          </CharString>
          <CharString index="17">
            10 1 8 hhcurveto
            5 2 0 -20 callsubr
            117 -3 117 117 vvcurveto
            -92 callgsubr
            -1 -8 -7 -1 -8 -19 -15 4 -19 hhcurveto
            -17 -19 -4 -4 -14 -45 callgsubr
            -23 -5 -22 -23 -57 6 -58 -58 vvcurveto
            return
          </CharString>
          <CharString index="18">
            71 71 -1 -4 71 hvcurveto
            14 29 -4 63 20 vvcurveto
            23 -1 25 -7 15 vhcurveto
            -80 -9 -81 8 -80 -11 82 126 91 120 78 129 rrcurveto
            -8 5 rmoveto
            -72 -119 -83 -107 -77 -119 -8 -13 -8 -14 -9 -10 1 -3 2 -3 1 -3 82 11 82 -7 82 8 rrcurveto
            2 -14 1 -15 -14 -37 -5 -37 -37 vvcurveto
            4 -72 -71 2 -72 hhcurveto
            -61 -62 -2 -3 -62 hvcurveto
            -7 23 -1 23 24 18 1 18 18 vvcurveto
            10 0 10 -1 10 vhcurveto
            53 132 109 126 82 116 rrcurveto
            20 -7 -102 -4 -27 hhcurveto
            -36 -35 6 -1 -35 hvcurveto
            -5 9 -1 9 10 11 2 11 10 vvcurveto
            22 -1 30 -7 21 vhcurveto
            5 55 55 2 56 87 87 -4 87 hhcurveto
            2 -15 0 -16 -15 -36 -3 -36 -36 vvcurveto
            endchar
          </CharString>
          <CharString index="19">
            48 9 46 13 44 hhcurveto
            36 1 -31 -28 hvcurveto
            -14 -1 -13 -12 -13 1 -16 -15 vvcurveto
            -50 -21 -24 -37 -57 -29 54 56 16 2 16 6 13 vhcurveto
            return
          </CharString>
          <CharString index="20">
            -76 callgsubr
            -73 callgsubr
            5 1 44 0 26 1 rrcurveto
            -83 -35 -70 -75 vhcurveto
            return
          </CharString>
          <CharString index="21">
            -3 -2 0 1 -2 hvcurveto
            -57 -53 -58 -49 -47 -61 3 -9 rcurveline
            -34 callsubr
            return
          </CharString>
          <CharString index="22">
            2 1 3 2 vvcurveto
            -53 66 -69 54 -51 68 24 19 18 28 26 17 75 -89 93 -72 72 -91 -70 -93 -95 -71 -82 -80 -10 8 -9 12 -10 6 -16 16 rcurveline
            -4 8 -12 9 -9 7 64 53 52 66 65 52 rrcurveto
            return
          </CharString>
          <CharString index="23">
            -6 -15 -3 -17 -18 vvcurveto
            -59 31 -60 67 51 15 40 57 126 -5 13 -53 -44 -45 -22 -46 -9 vhcurveto
            return
          </CharString>
          <CharString index="24">
            222 708 rmoveto
            -21 -21 -1 -20 -38 -38 6 -37 hhcurveto
            -9 -9 -2 -59 -1 -23 rrcurveto
            -2 -34 -1 -33 -34 -119 6 -118 -117 vvcurveto
            -57 return
          </CharString>
          <CharString index="25">
            rmoveto
            -23 23 -26 34 -27 14 -61 -50 -47 -63 -59 -50 rrcurveto
            return
          </CharString>
          <CharString index="26">
            -45 -85 callgsubr
            return
          </CharString>
          <CharString index="27">
            4 20 25 4 24 hhcurveto
            16 15 -2 -4 14 hvcurveto
            -6 -36 1 -39 -36 vvcurveto
            -37 -37 1 -36 hhcurveto
            return
          </CharString>
          <CharString index="28">
            30 -153 rlinecurve
            2 -12 3 -11 -12 vvcurveto
            -46 -29 -8 -35 vhcurveto
            -20 -23 3 -20 hhcurveto
            -11 -5 0 -42 -16 vvcurveto
            -20 2 -53 15 -7 vhcurveto
            -1 12 13 0 13 hhcurveto
            274 31 222 187 43 hvcurveto
            21 91 20 91 25 89 rrcurveto
            8 -3 -13 1 -13 -41 -40 -2 -41 hhcurveto
            return
          </CharString>
          <CharString index="29">
            -2 -33 callgsubr
            -2 rrcurveto
            return
          </CharString>
          <CharString index="30">
            -5 -31 0 -34 -30 vvcurveto
            -32 -31 1 -31 hhcurveto
            return
          </CharString>
          <CharString index="31">
            -26 20 -18 19 15 20 13 30 26 -22 17 -20 -13 -13 -8 -20 -4 vhcurveto
            -2 -146 rmoveto
            -1 -5 -1 -4 -5 vvcurveto
            -27 20 -23 19 11 22 13 29 24 -20 20 -20 -11 -11 -6 -15 -7 vhcurveto
            11 142 rmoveto
            19 3 13 2 12 hhcurveto
            9 -3 rlineto
            return
          </CharString>
          <CharString index="32">
            474 669 rmoveto
            1 vlineto
            13 -14 -23 2 -18 hhcurveto
            -29 -53 -2 -10 -19 -104 callgsubr
            return
          </CharString>
          <CharString index="33">
            10 -66 callgsubr
            return
          </CharString>
          <CharString index="34">
            28 24 1 20 hhcurveto
            54 33 -6 -42 54 hvcurveto
            25 -39 8 -68 -68 vvcurveto
            -56 -6 -57 -3 -37 vhcurveto
            return
          </CharString>
          <CharString index="35">
            hmoveto
            -99 callsubr
            -77 callsubr
            endchar
          </CharString>
          <CharString index="36">
            -17 -16 4 -20 -21 -25 -6 -21 hhcurveto
            -11 -10 2 4 -8 hvcurveto
            47 31 29 39 14 14 -4 -7 15 vhcurveto
            endchar
          </CharString>
          <CharString index="37">
            -101 callsubr
            31 8 30 hhcurveto
            15 16 -3 -6 15 hvcurveto
            2 -61 2 -62 -9 callsubr
            return
          </CharString>
          <CharString index="38">
            hvcurveto
            -9 6 -13 13 -11 19 -15 10 rlinecurve
            -6 hlineto
            return
          </CharString>
          <CharString index="39">
            5 15 31 93 2 10 16 49 23 49 9 51 rrcurveto
            -1 7 8 -1 7 20 20 3 20 hhcurveto
            14 13 -1 -5 12 hvcurveto
            -11 -13 -34 -5 -16 vhcurveto
            -66 -212 -74 -210 -81 -206 rrcurveto
            return
          </CharString>
          <CharString index="40">
            2 0 1 0 -5 -1 -136 -1 vhcurveto
            -90 3 -89 -89 vvcurveto
            -34 0 -34 -3 -34 vhcurveto
            6 -6 rlineto
            1 5 7 0 7 hhcurveto
            return
          </CharString>
          <CharString index="41">
            439 503 rmoveto
            -26 -51 7 -38 hhcurveto
            -13 -12 0 -3 -8 hvcurveto
            return
          </CharString>
          <CharString index="42">
            1 hlineto
            -25 callgsubr
            24 49 13 78 14 54 rrcurveto
            2 7 15 42 17 vvcurveto
            7 -8 -34 0 -28 hhcurveto
            -24 -22 -2 -7 -7 hvcurveto
            1 vlineto
            -24 -69 -15 -76 -17 -68 -3 -12 return
          </CharString>
          <CharString index="43">
            hhcurveto
            109 7 -58 -87 hvcurveto
            -101 -5 -101 -100 vvcurveto
            -12 1 -13 1 -12 vhcurveto
            -3 -21 -22 -1 -21 -17 -17 1 -17 hhcurveto
            return
          </CharString>
          <CharString index="44">
            -56 callgsubr
            1 -1 rcurveline
            return
          </CharString>
          <CharString index="45">
            -35 115 rmoveto
            45 9 24 21 5 vhcurveto
            5 hlineto
            34 -12 -11 -29 5 -20 1 -12 -4 -75 -12 -23 -7 -9 -13 -2 -8 5 rrcurveto
            -23 13 3 58 32 vvcurveto
            return
          </CharString>
          <CharString index="46">
            hhcurveto
            20 13 18 19 20 -15 19 -35 -6 -7 -1 -1 -6 hvcurveto
            -4 11 1 14 11 44 73 -35 54 vvcurveto
            19 -14 11 -18 -28 -6 -20 -10 -20 vhcurveto
            -53 hlineto
            4 0 2 -1 4 vhcurveto
            61 43 29 61 50 51 -21 -49 vhcurveto
            -11 -1 -11 -9 -14 3 -31 -37 vvcurveto
            -102 -9 -61 -105 -29 -28 7 15 -15 vhcurveto
            return
          </CharString>
          <CharString index="47">
            41 42 -3 43 hhcurveto
            -112 -5 -112 -113 vvcurveto
            -51 1 -51 3 -51 vhcurveto
            return
          </CharString>
          <CharString index="48">
            74 34 -82 -77 -94 -40 -80 -71 -75 -28 63 83 51 -10 44 35 50 hvcurveto
            80 -223 rmoveto
            37 1 80 25 -1 0 0 0 hvcurveto
            1 1 95 -38 return
          </CharString>
          <CharString index="49">
            61 -6 145 -120 -21 138 144 132 135 -9 168 return
          </CharString>
          <CharString index="50">
            rmoveto
            -23 -24 -23 -23 -23 -23 rrcurveto
            -8 vlineto
            return
          </CharString>
          <CharString index="51">
            -2 5 -1 6 6 vvcurveto
            14 4 14 6 11 vhcurveto
            7 7 rlineto
            18 36 69 1 40 hhcurveto
            13 13 1 35 29 vvcurveto
            33 0 43 -24 -148 -125 -2 -171 -27 vhcurveto
            -2 -12 -2 -13 -13 vvcurveto
            -5 0 -5 1 -5 vhcurveto
            -65 -65 -1 -65 -16 -16 0 -16 hhcurveto
            254 -2 rmoveto
            return
          </CharString>
          <CharString index="52">
            rrcurveto
            130 49 -114 -118 -136 -54 -121 -92 -44 -45 22 30 -30 hvcurveto
            147 246 rmoveto
            49 -10 -52 18 -43 hhcurveto
            -37 -15 -16 -48 hvcurveto
            -19 2 -18 -7 -11 -1 -16 -16 vvcurveto
            -65 27 -19 41 62 33 57 60 15 -2 20 -5 16 vhcurveto
            -10 -3 rmoveto
            return
          </CharString>
          <CharString index="53">
            -9 9 35 -1 21 hhcurveto
            17 7 2 10 10 hvcurveto
            return
          </CharString>
          <CharString index="54">
            -2 -1 -33 callgsubr
            -1 return
          </CharString>
          <CharString index="55">
            rmoveto
            5 11 5 58 1 9 rrcurveto
            2 22 3 28 29 vvcurveto
            63 -14 87 -61 21 vhcurveto
            37 -37 -92 4 -48 hhcurveto
            -128 -113 -28 -196 hvcurveto
            -13 0 -14 -14 vvcurveto
            -63 4 -72 49 -44 vhcurveto
            -41 46 55 -10 58 hhcurveto
            114 107 9 117 44 hvcurveto
            return
          </CharString>
          <CharString index="56">
            -84 26 75 -65 hhcurveto
            -32 -25 -25 -31 -4 1 -5 1 -4 24 callgsubr
            return
          </CharString>
          <CharString index="57">
            -106 callgsubr
            endchar
          </CharString>
          <CharString index="58">
            -101 callgsubr
            endchar
          </CharString>
          <CharString index="59">
            -16 8 43 -7 11 hhcurveto
            10 4 7 10 6 hvcurveto
            -1 -78 -5 -76 -78 vvcurveto
            -8 8 28 -3 18 hhcurveto
            10 25 4 10 hvcurveto
            return
          </CharString>
          <CharString index="60">
            14 11 -21 25 -35 callgsubr
            23 -21 24 -21 return
          </CharString>
          <CharString index="61">
            -75 callgsubr
            rrcurveto
            3 -7 -16 3 -11 hhcurveto
            return
          </CharString>
          <CharString index="62">
            -8 8 19 -1 19 hhcurveto
            8 7 1 3 6 hvcurveto
            4 hlineto
            14 14 10 14 21 hhcurveto
            5 6 -1 -2 5 hvcurveto
            2 -2 rlineto
            3 -5 1 -6 -7 vvcurveto
            -4 0 -5 -2 -3 vhcurveto
            -6 -6 -17 -9 -23 8 -18 -7 rlinecurve
            -32 callsubr
            return
          </CharString>
          <CharString index="63">
            hhcurveto
            -71 callgsubr
            return
          </CharString>
          <CharString index="64">
            -20 -22 -1 -23 hhcurveto
            -31 -86 -10 -51 -17 hvcurveto
            10 -3 rmoveto
            return
          </CharString>
          <CharString index="65">
            rmoveto
            -54 54 -55 54 -54 54 rrcurveto
            return
          </CharString>
          <CharString index="66">
            35 35 21 41 91 -109 1 -60 15 hvcurveto
            -67 17 -44 93 60 vvcurveto
            119 91 100 131 102 112 -57 -111 -16 -2 -17 -3 -17 vhcurveto
            -4 -26 -26 -4 -26 hhcurveto
            -21 -21 3 6 -20 hvcurveto
            endchar
          </CharString>
          <CharString index="67">
            -40 69 16 16 22 26 1 8 4 vhcurveto
            -2 16 -1 16 16 97 5 97 96 vvcurveto
            94 -9 66 -118 return
          </CharString>
          <CharString index="68">
            24 -18 129 -98 -21 106 102 -15 67 -12 96 -15 99 -8 107 -9 return
          </CharString>
          <CharString index="69">
            1 2 2 return
          </CharString>
          <CharString index="70">
            87 38 86 102 105 -50 61 -69 -24 -44 -17 -31 -22 hvcurveto
            11 -3 rmoveto
            14 8 41 27 31 hhcurveto
            return
          </CharString>
          <CharString index="71">
            -20 hstemhm
            hintmask 00000000
            return
          </CharString>
          <CharString index="72">
            0 -1 1 return
          </CharString>
          <CharString index="73">
            -4 22 29 -2 21 hhcurveto
            return
          </CharString>
          <CharString index="74">
            -99 callgsubr
            -181 -121 rmoveto
            48 callsubr
            return
          </CharString>
          <CharString index="75">
            -3 -6 rlineto
            return
          </CharString>
          <CharString index="76">
            -131 -29 callgsubr
          </CharString>
          <CharString index="77">
            234 503 rmoveto
            -2 6 -1 8 9 vvcurveto
            53 110 -2 51 vhcurveto
            11 22 1 50 29 vvcurveto
            16 0 24 -12 12 vhcurveto
            -146 -167 8 -233 hvcurveto
            -7 hlineto
            return
          </CharString>
          <CharString index="78">
            -57 callsubr
            -15 86 -52 15 -28 vhcurveto
            6 callsubr
            return
          </CharString>
          <CharString index="79">
            139 -9 156 -11 136 -65 callgsubr
            return
          </CharString>
          <CharString index="80">
            -16 152 -121 -21 568 149 -10 return
          </CharString>
          <CharString index="81">
            -16 1 -22 9 -4 vhcurveto
            return
          </CharString>
          <CharString index="82">
            12 11 -1 -1 7 hvcurveto
            1 hlineto
            10 10 -1 17 7 14 rrcurveto
            -9 4 rmoveto
            -4 -7 -5 -19 -8 vvcurveto
            1 -8 -11 1 -11 -11 -11 -1 -8 hhcurveto
            2 vlineto
            8 return
          </CharString>
          <CharString index="83">
            -18 -80 -28 -79 -17 -80 rrcurveto
            -35 -34 -1 -34 hhcurveto
            2 20 12 34 5 16 14 53 7 61 26 51 35 callgsubr
            return
          </CharString>
          <CharString index="84">
            3 -1 7 1 7 -7 3 -7 29 -32 11 -4 rrcurveto
            16 31 0 34 49 26 24 -6 26 hhcurveto
            -51 -50 -50 -50 -50 -50 rrcurveto
            -5 116 rmoveto
            1 hlineto
            return
          </CharString>
          <CharString index="85">
            1 1 2 1 return
          </CharString>
          <CharString index="86">
            147 -9 149 -149 169 -65 callgsubr
            return
          </CharString>
          <CharString index="87">
            5 5 hvcurveto
            2 50 0 50 50 return
          </CharString>
          <CharString index="88">
            hhcurveto
            -38 callsubr
            2 2 3 return
          </CharString>
          <CharString index="89">
            1 vlineto
            13 31 21 49 23 23 64 -1 22 1 5 -1 rrcurveto
            2 -21 1 -21 -21 -80 -9 -67 -88 vvcurveto
            -15 1 -14 2 -11 vhcurveto
            return
          </CharString>
          <CharString index="90">
            -2 10 -1 14 14 94 9 66 86 vvcurveto
            21 -1 23 -8 18 vhcurveto
            return
          </CharString>
          <CharString index="91">
            rmoveto
            8 -4 7 8 vvcurveto
            28 24 12 22 vhcurveto
            return
          </CharString>
          <CharString index="92">
            32 36 2 7 13 return
          </CharString>
          <CharString index="93">
            -12 -66 rmoveto
            -1 -5 -6 -1 -5 -8 -7 1 -7 hhcurveto
            11 19 14 20 14 17 rrcurveto
            -19 0 -18 -1 -18 vhcurveto
            endchar
          </CharString>
          <CharString index="94">
            rmoveto
            7 -14 -15 3 -16 hhcurveto
            return
          </CharString>
          <CharString index="95">
            -6 -13 -15 -2 -17 -26 -29 5 -22 -10 callsubr
            40 -1 41 -1 42 -1 rrcurveto
            return
          </CharString>
          <CharString index="96">
            -43 -7 -7 -22 -12 -12 3 -11 hhcurveto
            -8 -4 -1 -36 -37 return
          </CharString>
          <CharString index="97">
            hhcurveto
            37 -5 36 37 6 1 6 6 vvcurveto
            return
          </CharString>
          <CharString index="98">
            -61 vvcurveto
            -67 -2 -67 -3 -67 vhcurveto
            return
          </CharString>
          <CharString index="99">
            -11 10 62 -1 12 hhcurveto
            return
          </CharString>
          <CharString index="100">
            hstemhm
            64 153 -153 173 -10 127 -127 139 -23 171 -159 159 -65 callgsubr
            return
          </CharString>
          <CharString index="101">
            hhcurveto
            -1 -62 -1 -9 -9 vvcurveto
            -11 2 -28 4 vhcurveto
            9 callgsubr
            -2 0 -1 2 -1 rlinecurve
            2 119 rmoveto
            return
          </CharString>
          <CharString index="102">
            -19 0 -18 3 -19 vhcurveto
            -126 -124 6 -124 hhcurveto
            20 -1 22 21 vvcurveto
            22 1 21 3 21 vhcurveto
            return
          </CharString>
          <CharString index="103">
            -3 0 -3 -1 -4 vhcurveto
            3 -6 rlineto
            -6 22 23 -3 23 hhcurveto
            23 54 0 13 13 hvcurveto
            -150 5 rmoveto
            return
          </CharString>
          <CharString index="104">
            6 6 1 6 hhcurveto
            -45 -56 -53 -45 -53 -50 -50 50 -51 49 -50 50 13 2 14 3 13 2 rrcurveto
            return
          </CharString>
          <CharString index="105">
            -14 -11 -5 -13 -16 vvcurveto
            -44 6 -15 52 45 0 33 32 29 -27 13 -25 -11 -11 -3 -4 -9 vhcurveto
            return
          </CharString>
          <CharString index="106">
            rmoveto
            -21 -21 -20 -24 -23 -17 -48 48 -49 44 -50 45 return
          </CharString>
          <CharString index="107">
            rmoveto
            -25 -37 -1 -39 -43 vvcurveto
            -75 3 -112 107 vhcurveto
            return
          </CharString>
          <CharString index="108">
            -60 10 -92 74 37 29 37 51 vhcurveto
            return
          </CharString>
          <CharString index="109">
            1 -8 -8 1 -7 return
          </CharString>
          <CharString index="110">
            -35 callsubr
            -1 vhcurveto
            return
          </CharString>
          <CharString index="111">
            140 125 46 -8 46 -17 43 hvcurveto
            47 -19 -68 65 -60 hhcurveto
            -22 -60 -2 -31 -22 hvcurveto
            return
          </CharString>
          <CharString index="112">
            -53 callsubr
            rrcurveto
            return
          </CharString>
          <CharString index="113">
            -6 30 -1 30 return
          </CharString>
          <CharString index="114">
            -4 -35 callsubr
            -4 vhcurveto
            -33 -1 -33 -34 vvcurveto
            2 -19 -19 1 -19 -21 -21 -1 -20 hhcurveto
            return
          </CharString>
          <CharString index="115">
            -6 -12 -16 -3 -16 hhcurveto
            -34 -29 14 42 133 14 34 51 43 9 -30 -38 19 hvcurveto
            return
          </CharString>
          <CharString index="116">
            rmoveto
            -81 17 -94 103 95 20 123 62 74 -28 91 -88 -97 -16 -91 -82 -6 vhcurveto
            return
          </CharString>
          <CharString index="117">
            -5 -37 0 -38 -36 vvcurveto
            -37 -37 1 -36 hhcurveto
            return
          </CharString>
          <CharString index="118">
            150 3 -20 hstemhm
            return
          </CharString>
          <CharString index="119">
            48 52 -3 37 hhcurveto
            return
          </CharString>
          <CharString index="120">
            65 -11 159 -159 225 -193 -21 461 244 -165 165 return
          </CharString>
          <CharString index="121">
            30 -21 130 -100 -21 109 69 168 192 -125 125 -11 return
          </CharString>
          <CharString index="122">
            -60 -21 13 69 76 24 19 62 52 35 -14 -51 -32 -8 -39 -6 -17 hvcurveto
            return
          </CharString>
          <CharString index="123">
            27 34 vvcurveto
            2 6 2 3 2 4 6 6 rcurveline
            3 7 4 3 8 hhcurveto
            return
          </CharString>
          <CharString index="124">
            -7 175 -150 -21 23 -35 callgsubr
            return
          </CharString>
          <CharString index="125">
            152 502 rmoveto
            2 -13 -13 0 -13 return
          </CharString>
          <CharString index="126">
            -5 137 -115 -21 return
          </CharString>
          <CharString index="127">
            rmoveto
            433 hlineto
            -33 -3 -32 -31 vvcurveto
            -21 1 -20 4 -20 vhcurveto
            -146 return
          </CharString>
          <CharString index="128">
            vlineto
            2 callsubr
            -26 -33 -7 -32 hhcurveto
            -4 -4 0 1 -4 hvcurveto
            return
          </CharString>
          <CharString index="129">
            9 callgsubr
            -1 2 -1 rrcurveto
            return
          </CharString>
          <CharString index="130">
            2 -1 1 -2 2 -1 rrcurveto
            return
          </CharString>
          <CharString index="131">
            hstemhm
            53 167 -10 117 -8 154 -65 callgsubr
            hintmask 1000101010000000
            return
          </CharString>
          <CharString index="132">
            -2 16 -1 19 19 38 3 42 34 vvcurveto
            7 -7 -21 0 -16 hhcurveto
            return
          </CharString>
          <CharString index="133">
            1 -1 rlineto
            4 callgsubr
            93 hlineto
            -1 2 1 0 1 hhcurveto
            return
          </CharString>
          <CharString index="134">
            41 callgsubr
            1 1 rcurveline
            return
          </CharString>
          <CharString index="135">
            -1 6 7 -1 8 27 31 8 28 4 5 -1 4 hhcurveto
            return
          </CharString>
          <CharString index="136">
            19 -12 9 -26 21 -11 rrcurveto
            14 27 8 36 38 hhcurveto
            return
          </CharString>
          <CharString index="137">
            hhcurveto
            -7 -7 1 -23 -30 vvcurveto
            -33 2 -36 7 -3 vhcurveto
            return
          </CharString>
          <CharString index="138">
            -7 13 35 -4 35 hhcurveto
            20 26 1 10 5 hvcurveto
            -4 return
          </CharString>
          <CharString index="139">
            hhcurveto
            -113 -4 -111 -113 vvcurveto
            -28 3 -11 41 return
          </CharString>
          <CharString index="140">
            -1 1 -2 1 -1 return
          </CharString>
          <CharString index="141">
            -36 9 42 -18 39 hhcurveto
            76 42 77 69 hvcurveto
            8 return
          </CharString>
          <CharString index="142">
            38 -26 -61 8 -56 hhcurveto
            -67 -46 -1 -17 -22 hvcurveto
            return
          </CharString>
          <CharString index="143">
            rmoveto
            25 43 -5 36 hhcurveto
            24 18 1 10 10 hvcurveto
            return
          </CharString>
          <CharString index="144">
            -2 -8 -19 -1 -20 hhcurveto
            -28 -31 2 5 -11 hvcurveto
            return
          </CharString>
          <CharString index="145">
            -1 4 4 -1 4 hhcurveto
            3 3 2 6 5 hvcurveto
            return
          </CharString>
          <CharString index="146">
            rmoveto
            -22 22 7 31 -4 27 rrcurveto
            20 18 3 1 return
          </CharString>
          <CharString index="147">
            3 -1 4 -1 3 -1 return
          </CharString>
          <CharString index="148">
            13 -21 25 -21 502 return
          </CharString>
          <CharString index="149">
            -10 9 51 -1 26 hhcurveto
            42 15 7 29 hvcurveto
            return
          </CharString>
          <CharString index="150">
            hhcurveto
            -4 -4 -3 4 -27 vvcurveto
            -6 1 -5 1 return
          </CharString>
          <CharString index="151">
            42 -4 41 43 vvcurveto
            26 87 2 14 14 hvcurveto
            return
          </CharString>
          <CharString index="152">
            rmoveto
            -57 callgsubr
            return
          </CharString>
          <CharString index="153">
            83 vvcurveto
            6 -6 -12 2 -14 return
          </CharString>
          <CharString index="154">
            -21 24 -35 callgsubr
            return
          </CharString>
          <CharString index="155">
            -7 -8 -16 -2 -19 -30 -35 5 -17 hhcurveto
            return
          </CharString>
          <CharString index="156">
            vhcurveto
            24 39 27 36 24 38 73 1 rcurveline
            return
          </CharString>
        <CharString name=".notdef">
          -182 endchar
        </CharString>
        <CharString name=".null">
          -420 endchar
        </CharString>
        <CharString name="A">
          -47 callsubr
          710 -36 callsubr
          hintmask 00010100
          -90 callgsubr
          hintmask 01000100
          12 callsubr
          hintmask 00100100
          -19 callgsubr
          hintmask 00010100
          -50 callgsubr
          4 4 1 1 2 hvcurveto
          11 12 -2 11 hhcurveto
          25 -49 0 -60 21 -51 rrcurveto
          hintmask 10000100
          -8 callsubr
          hintmask 00001100
          -95 callgsubr
          -87 284 -98 callsubr
        </CharString>
        <CharString name="AE">
          296 -5 151 -129 -21 24 -21 133 150 134 134 -8 164 hstemhm
          442 143 hintmask 00000000
          hintmask 10000110
          703 134 rmoveto
          3 vlineto
          7 -4 -27 2 -26 -53 -18 -1 -37 hhcurveto
          -32 -32 0 3 -32 hvcurveto
          -7 15 -3 21 22 vvcurveto
          23 3 23 3 16 vhcurveto
          9 3 10 -3 10 3 rrcurveto
          15 16 -2 16 hhcurveto
          13 27 1 10 5 hvcurveto
          32 2 30 31 vvcurveto
          17 -1 19 -7 15 vhcurveto
          -40 6 -41 -9 -38 8 rrcurveto
          -5 12 -1 12 13 24 5 25 23 vvcurveto
          3 24 24 1 24 37 37 -1 39 hhcurveto
          29 46 1 13 7 hvcurveto
          146 vlineto
          -92 callgsubr
          -180 -183 2 -10 -179 hvcurveto
          -53 callsubr
          -57 -230 -60 -230 -34 -234 3 -2 2 -1 2 -2 rrcurveto
          47 48 0 2 47 hvcurveto
          hintmask 00111010
          3 2 rlineto
          2 hlineto
          6 6 17 83 10 25 rrcurveto
          17 hlineto
          -2 7 8 -1 9 hhcurveto
          8 7 0 1 7 hvcurveto
          1 -24 22 -82 10 -5 rrcurveto
          hintmask 01011010
          -3 50 50 -1 51 hhcurveto
          hintmask 00111010
          86 86 3 87 hhcurveto
          10 10 4 33 44 24 -1 20 4 vvcurveto
          -16 -125 rmoveto
          -1 -82 -83 -2 -82 hhcurveto
          -52 -52 1 3 -52 hvcurveto
          -5 35 -22 35 36 vvcurveto
          5 -6 -15 1 -13 -6 -6 0 -5 hhcurveto
          1 -4 -3 1 -4 hhcurveto
          -6 -8 0 -4 -4 hvcurveto
          -14 -27 -13 -55 -7 -32 rrcurveto
          1 -22 -37 3 -32 hhcurveto
          -18 -16 -1 -3 -11 hvcurveto
          34 231 59 225 57 226 rrcurveto
          10 177 178 -2 178 hhcurveto
          -138 vlineto
          -6 -31 -31 -2 -31 -40 -36 2 -41 hhcurveto
          -22 -25 -1 -10 -10 hvcurveto
          -23 -5 -25 -25 vvcurveto
          -14 1 -28 12 -6 vhcurveto
          -3 14 13 -1 14 14 14 1 14 hhcurveto
          11 12 0 -2 11 hvcurveto
          2 -17 1 -16 -16 -28 -2 -27 -27 vvcurveto
          2 -25 -3 -6 -6 -15 1 -14 hhcurveto
          -62 5 -1 -44 -2 hvcurveto
          -1 -13 -2 -16 -14 vvcurveto
          -17 3 -33 13 -6 vhcurveto
          84 85 0 -6 85 hvcurveto
          1 -12 0 -13 -12 vvcurveto
          -29 -2 -28 -5 -29 vhcurveto
          -428 280 rmoveto
          -8 44 -14 47 -14 43 rrcurveto
          -9 hlineto
          -1 -1 0 -1 0 vvcurveto
          -1 vlineto
          -19 -44 -13 -44 -47 vvcurveto
          -8 8 22 -1 17 hhcurveto
          11 10 1 6 8 hvcurveto
          -66 7 rmoveto
          3 40 9 39 14 37 12 -38 13 -40 6 -39 rrcurveto
          -1 -1 -2 -1 -1 -12 -17 4 -14 hhcurveto
          -4 -3 0 -1 -3 hvcurveto
          endchar
        </CharString>
        <CharString name="Aacute">
          -47 callsubr
          921 -36 callsubr
          hintmask 00010100
          -31 callgsubr
          -66 -212 -37 -217 -41 -217 rrcurveto
          -3 -17 -6 -18 -17 vvcurveto
          -63 callsubr
          hintmask 01000100
          12 callsubr
          hintmask 00100100
          -19 callgsubr
          hintmask 00010100
          -50 callgsubr
          15 14 3 -3 15 hvcurveto
          25 -49 0 -60 21 -51 rrcurveto
          hintmask 10000100
          -8 callsubr
          hintmask 00001100
          -46 callsubr
          -33 -2 -53 callgsubr
          rlinecurve
          -59 callgsubr
          20 848 -82 callsubr
          -106 callgsubr
          3 -468 -98 callsubr
        </CharString>
        <CharString name="Acircumflex">
          -47 callsubr
          921 -20 21 -36 callsubr
          hintmask 00010010
          -90 callgsubr
          hintmask 01000010
          12 callsubr
          hintmask 00100010
          -19 callgsubr
          hintmask 00010010
          -50 callgsubr
          15 14 3 -3 15 hvcurveto
          25 -49 0 -60 21 -51 rrcurveto
          hintmask 10000010
          -8 callsubr
          hintmask 00001100
          -46 callsubr
          -33 -2 -53 callgsubr
          rlinecurve
          -77 callgsubr
          4 -30 11 -30 6 -29 44 -203 46 -202 44 -202 rrcurveto
          -3 -16 -17 -1 -15 hhcurveto
          -11 -10 1 1 -10 hvcurveto
          36 757 -42 callsubr
          hintmask 00010010
          -107 callsubr
          -64 -468 -98 callsubr
        </CharString>
        <CharString name="Adieresis">
          -47 callsubr
          754 120 hstemhm
          70 184 hintmask 00000000
          hintmask 00010110
          -90 callgsubr
          hintmask 01000110
          12 callsubr
          hintmask 00100110
          -19 callgsubr
          hintmask 00010110
          -50 callgsubr
          4 4 1 1 2 hvcurveto
          11 12 -2 11 hhcurveto
          25 -49 0 -60 21 -51 rrcurveto
          hintmask 10000110
          -8 callsubr
          hintmask 00001110
          -95 callgsubr
          -106 752 rmoveto
          -100 callgsubr
          -171 hmoveto
          -100 callgsubr
          196 -468 rmoveto
          -8 67 -3 112 -30 35 rrcurveto
          -4 hlineto
          -19 -14 -146 -67 -6 hvcurveto
          -6 6 6 -1 7 19 20 1 21 hhcurveto
          -188 483 -66 callgsubr
          -77 callsubr
          174 hmoveto
          -99 callsubr
          -77 callsubr
          -55 -474 rmoveto
          7 65 3 70 21 63 8 -10 1 -24 2 -9 9 -51 6 -51 6 -52 rrcurveto
          -1 -15 -14 -1 -15 hhcurveto
          -6 -7 0 1 -6 hvcurveto
          endchar
        </CharString>
        <CharString name="Agrave">
          -47 callsubr
          927 -36 callsubr
          hintmask 00010100
          -31 callgsubr
          -66 -212 -37 -217 -41 -217 rrcurveto
          -3 -17 -6 -18 -17 vvcurveto
          -63 callsubr
          hintmask 01000100
          12 callsubr
          hintmask 00100100
          -19 callgsubr
          hintmask 00010100
          -63 callgsubr
          19 -2 19 4 18 -3 25 -49 0 -60 21 -51 rrcurveto
          hintmask 10000100
          -8 callsubr
          hintmask 00001100
          -75 callgsubr
          -67 4 rcurveline
          -53 callgsubr
          -59 callgsubr
          -232 919 rmoveto
          -23 -24 -23 -23 -23 -23 -4 -3 rcurveline
          -12 -9 102 -63 15 -28 8 callgsubr
          -42 51 -46 34 rrcurveto
          120 -134 rmoveto
          11 -13 11 -13 13 -11 rrcurveto
          -4 -16 -30 -2 -25 hhcurveto
          -22 -20 2 2 -7 hvcurveto
          -11 22 -66 51 -22 20 63 63 rcurveline
          44 -33 39 -43 38 -41 rrcurveto
          21 -507 -98 callsubr
        </CharString>
        <CharString name="Aring">
          -47 callsubr
          745 55 -10 107 -10 53 hstemhm
          131 53 -8 103 -10 54 -65 callgsubr
          hintmask 0001010110100000
          -90 callgsubr
          hintmask 0100010110100000
          12 callsubr
          hintmask 0010010110100000
          -19 callgsubr
          hintmask 0001010110100000
          -50 callgsubr
          4 4 1 1 2 hvcurveto
          11 12 -2 11 hhcurveto
          25 -49 0 -60 21 -51 rrcurveto
          hintmask 1000010110100000
          -8 callsubr
          hintmask 0000110110100000
          -95 callgsubr
          -55 773 -6 callgsubr
          -8 5 rmoveto
          -17 -11 -34 -8 -34 hhcurveto
          15 callsubr
          -22 -492 rmoveto
          -8 67 -3 112 -30 35 rrcurveto
          -4 hlineto
          -19 -14 -146 -67 -6 hvcurveto
          -6 6 6 -1 7 19 20 1 21 hhcurveto
          -77 608 rmoveto
          hintmask 0001001001000000
          -2 callsubr
          7 -600 rmoveto
          7 65 3 70 21 63 8 -10 1 -24 2 -9 9 -51 6 -51 6 -52 rrcurveto
          -1 -15 -14 -1 -15 hhcurveto
          -6 -7 0 1 -6 hvcurveto
          -2 591 rmoveto
          hintmask 0001010110100000
          -11 callgsubr
        </CharString>
        <CharString name="Atilde">
          -47 callsubr
          744 46 callgsubr
          hintmask 00000000
          hintmask 00010101
          -31 callgsubr
          -65 -205 -44 -215 -33 -211 -4 -22 -1 -24 -6 -21 -63 callsubr
          hintmask 01000101
          12 callsubr
          hintmask 00100101
          -19 callgsubr
          hintmask 00010101
          -50 callgsubr
          15 14 3 -3 15 hvcurveto
          25 -49 0 -60 21 -51 rrcurveto
          hintmask 10000101
          -8 callsubr
          hintmask 00001010
          -75 callgsubr
          -10 4 -23 5 -13 -5 rrcurveto
          -21 hlineto
          -53 callgsubr
          -77 callgsubr
          2 -18 7 -17 4 -18 44 -215 52 -214 46 -214 rrcurveto
          -3 -16 -17 -1 -15 hhcurveto
          -11 -10 1 1 -10 hvcurveto
          -213 752 -16 callsubr
          hintmask 00010101
          56 -13 -73 81 hhcurveto
          84 36 78 89 hvcurveto
          -1 -1 2 2 hvcurveto
          33 callsubr
          -35 callsubr
          rlinecurve
          -5 -5 -1 -5 -9 -9 1 -10 hhcurveto
          -16 -16 -1 -6 -12 hvcurveto
          -6 -25 -17 -30 -27 -5 rrcurveto
          -87 callsubr
          -51 callsubr
          175 -476 -98 callsubr
        </CharString>
        <CharString name="B">
          60 35 131 vstem
          471 145 rmoveto
          5 0 5 5 vvcurveto
          99 -30 51 -93 43 vhcurveto
          -1 -1 1 1 hvcurveto
          3 3 4 1 4 3 rrcurveto
          70 36 17 56 67 vvcurveto
          34 -1 38 -21 29 vhcurveto
          -35 48 16 -16 -49 35 rrcurveto
          25 -35 -50 8 -53 hhcurveto
          -57 -100 -7 -22 -22 hvcurveto
          2 -66 0 -65 -65 -107 -1 -106 -106 vvcurveto
          -58 0 -59 2 -58 vhcurveto
          7 -14 102 3 29 -1 rrcurveto
          -1 22 21 -1 21 hhcurveto
          75 72 12 61 55 hvcurveto
          18 20 4 36 5 27 rrcurveto
          -12 1 rmoveto
          -7 -33 1 -16 -19 -28 rrcurveto
          -58 -39 -78 -10 -71 hhcurveto
          -59 -47 5 2 -54 hvcurveto
          -6 -7 -1 -7 hhcurveto
          -5 -5 1 1 -4 hvcurveto
          -2 57 0 58 57 105 1 105 105 vvcurveto
          64 0 65 -2 64 vhcurveto
          12 51 55 10 55 hhcurveto
          127 99 -72 -122 -30 -7 -30 -15 -26 hvcurveto
          -19 -32 -62 -29 -16 vvcurveto
          11 -22 35 -5 19 -14 rrcurveto
          50 -38 11 -55 -59 -5 0 -5 -5 vvcurveto
          -147 95 rmoveto
          65 -25 -59 -4 -61 hhcurveto
          -11 -21 -1 -22 -25 vvcurveto
          -33 1 -45 14 -27 vhcurveto
          -1 15 14 -1 14 hhcurveto
          59 47 12 58 12 -2 15 -5 17 hvcurveto
          5 288 rmoveto
          32 -16 -44 16 -40 hhcurveto
          -20 -29 -4 -13 -6 hvcurveto
          -7 1 -7 -8 -26 -3 -26 -26 vvcurveto
          -29 -5 -22 38 60 72 28 57 10 -3 12 -5 13 vhcurveto
          -17 -291 rmoveto
          4 -13 1 -12 -12 vvcurveto
          -55 -38 -8 -40 -18 -18 2 1 -15 vhcurveto
          -4 29 -5 32 32 vvcurveto
          19 2 19 4 18 vhcurveto
          54 52 4 -56 21 hvcurveto
          6 286 rmoveto
          5 -11 2 -10 -10 vvcurveto
          -50 -68 -20 -51 -29 7 16 18 vhcurveto
          26 3 25 26 8 -1 7 8 vvcurveto
          5 11 14 3 16 hhcurveto
          36 42 -14 -27 13 hvcurveto
          endchar
        </CharString>
        <CharString name="C">
          68 -18 174 -143 -21 287 140 -10 155 -11 180 hstemhm
          22 154 hintmask 00000000
          hintmask 10101100
          197 539 rmoveto
          13 13 18 -4 16 5 rrcurveto
          75 -23 -81 -48 12 hvcurveto
          hintmask 10010100
          -12 25 42 -3 30 hhcurveto
          hintmask 10101100
          16 33 0 10 10 hvcurveto
          8 23 3 24 23 vvcurveto
          129 -112 115 -131 -111 -47 -41 -86 -34 vhcurveto
          -7 -17 -7 -18 -19 -38 callgsubr
          -47 -2 -47 -47 vvcurveto
          -110 vlineto
          -30 1 -30 1 -29 vhcurveto
          1 -57 -3 -58 42 -44 rrcurveto
          -42 40 61 -13 57 hhcurveto
          159 88 103 126 20 -1 40 -13 14 hvcurveto
          7 -19 -32 1 -14 -17 -17 -5 -16 hhcurveto
          -6 -7 1 2 -6 hvcurveto
          -16 -8 11 -74 -15 -24 rrcurveto
          -19 -12 -21 -10 -20 hhcurveto
          -62 -8 93 58 hvcurveto
          38 4 38 35 15 -2 21 20 vvcurveto
          19 2 19 4 13 vhcurveto
          1 1 rlineto
          3 callgsubr
          -1 vlineto
          1 4 2 3 2 4 rrcurveto
          -8 5 rmoveto
          -10 -13 -4 -26 -42 -21 1 -19 -4 vvcurveto
          -1 -25 -2 -38 -40 vvcurveto
          -95 18 -75 65 26 27 16 32 11 vhcurveto
          9 28 -7 29 6 29 rrcurveto
          -1 7 7 0 8 19 20 2 19 hhcurveto
          13 -5 16 5 17 -5 rrcurveto
          6 -21 3 -23 -22 vvcurveto
          hintmask 01101100
          -126 -88 -92 -151 -53 -59 12 40 -37 vhcurveto
          -40 42 4 57 -1 54 rrcurveto
          -1 61 -2 60 61 44 5 4 86 vvcurveto
          11 -1 10 -2 7 vhcurveto
          115 84 66 100 134 111 -108 -122 -22 -4 -23 -7 -22 vhcurveto
          -5 -16 -17 -1 -17 hhcurveto
          -30 -30 5 5 -28 hvcurveto
          hintmask 10010100
          41 -8 18 94 -88 hhcurveto
          -19 -18 -6 -12 -12 hvcurveto
          endchar
        </CharString>
        <CharString name="CR">
          -182 endchar
        </CharString>
        <CharString name="Ccedilla">
          56 -135 130 -8 163 -137 -21 23 -21 24 -21 271 137 -10 151 -11 163 2 -20 hstemhm
          21 152 -7 145 -65 callgsubr
          hintmask 0100010101000000
          33 525 rmoveto
          -2 -39 -2 -39 -1 -39 rrcurveto
          -150 vlineto
          -109 2 -162 140 vhcurveto
          -7 -26 -17 -64 -23 vvcurveto
          hintmask 1000110101000000
          -8 4 3 -1 16 hhcurveto
          31 40 2 6 6 hvcurveto
          1 vlineto
          13 35 7 40 8 36 rrcurveto
          117 2 69 109 108 vvcurveto
          20 0 38 -13 13 vhcurveto
          7 -19 -29 1 -18 hhcurveto
          -26 -27 0 -8 -17 hvcurveto
          -5 -27 6 -28 -8 -26 rrcurveto
          hintmask 0100010101000000
          -29 -9 -22 -15 -23 hhcurveto
          -62 -8 101 56 63 2 22 1 48 hvcurveto
          50 1 2 45 64 hhcurveto
          10 -5 10 -1 9 -8 23 -34 -9 -41 12 -38 rrcurveto
          hintmask 1000101011000000
          -9 17 49 -4 23 hhcurveto
          17 35 7 1 hvcurveto
          1 hlineto
          1 0 0 1 1 hvcurveto
          -1 hlineto
          10 2 54 15 hvcurveto
          hintmask 1000110101000000
          117 -70 104 -145 4 vhcurveto
          hintmask 1000110011000000
          -18 -20 2 -22 hhcurveto
          -109 -43 -88 -87 hvcurveto
          10 -1 rmoveto
          53 24 85 58 19 vhcurveto
          9 27 31 -1 28 hhcurveto
          48 56 -1 -27 41 hvcurveto
          63 -41 31 -73 -72 vvcurveto
          -21 -3 -22 -5 -20 vhcurveto
          -1 -17 -17 -6 -17 -26 -26 9 -26 hhcurveto
          hintmask 1000101010100000
          47 -12 12 85 -69 hhcurveto
          -70 0 -63 -42 -1 hvcurveto
          -1 -36 -3 -42 -42 vvcurveto
          -90 11 -91 70 38 30 32 67 10 0 10 2 10 vhcurveto
          hintmask 1000110101000000
          6 8 -1 7 hhcurveto
          7 8 1 2 6 hvcurveto
          34 hlineto
          13 -5 16 5 17 -5 rrcurveto
          6 -20 3 -21 -21 vvcurveto
          -103 -68 -106 -112 vhcurveto
          hintmask 0001010101000000
          4 callgsubr
          hintmask 0010010101000000
          -1 -3 -2 -1 -3 hhcurveto
          -6 -24 -21 -63 -3 -26 rrcurveto
          -21 -23 -4 -20 hhcurveto
          -5 -6 1 1 -5 hvcurveto
          1 5 3 23 4 11 rrcurveto
          6 25 12 26 26 vvcurveto
          -92 callgsubr
          hintmask 1000110101000000
          -1 -6 -6 0 -6 hhcurveto
          -121 0 171 89 hvcurveto
          33 -1 34 33 vvcurveto
          56 3 55 3 56 vhcurveto
          endchar
        </CharString>
        <CharString name="D">
          62 11 -21 27 -35 callgsubr
          23 -35 callgsubr
          485 222 hstemhm
          35 153 -12 157 -10 129 -129 141 -65 callgsubr
          hintmask 0000111010000000
          397 620 rmoveto
          101 -67 -66 -14 -111 hhcurveto
          -34 -81 -1 -17 -2 hvcurveto
          0 0 1 1 vhcurveto
          -1 -1 -1 -2 -1 -29 1 -28 -29 -86 -2 -86 -86 vvcurveto
          -114 3 -114 14 -114 vhcurveto
          hintmask 0001011010000000
          2 1 0 -1 2 hvcurveto
          1 hlineto
          hintmask 0010011010000000
          -8 -1 -7 0 -7 -1 rrcurveto
          23 hlineto
          hintmask 1000011010000000
          1 -2 1 -2 2 -3 rrcurveto
          hintmask 0010011010000000
          -1 3 0 2 2 vvcurveto
          hintmask 0100011010000000
          43 43 -1 43 hhcurveto
          hintmask 0000111010000000
          44 43 1 3 44 hvcurveto
          45 45 41 65 26 58 5 11 13 24 1 14 1 1 rcurveline
          27 9 29 1 28 vhcurveto
          hintmask 0000111001000000
          1 30 1 26 23 vvcurveto
          85 -12 54 -56 100 vhcurveto
          -8 -5 rmoveto
          55 -97 11 -53 -81 vvcurveto
          hintmask 0000111010000000
          -24 -1 -26 -1 -31 vhcurveto
          -1 -28 -9 -29 -27 vvcurveto
          1 hlineto
          -1 0 -1 -1 -1 hvcurveto
          1 vlineto
          -25 -77 -50 -68 -50 -63 rrcurveto
          -3 -40 -40 -1 -40 -46 -46 1 -45 hhcurveto
          -13 112 -3 113 113 83 2 83 83 30 -1 31 30 vvcurveto
          1 vlineto
          79 16 79 -11 80 5 44 -15 36 -28 26 -38 rrcurveto
          -84 -364 rmoveto
          hintmask 0000110100000000
          16 27 13 30 32 vvcurveto
          59 -22 95 -75 -19 -32 -1 -9 -9 vhcurveto
          -193 vlineto
          -15 -2 -15 -13 vvcurveto
          -23 6 -17 33 12 13 0 3 12 vhcurveto
          -1 1 2 0 1 hhcurveto
          16 26 25 17 9 hvcurveto
          -9 4 rmoveto
          -11 -6 -29 -25 -6 hhcurveto
          -1 hlineto
          1 -2 -2 0 -4 -13 -23 -3 -7 hhcurveto
          -24 6 5 36 23 vvcurveto
          hintmask 0000111010000000
          40 4 41 40 25 -2 25 26 vvcurveto
          1 15 18 4 16 hhcurveto
          59 29 -82 -55 -34 -10 -30 -17 -28 hvcurveto
          endchar
        </CharString>
        <CharString name="E">
          -58 callsubr
          hstemhm
          31 164 -9 137 hintmask 00000000
          hintmask 01110100
          468 134 rmoveto
          2 vlineto
          -92 callgsubr
          hintmask 10010100
          -92 callsubr
          hintmask 10010010
          -49 callgsubr
          hintmask 10001100
          -105 callsubr
          hintmask 01110010
          -107 callgsubr
          -248 255 rmoveto
          -2 hlineto
          endchar
        </CharString>
        <CharString name="Eacute">
          -58 callsubr
          -15 59 171 -20 hstemhm
          23 164 -9 137 -65 callgsubr
          hintmask 0111011100000000
          468 134 rmoveto
          2 vlineto
          -92 callgsubr
          hintmask 1001011100000000
          -92 callsubr
          hintmask 1001011010000000
          -49 callgsubr
          hintmask 1000101100000000
          -105 callsubr
          hintmask 0111011010000000
          -107 callgsubr
          -51 842 -82 callsubr
          -106 callgsubr
          -87 -491 rmoveto
          -2 hlineto
          endchar
        </CharString>
        <CharString name="Ecircumflex">
          -58 callsubr
          -15 64 166 20 callgsubr
          26 164 -9 137 -65 callgsubr
          hintmask 0111010110000000
          468 134 rmoveto
          2 vlineto
          -92 callgsubr
          hintmask 1001010110000000
          -92 callsubr
          hintmask 1001010101000000
          -49 callgsubr
          hintmask 1000100110000000
          -105 callsubr
          hintmask 0111011001000000
          -107 callgsubr
          -32 751 -42 callsubr
          hintmask 1001010110000000
          -107 callsubr
          -157 -491 rmoveto
          -2 hlineto
          endchar
        </CharString>
        <CharString name="Edieresis">
          -58 callsubr
          -15 72 -9 120 hstemhm
          28 164 -102 184 -91 137 -65 callgsubr
          hintmask 0111010100000000
          468 134 rmoveto
          2 vlineto
          -92 callgsubr
          hintmask 1001010100000000
          -92 callsubr
          hintmask 1001010001000000
          -49 callgsubr
          hintmask 1000101100000000
          -105 callsubr
          hintmask 0111010001000000
          -107 callgsubr
          hintmask 1001001010000000
          -166 746 rmoveto
          -100 callgsubr
          -171 hmoveto
          -100 callgsubr
          3 -74 callsubr
          hintmask 1001010010000000
          -77 callsubr
          174 hmoveto
          -99 callsubr
          -77 callsubr
          -82 -501 rmoveto
          -2 hlineto
          endchar
        </CharString>
        <CharString name="Egrave">
          -58 callsubr
          -15 59 171 -20 hstemhm
          27 164 -9 137 -65 callgsubr
          hintmask 0111011100000000
          468 134 rmoveto
          2 vlineto
          -92 callgsubr
          hintmask 1001011100000000
          -92 callsubr
          hintmask 1001011010000000
          -49 callgsubr
          hintmask 1000101100000000
          -105 callsubr
          hintmask 0111011010000000
          -107 callgsubr
          -274 913 rmoveto
          -23 -24 -23 -23 -23 -23 rrcurveto
          -8 vlineto
          -15 86 -52 15 -28 vhcurveto
          -6 30 -1 30 32 36 2 7 13 vhcurveto
          -101 callgsubr
          -98 -530 rmoveto
          -2 hlineto
          endchar
        </CharString>
        <CharString name="Eth">
          62 -5 175 -150 -21 159 119 -12 149 -10 138 -13 182 hstemhm
          15 69 -13 126 -126 191 -72 174 -117 117 -10 137 -65 callgsubr
          hintmask 1001011001000000
          -5 415 rmoveto
          -5 -3 -1 -6 -6 -43 5 -42 -42 vvcurveto
          -6 6 13 -2 13 7 8 1 6 hhcurveto
          hintmask 0110100100100000
          -63 -2 -19 -106 vvcurveto
          -38 2 -37 9 -4 vhcurveto
          hintmask 1001011000010000
          65 66 -4 66 hhcurveto
          35 42 4 22 29 hvcurveto
          46 35 23 71 14 54 rrcurveto
          15 58 8 59 58 vvcurveto
          152 -51 203 -197 -57 -58 -12 -7 -51 vhcurveto
          -2 -78 callsubr
          1 -39 1 -39 -39 -52 -1 -52 -51 vvcurveto
          -18 -17 1 -17 hhcurveto
          62 -6 rmoveto
          52 1 52 52 vvcurveto
          39 -1 39 -1 40 vhcurveto
          6 49 58 12 55 hhcurveto
          205 33 -229 -148 -47 -13 -48 -11 -45 hvcurveto
          -13 -52 -22 -69 -44 -34 rrcurveto
          -21 -27 -41 -3 -32 -65 -63 4 -64 hhcurveto
          -7 87 3 88 87 vvcurveto
          hintmask 0110101001000000
          5 -6 -15 1 -14 -6 -7 0 -5 -10 callsubr
          17 17 -1 18 hhcurveto
          258 -202 rmoveto
          20 33 8 47 48 vvcurveto
          113 -32 99 -89 vhcurveto
          hintmask 1001011001000000
          -17 -18 -5 -8 -17 -45 callgsubr
          1 -15 1 -16 -15 -23 -1 -24 -23 vvcurveto
          -6 6 15 -2 14 8 9 1 7 hhcurveto
          hintmask 0110101000100000
          -6 -1 -7 -7 -32 4 -33 -33 vvcurveto
          -19 -20 1 -19 hhcurveto
          -2 -78 callsubr
          hintmask 0110101001000000
          -35 2 -36 -34 vvcurveto
          -10 5 7 -4 26 hhcurveto
          62 24 15 29 22 hvcurveto
          -8 5 rmoveto
          hintmask 1001010100100000
          -33 -24 -32 -4 -34 -12 -13 2 -12 hhcurveto
          -1 1 rlineto
          -2 14 -1 16 15 18 1 19 18 vvcurveto
          19 19 -1 20 hhcurveto
          hintmask 1001010010010000
          6 12 0 17 24 vvcurveto
          19 -1 18 -3 9 vhcurveto
          34 vlineto
          5 -6 -14 1 -14 -10 -9 0 -6 hhcurveto
          22 1 22 22 vvcurveto
          14 -1 15 -1 15 vhcurveto
          5 13 17 3 13 hhcurveto
          84 29 -82 -117 -46 -8 -46 -18 -31 hvcurveto
          endchar
        </CharString>
        <CharString name="Euro">
          70 13 -21 365 40 -10 180 -55 -20 65 156 1 -36 callsubr
          hintmask 10100100
          226 -2 rmoveto
          -4 36 37 -2 38 hhcurveto
          42 42 3 7 39 hvcurveto
          8 8 1 21 17 6 0 6 5 12 1 16 16 vvcurveto
          22 -2 23 -6 13 vhcurveto
          -74 10 -155 -25 -25 97 38 2 36 -2 37 6 rrcurveto
          9 9 0 25 15 vvcurveto
          19 0 30 -11 11 vhcurveto
          -40 -41 1 1 -41 hvcurveto
          -2 6 1 10 7 vvcurveto
          -1 18 20 -1 19 hhcurveto
          20 44 0 14 7 hvcurveto
          101 vlineto
          hintmask 11011000
          17 -9 -69 -7 -6 hhcurveto
          37 28 44 8 46 33 35 -4 30 hhcurveto
          27 callsubr
          26 4 26 26 vvcurveto
          hintmask 11010100
          24 -1 37 -9 19 vhcurveto
          -25 -25 -2 -24 hhcurveto
          hintmask 11011000
          -18 -18 1 -19 hhcurveto
          -91 -96 -10 -72 -61 hvcurveto
          -48 -56 -6 -91 -72 vvcurveto
          -174 -7 -206 211 -34 vhcurveto
          1 10 rmoveto
          -204 33 9 205 168 vvcurveto
          71 6 84 45 55 vhcurveto
          69 57 95 10 87 20 19 -1 18 22 23 2 24 hhcurveto
          -24 5 -24 -23 -24 -3 -23 -23 vvcurveto
          hintmask 10100100
          -29 -33 4 -32 hhcurveto
          -53 -51 -10 -48 -28 hvcurveto
          7 -13 53 7 28 -5 rrcurveto
          -94 vlineto
          hintmask 11011000
          -5 -19 -20 -2 -20 -22 -22 2 -20 hhcurveto
          -5 -5 0 -4 -4 vvcurveto
          2 -20 -4 -7 4 -2 rrcurveto
          40 47 -3 40 hhcurveto
          3 -15 2 -18 -18 vvcurveto
          -14 -1 -14 -3 -11 vhcurveto
          -30 -6 -72 10 -15 -15 28 -111 142 25 89 -10 rrcurveto
          -31 3 -32 -31 vvcurveto
          -18 -1 -17 -3 -17 vhcurveto
          -7 -37 -40 -3 -40 hhcurveto
          -38 -37 3 4 -36 hvcurveto
          endchar
        </CharString>
        <CharString name="F">
          74 13 -35 callgsubr
          28 -21 525 179 hstemhm
          27 180 -7 148 hintmask 00000000
          hintmask 10010100
          355 256 rmoveto
          6 6 0 -1 11 13 -2 19 2 21 4 35 29 vvcurveto
          20 -1 11 -9 10 vhcurveto
          -3 -17 -28 -3 -26 hhcurveto
          hintmask 10011000
          -44 -20 1 43 15 4 16 5 13 hvcurveto
          10 67 76 1 68 4 6 0 5 hhcurveto
          18 20 1 8 4 hvcurveto
          10 vlineto
          3 8 0 14 17 vvcurveto
          36 -1 55 -6 13 vhcurveto
          13 -57 -60 4 -59 hhcurveto
          -51 -51 -3 -4 -49 hvcurveto
          -39 -3 -47 3 -37 -12 -3 -6 rcurveline
          -141 vlineto
          -91 -3 -90 -90 -88 1 -88 -88 vvcurveto
          -10 5 7 -1 13 hhcurveto
          hintmask 01011000
          9 8 1 6 hhcurveto
          hintmask 10010100
          -2 27 16 1 38 hhcurveto
          24 28 1 8 4 hvcurveto
          80 2 80 6 80 vhcurveto
          41 4 44 4 40 7 rrcurveto
          -92 hmoveto
          -11 -1 -11 -3 -10 -1 rrcurveto
          3 vlineto
          -1 -1 0 -1 -1 -1 rrcurveto
          -4 hlineto
          5 callsubr
          -6 -80 -2 -81 -81 vvcurveto
          hintmask 00111000
          -3 -29 -31 -2 -30 hhcurveto
          -25 -26 2 3 -24 hvcurveto
          223 2 224 224 vvcurveto
          10 77 90 9 88 hhcurveto
          64 63 -5 -12 55 hvcurveto
          -43 1 -43 -43 vvcurveto
          -1 -4 0 -3 -4 vvcurveto
          -18 -4 -20 2 -18 -1 -68 -4 -71 2 -67 -10 rrcurveto
          -10 -5 -5 -33 -18 vvcurveto
          -49 25 -2 49 24 25 2 3 18 vhcurveto
          3 -8 1 -11 -13 -29 -6 -38 -29 vvcurveto
          -11 1 -9 2 -8 vhcurveto
          -30 -4 -29 -2 -29 -3 rrcurveto
          endchar
        </CharString>
        <CharString name="G">
          61 -20 157 -126 -21 136 118 -15 137 -11 122 -14 99 -99 243 hstemhm
          20 146 -7 85 -11 94 -12 141 -65 callgsubr
          hintmask 1001010101000000
          241 353 rmoveto
          0 -4 -5 -2 -2 vhcurveto
          -13 2 -15 -14 vvcurveto
          -2 -4 -1 -9 -11 vvcurveto
          -38 4 -13 33 8 7 1 3 5 vhcurveto
          hintmask 1001001100100000
          25 hlineto
          -86 -35 -10 -53 vhcurveto
          -54 16 -7 67 60 vvcurveto
          137 9 121 41 15 vhcurveto
          14 15 -1 14 hhcurveto
          38 -12 8 -41 15 -30 rrcurveto
          -4 11 23 -2 19 hhcurveto
          12 11 1 2 7 hvcurveto
          4 6 -1 6 hhcurveto
          12 11 1 5 9 hvcurveto
          13 5 14 12 vvcurveto
          110 -82 86 -117 -51 -51 -2 -25 -44 vhcurveto
          -82 -47 -9 -117 -91 vvcurveto
          -96 -6 -216 69 -77 vhcurveto
          -42 37 50 -13 51 hhcurveto
          62 102 10 60 43 hvcurveto
          36 50 -1 78 60 vvcurveto
          hintmask 1000100101000000
          21 -2 88 -8 8 vhcurveto
          -2 1 -1 -35 callsubr
          rrcurveto
          hintmask 1001010101000000
          -39 -52 9 -46 hhcurveto
          -27 -25 -3 -10 -20 hvcurveto
          5 -9 rmoveto
          hintmask 0110100101000000
          9 18 23 2 26 45 52 -8 36 hhcurveto
          4 -44 6 -48 -49 vvcurveto
          -46 -5 -46 -18 -40 vhcurveto
          -72 -32 -112 -12 -67 hhcurveto
          -50 -48 12 40 -33 hvcurveto
          -51 62 -8 143 102 vvcurveto
          70 1 40 5 55 vhcurveto
          4 44 8 55 34 32 rrcurveto
          36 38 52 15 52 hhcurveto
          118 103 -58 -121 -18 2 -22 -15 -3 -2 0 -1 -2 hvcurveto
          45 callgsubr
          -24 -24 3 -24 hhcurveto
          hintmask 0110010010100000
          54 -14 -25 30 -60 hhcurveto
          -69 4 -116 -57 -3 hvcurveto
          -1 -26 -1 -28 -27 vvcurveto
          -75 2 -107 81 vhcurveto
          hintmask 0110100101000000
          51 36 35 61 14 -4 8 -24 hvcurveto
          -14 -10 -4 -14 hhcurveto
          hintmask 1001010010100000
          -16 -1 8 10 hvcurveto
          23 4 14 20 vvcurveto
          10 -2 11 -2 6 vhcurveto
          1 vlineto
          0 0 1 1 vhcurveto
          endchar
        </CharString>
        <CharString name="H">
          79 15 -21 22 -35 callgsubr
          281 156 256 26 hstemhm
          26 23 -23 168 -13 126 -10 144 3 24 -65 callgsubr
          hintmask 1001101011000000
          474 6 rmoveto
          -9 233 -9 234 -9 233 -92 callgsubr
          -12 hlineto
          3 -8 -10 1 -11 hhcurveto
          -30 -58 -8 -13 -13 hvcurveto
          2 -32 1 -31 -32 vvcurveto
          -54 -3 -54 -4 -53 vhcurveto
          -3 -17 -19 -2 -19 hhcurveto
          -16 -15 1 3 -15 hvcurveto
          -1 6 -1 6 -1 7 rrcurveto
          -30 callgsubr
          vhcurveto
          -13 80 7 82 -12 81 rrcurveto
          9 -5 -20 0 -11 -20 -20 -3 -19 -14 -13 2 -13 hhcurveto
          -2 -78 callsubr
          1 0 0 0 -2 -1 -101 -19 vhcurveto
          -138 8 -136 -137 -15 0 -21 -22 vvcurveto
          -51 2 -57 15 -5 vhcurveto
          3 7 8 2 10 22 27 -8 25 hhcurveto
          13 13 2 7 11 hvcurveto
          1 1 1 1 vhcurveto
          4 24 1 24 24 43 -4 44 43 vvcurveto
          21 1 22 3 21 vhcurveto
          4 20 19 2 19 hhcurveto
          16 17 -2 -3 17 hvcurveto
          12 -91 -11 -91 14 -91 rrcurveto
          hintmask 0101110101000000
          -3 5 0 -1 7 hhcurveto
          hintmask 0011110101000000
          3 2 0 1 3 hvcurveto
          hintmask 0101110101000000
          20 22 -1 22 hhcurveto
          21 22 1 5 20 hvcurveto
          -132 4 rmoveto
          -6 hlineto
          -9 67 0 69 68 vvcurveto
          9 -2 58 -5 4 vhcurveto
          6 -8 -16 2 -18 hhcurveto
          -35 -38 -7 -5 -10 hvcurveto
          -3 -22 -1 -22 -22 -42 3 -42 -42 vvcurveto
          -25 -1 -25 -4 -24 vhcurveto
          -5 -9 -11 -2 -11 -24 -27 8 -24 hhcurveto
          -7 -7 -1 -2 -7 hvcurveto
          -3 20 1 20 -1 20 rrcurveto
          -12 160 -1 162 160 vvcurveto
          47 1 48 2 48 vhcurveto
          -3 9 10 -1 10 22 25 4 23 hhcurveto
          7 7 0 -1 7 hvcurveto
          13 -86 -6 -87 14 -87 rrcurveto
          -5 10 18 -4 15 hhcurveto
          hintmask 1001110011000000
          24 42 6 8 hhcurveto
          0 -1 0 -1 vhcurveto
          -71 callgsubr
          hintmask 1001110101000000
          4 55 3 56 56 vvcurveto
          30 -1 30 -2 30 vhcurveto
          8 40 35 3 40 hhcurveto
          -1 5 1 0 6 hhcurveto
          27 -691 rlineto
          -2 -11 -11 -1 -12 -19 -20 2 -18 hhcurveto
          -13 -12 -1 -3 -10 hvcurveto
          endchar
        </CharString>
        <CharString name="H18533">
          159 23 -21 495 -20 hstem
          492 23 vstem
          513 132 -43 callgsubr
          9 -4 -52 callsubr
          endchar
        </CharString>
        <CharString name="I">
          33 callgsubr
          713 -20 hstemhm
          30 188 hintmask 00000000
          hintmask 01011000
          -83 callsubr
          -1 -56 -3 -57 vhcurveto
          9 -4 rlineto
          2 5 7 1 10 hhcurveto
          hintmask 10011000
          27 41 -7 35 -42 callgsubr
          7 158 159 vvcurveto
          -11 -696 rmoveto
          hintmask 00111000
          -94 callgsubr
          endchar
        </CharString>
        <CharString name="Iacute">
          -161 10 -21 32 -21 697 53 171 -20 hstemhm
          27 188 hintmask 00000000
          hintmask 10111000
          -83 callsubr
          -2 -62 -3 -57 vhcurveto
          4 46 44 -6 45 -42 callgsubr
          10 164 159 vvcurveto
          -14 -702 rmoveto
          hintmask 01111000
          -94 callgsubr
          85 840 rmoveto
          -23 23 -28 37 -27 14 -61 -50 -47 -63 -59 -50 -9 -7 rcurveline
          -6 6 48 -4 35 hhcurveto
          37 20 2 5 5 hvcurveto
          -9 6 rmoveto
          -3 -15 -16 -1 -17 hhcurveto
          -25 -25 2 4 -22 hvcurveto
          54 50 46 58 57 46 20 -21 21 -21 21 -21 -28 -27 -58 -41 -13 -25 rrcurveto
          endchar
        </CharString>
        <CharString name="Icircumflex">
          33 callgsubr
          697 58 172 -20 hstemhm
          64 188 hintmask 00000000
          hintmask 01011100
          -83 callsubr
          -1 -58 -3 -57 vhcurveto
          -2 14 7 3 10 hhcurveto
          hintmask 10011100
          27 41 -7 35 -42 callgsubr
          7 158 159 vvcurveto
          -11 -696 rmoveto
          hintmask 00111100
          -94 callgsubr
          95 752 rmoveto
          -54 56 -62 54 -49 58 -57 -53 -75 -61 -47 -61 15 -2 rcurveline
          -34 callsubr
          58 -11 21 29 40 hvcurveto
          -34 21 20 -18 45 41 26 9 26 hhcurveto
          -68 3 rmoveto
          -49 -14 -37 36 -25 33 rrcurveto
          -20 -30 2 -34 -53 hhcurveto
          -27 -34 3 1 -8 hvcurveto
          45 57 55 45 53 50 50 -50 50 -51 51 -50 -15 -1 -14 -4 -14 -1 rrcurveto
          endchar
        </CharString>
        <CharString name="Idieresis">
          33 callgsubr
          697 66 -9 120 hstemhm
          11 184 -143 188 hintmask 00000000
          hintmask 01010010
          -83 callsubr
          -1 -56 -3 -57 vhcurveto
          -2 14 7 1 10 hhcurveto
          hintmask 10010010
          27 41 -7 35 -42 callgsubr
          6 163 159 vvcurveto
          -10 -701 rmoveto
          hintmask 00110100
          -94 callgsubr
          hintmask 01001100
          -211 747 rmoveto
          -24 callgsubr
          177 hmoveto
          -24 callgsubr
          3 -74 callsubr
          hintmask 01010100
          -77 callsubr
          -174 -72 callsubr
        </CharString>
        <CharString name="Igrave">
          -160 10 -21 32 -21 697 53 174 -20 hstemhm
          60 188 hintmask 00000000
          hintmask 10111000
          -83 callsubr
          -1 -61 -3 -57 vhcurveto
          10 43 40 -13 51 -42 callgsubr
          9 164 159 vvcurveto
          -13 -702 rmoveto
          hintmask 01111000
          -94 callgsubr
          -166 914 -29 callsubr
          32 43 4 7 13 vhcurveto
          -7 6 -16 12 -13 16 -13 14 rlinecurve
          -39 42 -43 48 -46 34 rrcurveto
          121 -31 callsubr
        </CharString>
        <CharString name="J">
          43 7 -21 33 -35 callgsubr
          160 140 418 -20 hstemhm
          160 131 -13 159 hintmask 00000000
          hintmask 10011010
          425 717 rmoveto
          -49 -1 -49 0 -48 -1 -2 -78 callsubr
          -101 -2 -102 -102 -52 3 -42 -59 vvcurveto
          -34 -6 -34 -32 -13 vhcurveto
          -14 hlineto
          -7 2 -6 -1 -7 4 rrcurveto
          -35 20 -4 56 35 vvcurveto
          10 -5 -57 3 -41 hhcurveto
          -58 -8 -11 -20 -128 29 -154 168 90 70 30 57 39 hvcurveto
          39 57 0 81 1 66 rrcurveto
          1 63 2 58 66 66 -5 66 66 17 1 16 17 vvcurveto
          -8 -408 rmoveto
          -3 -77 4 -81 -40 -68 rrcurveto
          hintmask 01011100
          -65 -38 -81 -15 -70 hhcurveto
          -40 -38 5 22 -31 hvcurveto
          -57 39 -22 110 75 vvcurveto
          13 1 12 1 10 vhcurveto
          3 20 21 2 20 hhcurveto
          29 29 -3 -4 27 hvcurveto
          -48 11 -75 65 46 9 54 36 vhcurveto
          93 -5 91 93 60 4 59 60 vvcurveto
          45 1 45 0 45 1 rrcurveto
          -1 -23 -1 -23 -24 -88 6 -88 -88 vvcurveto
          -23 0 -23 -1 -23 vhcurveto
          hintmask 00111100
          -264 -305 rmoveto
          0 -1 0 0 vhcurveto
          1 5 0 3 hhcurveto
          endchar
        </CharString>
        <CharString name="K">
          39 12 -21 24 -21 25 -21 706 -20 hstemhm
          29 154 hintmask 00000000
          hintmask 10011000
          468 6 rmoveto
          -57 117 -57 118 -57 118 48 116 86 97 36 121 rrcurveto
          8 -3 -13 1 -12 -25 -26 -2 -25 hhcurveto
          -12 -12 1 2 -12 hvcurveto
          -2 -1 -2 -1 -1 -1 -35 -52 -26 -55 -31 -55 -12 -20 -19 -23 -13 -20 rrcurveto
          74 0 74 -2 74 vhcurveto
          -92 callgsubr
          -45 -45 2 -44 hhcurveto
          -2 -78 callsubr
          -161 -8 -161 -161 vvcurveto
          -70 2 -71 4 -70 vhcurveto
          -10 10 29 -3 31 hhcurveto
          36 45 3 11 5 hvcurveto
          66 -5 66 66 vvcurveto
          14 0 14 1 14 vhcurveto
          hintmask 00111000
          41 -84 31 -90 59 -73 rrcurveto
          hintmask 01011000
          23 24 -4 23 hhcurveto
          25 24 1 4 24 hvcurveto
          -137 8 rmoveto
          -61 76 -30 96 -45 86 -12 1 rcurveline
          33 callsubr
          vhcurveto
          -1 -20 -1 -20 -20 -65 5 -64 -64 vvcurveto
          -5 -14 -32 -2 -31 hhcurveto
          -25 -23 1 5 -12 hvcurveto
          -4 65 -1 66 65 164 8 163 163 vvcurveto
          41 42 -2 41 hhcurveto
          1 -21 0 -22 -21 -29 -1 -29 -29 vvcurveto
          -24 0 -61 2 vhcurveto
          0 0 0 1 vvcurveto
          40 callsubr
          rrcurveto
          3 callgsubr
          38 38 24 58 24 47 17 33 17 29 21 30 rrcurveto
          -1 9 10 -1 10 23 23 3 23 hhcurveto
          10 10 -1 -1 10 hvcurveto
          -35 -119 -87 -97 -46 -114 rrcurveto
          -4 vlineto
          56 -117 56 -116 56 -116 rrcurveto
          -3 -22 -22 -1 -21 hhcurveto
          -22 -21 1 2 -21 hvcurveto
          endchar
        </CharString>
        <CharString name="L">
          41 -9 164 -141 -35 callgsubr
          724 -20 hstemhm
          33 162 hintmask 00000000
          hintmask 10011000
          452 90 rmoveto
          -16 4 -19 -17 vvcurveto
          -12 -2 -11 -5 -10 vhcurveto
          -136 -136 -1 -136 hhcurveto
          122 8 124 123 109 -5 108 109 vvcurveto
          5 25 26 3 25 hhcurveto
          25 25 -3 -7 24 hvcurveto
          -3 -32 0 -33 -32 -147 4 -147 -147 vvcurveto
          6 -6 rlineto
          1 6 7 0 6 67 80 -9 67 hhcurveto
          7 6 0 1 7 hvcurveto
          -4 vlineto
          -3 -8 -1 -11 -11 vvcurveto
          -8 1 -8 1 -6 vhcurveto
          10 3 rmoveto
          -1 4 -1 4 4 12 4 14 13 vvcurveto
          7 -3 1 -2 5 vhcurveto
          -1 -7 -7 -1 -7 -77 -78 9 -78 hhcurveto
          146 -4 146 147 vvcurveto
          32 0 33 3 32 vhcurveto
          13 -7 -61 5 -34 hhcurveto
          -25 -24 -3 -7 -16 -45 callgsubr
          -110 5 -108 -109 -125 -8 -125 -125 vvcurveto
          hintmask 00111000
          -68 callgsubr
          hintmask 10011000
          73 75 -3 74 hhcurveto
          hintmask 01011000
          48 38 2 56 hhcurveto
          69 -4 8 35 hvcurveto
          20 -3 24 11 vvcurveto
          endchar
        </CharString>
        <CharString name="M">
          81 15 -35 callgsubr
          23 -21 705 -20 hstemhm
          29 144 -10 152 -9 150 hintmask 00000000
          hintmask 10011010
          461 -1 rmoveto
          1 130 4 134 131 71 -3 71 72 vvcurveto
          29 0 30 2 30 vhcurveto
          -92 callgsubr
          -45 -42 -6 -43 hhcurveto
          -6 -6 1 1 -5 hvcurveto
          -41 -41 5 -67 -25 -48 -34 37 1 79 -38 38 rrcurveto
          -19 -32 2 -30 hhcurveto
          -24 -22 -1 -6 2 callgsubr
          -137 -3 -138 -137 vvcurveto
          -205 vlineto
          -43 0 -31 21 vhcurveto
          hintmask 01011010
          9 12 1 17 hhcurveto
          hintmask 10011010
          15 19 -1 15 hhcurveto
          18 27 1 8 4 hvcurveto
          -5 81 -5 81 80 vvcurveto
          38 1 37 3 38 vhcurveto
          4 -9 2 -9 4 -10 rrcurveto
          -18 6 24 -74 21 hhcurveto
          31 31 10 59 18 44 rrcurveto
          8 -82 1 -84 -81 -27 -1 -25 -28 vvcurveto
          -43 -2 -8 38 vhcurveto
          hintmask 00111010
          22 21 3 23 hhcurveto
          hintmask 10010100
          13 -1 13 -1 13 -1 rrcurveto
          -91 11 rmoveto
          -37 hlineto
          -2 18 -1 19 18 22 1 22 22 vvcurveto
          87 0 90 -11 86 vhcurveto
          -3 1 -3 1 -2 2 -27 -27 -7 -85 -27 -33 rrcurveto
          -12 -44 123 11 hvcurveto
          -1 hlineto
          3 callgsubr
          hintmask 10011010
          -2 -1 -3 -1 -2 -1 rrcurveto
          -1 -1 1 -1 hhcurveto
          -2 vlineto
          hintmask 10010100
          -5 -46 -2 -47 -46 vvcurveto
          hintmask 10011010
          -78 5 -78 5 -79 vhcurveto
          -3 -19 -19 0 -19 -26 -26 1 -25 hhcurveto
          2 vlineto
          -4 36 -2 37 37 190 6 187 188 vvcurveto
          4 22 24 1 23 20 21 -1 20 hhcurveto
          -46 41 0 -108 34 hhcurveto
          41 callgsubr
          20 20 9 100 27 33 rrcurveto
          -1 6 8 -1 9 36 54 7 28 hhcurveto
          -2 -29 0 -29 -30 -76 3 -76 -76 -124 -5 -125 -122 vvcurveto
          2 -15 -20 1 -18 hhcurveto
          -13 -12 -1 -2 -8 hvcurveto
          endchar
        </CharString>
        <CharString name="N">
          78 8 -21 24 -21 26 -21 26 -21 715 -20 hstemhm
          25 151 126 152 hintmask 00000000
          hintmask 01001110
          424 -10 rmoveto
          hintmask 00101110
          12 9 0 5 11 hvcurveto
          1 hlineto
          hintmask 00011110
          -71 callgsubr
          235 -1 234 235 vvcurveto
          11 -6 -49 0 -16 hhcurveto
          -24 -32 0 -10 -21 hvcurveto
          -2 -18 -1 -19 -18 -51 5 -50 -51 vvcurveto
          -24 -1 -24 -3 -24 vhcurveto
          -16 33 -18 32 -15 34 -9 19 -13 18 -7 20 rrcurveto
          23 -52 66 24 vvcurveto
          15 -8 -51 -2 -19 hhcurveto
          1 -3 -5 1 -5 hhcurveto
          -17 -16 -2 -7 -14 hvcurveto
          -8 -100 -2 -100 -100 -133 4 -133 -133 vvcurveto
          hintmask 10001110
          -9 9 53 -6 25 hhcurveto
          hintmask 00011110
          18 32 0 13 13 hvcurveto
          -5 48 2 53 49 vvcurveto
          58 1 58 5 55 vhcurveto
          17 -42 13 -42 17 -41 27 -67 34 -65 30 -66 rrcurveto
          hintmask 00101110
          22 callsubr
          hintmask 01001110
          31 30 -5 31 hhcurveto
          hintmask 00011110
          10 vmoveto
          -35 -10 5 -44 hhcurveto
          -29 65 -33 64 -27 66 -19 45 -14 48 -19 46 -2 1 -2 9 callgsubr
          rrcurveto
          -1 hlineto
          -9 -2 -33 -27 hvcurveto
          -14 1 -12 -3 vvcurveto
          -1 -57 -4 -57 -57 vvcurveto
          -26 1 -27 2 -26 vhcurveto
          -10 -3 -11 3 -10 -3 rrcurveto
          -41 -12 6 -45 hhcurveto
          131 -4 132 132 vvcurveto
          98 2 99 8 98 vhcurveto
          1 3 3 0 4 2 3 0 3 hhcurveto
          4 4 0 2 3 hvcurveto
          17 hlineto
          9 -5 43 2 20 -5 5 -26 36 -59 11 -26 2 -17 21 -29 7 -13 rrcurveto
          -19 9 35 -92 15 hhcurveto
          1 hlineto
          11 11 1 19 19 61 -5 56 59 vvcurveto
          22 1 21 2 22 vhcurveto
          3 22 22 2 22 hhcurveto
          21 20 -2 -3 21 hvcurveto
          -233 1 -230 -232 vvcurveto
          -1 -10 -9 -4 -9 hhcurveto
          endchar
        </CharString>
        <CharString name="Ntilde">
          96 7 -21 25 -21 23 47 callsubr
          23 -21 700 54 -10 86 11 86 hstemhm
          28 172 104 174 -65 callgsubr
          hintmask 0001001011100000
          480 3 rmoveto
          1 18 1 20 19 166 -4 150 158 56 1 56 56 vvcurveto
          8 -8 -37 1 -29 hhcurveto
          -17 -56 6 -19 -19 hvcurveto
          -29 -5 -29 -30 -29 7 -29 -29 vvcurveto
          -12 0 -12 -1 -12 vhcurveto
          -27 39 -23 43 -24 40 2 -4 rcurveline
          -14 26 -19 26 -10 29 rrcurveto
          2 vlineto
          10 -5 -74 10 -30 hhcurveto
          -18 -19 -2 -10 -10 hvcurveto
          -8 -96 -3 -97 -97 -135 5 -135 -135 vvcurveto
          -68 callgsubr
          hintmask 0100001011100000
          45 45 -5 46 hhcurveto
          9 20 1 9 hvcurveto
          -2 34 -1 35 34 vvcurveto
          56 2 55 4 56 vhcurveto
          33 -93 35 -96 45 -88 22 callsubr
          hintmask 0010001011100000
          12 13 2 12 hhcurveto
          hintmask 1000001011100000
          8 34 -6 31 hhcurveto
          19 18 3 12 6 hvcurveto
          -10 3 rmoveto
          -2 -2 rlineto
          hintmask 0000101011100000
          -5 -10 -11 -1 -11 -27 -30 8 -27 hhcurveto
          -8 -8 -1 -2 -7 hvcurveto
          -46 95 -36 100 -35 100 rrcurveto
          -1 -3 -4 0 -3 hhcurveto
          -5 -67 -3 -68 -68 vvcurveto
          -30 0 -30 2 -30 vhcurveto
          hintmask 0000011011100000
          -3 -10 -11 -1 -10 hhcurveto
          hintmask 1000001011100000
          -32 -33 9 -30 -8 -8 -2 -7 hhcurveto
          134 -5 135 135 vvcurveto
          94 2 95 9 94 vhcurveto
          4 13 13 2 14 hhcurveto
          32 33 -9 -5 31 hvcurveto
          2 -24 21 -22 10 -16 29 -51 27 -51 34 -48 rrcurveto
          9 hlineto
          4 13 1 14 14 41 -9 37 39 vvcurveto
          22 2 22 4 21 vhcurveto
          5 16 18 2 18 32 34 -5 28 hhcurveto
          -497 vlineto
          -42 2 -50 -48 vvcurveto
          -20 0 -18 -1 -18 vhcurveto
          -286 743 rmoveto
          11 -5 12 1 callgsubr
          hintmask 0001000111100000
          34 callsubr
          -2 11 8 vvcurveto
          1 -17 -18 0 -14 hhcurveto
          -16 -16 -1 -6 -12 hvcurveto
          -6 -25 -17 -30 -27 -5 rrcurveto
          9 -47 -4 67 -76 hhcurveto
          -83 -43 -106 -71 -19 hvcurveto
          40 2 45 0 40 -3 rrcurveto
          -110 13 rmoveto
          -74 callgsubr
          2 1 52 0 21 2 rrcurveto
          1 -7 1 -7 -7 vvcurveto
          hintmask 0001001011100000
          -64 -43 -69 -68 vhcurveto
          hintmask 0001000111100000
          27 callgsubr
          71 -149 rmoveto
          -1 1 0 -35 callsubr
          rrcurveto
          0 9 callgsubr
          -1 vhcurveto
          endchar
        </CharString>
        <CharString name="O">
          63 -21 152 -120 -21 567 149 hstemhm
          24 -8 callgsubr
          hintmask 00000000
          hintmask 01110100
          433 590 rmoveto
          14 -33 4 -35 -36 -33 -3 -33 -31 -24 1 -30 -32 vvcurveto
          -86 -6 -103 -38 -53 vhcurveto
          -46 -33 -83 -25 -76 hhcurveto
          -77 -53 22 57 -24 hvcurveto
          -26 53 8 67 -3 57 rrcurveto
          -4 69 -1 63 74 vvcurveto
          60 5 67 33 49 vhcurveto
          46 30 71 22 70 hhcurveto
          97 62 -34 -72 32 hvcurveto
          9 4 rmoveto
          -9 20 -11 23 -17 15 rrcurveto
          34 -40 -69 20 -63 hhcurveto
          -70 -67 -23 -50 -33 hvcurveto
          -36 -53 -4 -72 -62 vvcurveto
          -70 1 -64 4 -67 vhcurveto
          hintmask 10110100
          -109 5 -24 -157 205 hhcurveto
          78 86 27 49 35 hvcurveto
          56 78 -11 184 82 31 2 30 27 vvcurveto
          38 -3 34 -15 35 vhcurveto
          -109 -176 rmoveto
          62 -12 7 86 -82 hhcurveto
          hintmask 10101000
          -92 -24 -111 -80 -19 1 -20 1 -18 hvcurveto
          -88 6 -2 -109 100 hhcurveto
          42 53 28 54 hvcurveto
          54 3 51 53 18 -1 18 19 vvcurveto
          -10 -1 rmoveto
          hintmask 10110100
          -97 callsubr
          endchar
        </CharString>
        <CharString name="OE">
          410 -21 29 -15 135 -135 154 -136 -21 29 -21 139 141 -12 158 -10 133 -8 160 -138 138 4 -20 hstemhm
          32 143 -11 194 -7 209 -14 142 -65 callgsubr
          hintmask 1000010101010100
          817 135 rmoveto
          2 vlineto
          -1 2 -2 1 -1 2 rrcurveto
          hintmask 0010001010010100
          6 -84 -87 -1 -85 hhcurveto
          -7 13 -3 28 26 vvcurveto
          22 2 21 5 11 vhcurveto
          -1 6 9 -1 9 hhcurveto
          30 36 5 -4 32 hvcurveto
          hintmask 1000001010010010
          -1 148 rlineto
          -1 0 0 1 hvcurveto
          1 vlineto
          6 -4 -12 1 -12 -20 -18 -1 -21 hhcurveto
          -12 -13 1 2 -12 hvcurveto
          -5 13 -2 15 15 vvcurveto
          hintmask 1000010010010100
          21 3 23 1 20 vhcurveto
          7 48 49 -1 49 8 15 -1 17 hhcurveto
          34 41 2 11 5 hvcurveto
          5 34 0 33 40 vvcurveto
          hintmask 1000010100110100
          17 -2 17 -5 11 vhcurveto
          hintmask 1000010101010100
          -121 -121 -4 -121 hhcurveto
          hintmask 1000010100110100
          -74 -80 4 -70 hhcurveto
          -83 -76 -52 -81 -23 hvcurveto
          -14 -50 3 -53 -3 -51 rrcurveto
          -3 -47 -6 -57 -58 vvcurveto
          -137 32 -138 184 vhcurveto
          hintmask 0100010101010100
          75 66 14 59 hhcurveto
          hintmask 0000110101010100
          123 122 5 123 hhcurveto
          17 17 -1 43 24 vvcurveto
          18 -1 18 -1 17 vhcurveto
          hintmask 1000010101010100
          -18 -127 rmoveto
          -122 -121 -1 -4 -121 hvcurveto
          hintmask 0001010101010010
          -2 -59 -65 -11 -77 hhcurveto
          -178 -25 128 135 60 5 61 3 61 hvcurveto
          5 98 -2 91 102 53 rrcurveto
          13 25 26 4 27 68 81 -5 76 120 120 4 119 hhcurveto
          -25 1 -27 -27 vvcurveto
          -20 -1 -20 -2 -19 vhcurveto
          -6 -41 -41 -2 -41 -32 -28 1 -34 hhcurveto
          -25 -19 -1 -11 -6 hvcurveto
          -21 -4 -24 -22 vvcurveto
          hintmask 1000010101010100
          -15 1 -31 13 -6 vhcurveto
          -2 12 12 -1 13 16 16 1 16 hhcurveto
          11 11 0 -2 11 hvcurveto
          2 -15 1 -15 -15 -30 -3 -31 -29 vvcurveto
          -23 1 -24 2 -26 -3 rrcurveto
          -40 hlineto
          -10 -4 -32 -26 -35 5 -43 11 -5 hvcurveto
          84 85 1 -6 84 hvcurveto
          1 -16 0 -16 -16 vvcurveto
          -26 -2 -25 -7 -25 vhcurveto
          -461 493 rmoveto
          -10 17 -4 17 -17 13 rrcurveto
          15 -20 -23 8 -21 hhcurveto
          hintmask 1000010101001010
          -51 -41 -43 -73 hvcurveto
          -26 3 -26 -23 -34 -4 -37 -35 vvcurveto
          -60 21 -98 63 32 38 32 32 14 vhcurveto
          23 54 0 64 4 57 rrcurveto
          2 22 1 23 23 vvcurveto
          26 -2 26 -7 25 vhcurveto
          hintmask 0100010101010100
          -10 -3 rmoveto
          6 -22 3 -35 -40 vvcurveto
          -155 -27 -117 -73 -55 -21 75 78 vhcurveto
          32 2 32 32 25 -3 25 26 vvcurveto
          66 32 42 52 44 18 -28 -37 23 vhcurveto
          endchar
        </CharString>
        <CharString name="Oacute">
          65 -27 callsubr
          49 171 -20 hstemhm
          16 -8 callgsubr
          hintmask 00000000
          hintmask 10101101
          443 -104 callsubr
          hintmask 01011010
          -103 callgsubr
          hintmask 10101101
          -97 callsubr
          82 430 -82 callsubr
          hintmask 10011101
          -50 callsubr
        </CharString>
        <CharString name="Ocircumflex">
          64 -27 callsubr
          54 166 20 callgsubr
          19 -8 callgsubr
          -65 callgsubr
          hintmask 1010011010000000
          442 -104 callsubr
          hintmask 0101010100000000
          -103 callgsubr
          hintmask 1010101010000000
          -97 callsubr
          91 339 -42 callsubr
          hintmask 1001011010000000
          -107 callsubr
          endchar
        </CharString>
        <CharString name="Odieresis">
          64 -27 callsubr
          62 -9 120 hstemhm
          21 117 -45 184 -149 201 -7 134 -65 callgsubr
          hintmask 1010110010000000
          442 -104 callsubr
          hintmask 0101000100000000
          -103 callgsubr
          hintmask 1010110010000000
          -97 callsubr
          -214 334 rmoveto
          33 33 -1 33 hhcurveto
          12 25 -7 50 6 31 rrcurveto
          12 -6 -26 3 -26 hhcurveto
          -23 -23 -4 -5 2 callgsubr
          hintmask 1010101010000000
          -19 -5 -25 -23 vvcurveto
          -14 1 -19 10 -5 vhcurveto
          177 hmoveto
          -100 callgsubr
          3 -74 callsubr
          hintmask 1001010010000000
          -77 callsubr
          -174 -72 callsubr
        </CharString>
        <CharString name="Ograve">
          65 -27 callsubr
          49 171 -20 hstemhm
          22 -8 callgsubr
          hintmask 00000000
          hintmask 10101101
          443 -104 callsubr
          hintmask 01011010
          -103 callgsubr
          hintmask 10101101
          -97 callsubr
          -192 501 -29 callsubr
          vhcurveto
          hintmask 10011101
          -55 callgsubr
        </CharString>
        <CharString name="Oslash">
          59 -7 -21 32 -21 25 -21 30 -21 732 20 callgsubr
          132 202 -16 137 -54 54 -65 callgsubr
          hintmask 1001011010000000
          456 434 rmoveto
          1 17 1 17 17 vvcurveto
          58 -11 58 -36 46 vhcurveto
          2 -1 2 2 21 19 20 22 vvcurveto
          11 -12 -17 2 -15 -18 -17 -3 -18 hhcurveto
          hintmask 1001101010000000
          -16 -16 2 -15 hhcurveto
          -9 -1 -23 0 hvcurveto
          hintmask 1001011010000000
          3 -18 -20 1 -18 hhcurveto
          -199 10 -169 -134 -5 hvcurveto
          -1 -22 -1 -23 -22 vvcurveto
          -91 9 -90 23 -90 vhcurveto
          -6 -22 -73 -14 hvcurveto
          -63 callsubr
          1 2 -35 callsubr
          hvcurveto
          1 8 9 0 8 17 7 -3 30 hhcurveto
          19 24 2 3 10 hvcurveto
          -2 10 32 9 18 1 rrcurveto
          1 16 16 -2 16 hhcurveto
          176 16 157 128 51 0 51 2 51 hvcurveto
          -10 1 rmoveto
          -1 -51 -1 6 -100 vvcurveto
          -106 -7 -144 -117 -27 vhcurveto
          -11 -46 -50 1 -46 hhcurveto
          hintmask 0100011010000000
          -19 -18 -14 -1 -21 hhcurveto
          hintmask 0010011010000000
          -21 -17 4 -21 hhcurveto
          -10 -10 -1 -1 -9 hvcurveto
          2 26 25 35 21 vvcurveto
          4 vlineto
          8 -7 24 -2 9 vhcurveto
          -12 53 -9 60 62 vvcurveto
          78 vlineto
          41 5 40 1 41 vhcurveto
          98 3 13 114 165 hhcurveto
          19 19 -1 -2 19 hvcurveto
          5 5 3 -2 15 vvcurveto
          -22 callsubr
          1 vhcurveto
          -3 8 9 -1 9 23 24 6 22 hhcurveto
          13 12 -1 -6 11 hvcurveto
          -21 -19 -17 -20 vvcurveto
          -22 24 -21 8 -22 vhcurveto
          12 -35 4 -34 -36 vvcurveto
          -17 -1 -16 -1 -17 vhcurveto
          -128 -38 rmoveto
          -35 -86 -29 -91 -30 -88 rrcurveto
          -2 2 3 -5 1 hhcurveto
          28 43 23 23 15 hvcurveto
          13 20 4 35 37 47 -6 52 33 vvcurveto
          -181 -118 rmoveto
          23 76 27 74 25 75 rrcurveto
          4 12 14 37 12 vvcurveto
          -92 callgsubr
          -20 -16 -8 -11 -15 hvcurveto
          -40 -30 7 -46 -4 -45 rrcurveto
          -4 -41 -11 -40 -41 vvcurveto
          -11 2 -10 4 -8 vhcurveto
          184 -44 rmoveto
          -2 -19 0 -25 -14 -15 -19 -21 -24 -10 -26 -7 rrcurveto
          hintmask 1001010100000000
          25 78 26 78 30 77 rrcurveto
          2 -33 4 -33 -32 vvcurveto
          -13 0 -12 -2 -13 vhcurveto
          -173 130 rmoveto
          18 56 -30 82 53 40 rrcurveto
          8 11 13 9 15 hhcurveto
          -27 -87 -32 -87 -28 -87 rrcurveto
          21 7 26 19 vvcurveto
          endchar
        </CharString>
        <CharString name="Otilde">
          64 -27 callsubr
          42 -10 86 11 86 hstemhm
          23 -8 callgsubr
          -65 callgsubr
          hintmask 1010111010000000
          442 -104 callsubr
          hintmask 0101010100000000
          -103 callgsubr
          hintmask 1010111010000000
          -97 callsubr
          hintmask 1001011010000000
          -162 323 rmoveto
          11 -2 7 1 callgsubr
          hintmask 1010111010000000
          34 callsubr
          -3 9 8 vvcurveto
          33 callsubr
          -35 callsubr
          rlinecurve
          -5 -5 -1 -5 -9 -9 1 -10 hhcurveto
          -16 -16 -1 -6 -12 hvcurveto
          -6 -25 -17 -30 -27 -5 rrcurveto
          -76 callgsubr
          hintmask 1001011010000000
          -73 callgsubr
          2 1 52 0 21 2 rrcurveto
          1 -7 1 -7 -7 vvcurveto
          -64 -43 -69 -68 vhcurveto
          hintmask 1010111010000000
          27 callgsubr
          2 -13 -12 0 -12 hhcurveto
          endchar
        </CharString>
        <CharString name="P">
          77 15 -21 260 157 -11 165 -12 166 hstemhm
          30 150 -150 182 116 155 hintmask 00000000
          hintmask 11011010
          489 490 rmoveto
          164 -165 65 -136 -53 -52 -8 -11 -46 vhcurveto
          -2 -78 callsubr
          4 -61 1 -61 -61 -105 -4 -104 -104 vvcurveto
          -65 2 -64 4 -64 vhcurveto
          -9 9 31 -2 32 hhcurveto
          38 42 4 7 22 hvcurveto
          -1 hlineto
          1 1 2 0 1 1 1 1 rcurveline
          -1 0 0 -1 -1 hvcurveto
          hintmask 11010110
          4 4 rlineto
          82 -4 82 82 vvcurveto
          -2 11 11 -1 11 hhcurveto
          117 125 108 115 hvcurveto
          5 -1 5 3 vvcurveto
          -10 1 rmoveto
          -19 vlineto
          -2 -4 1 -9 -1 -4 rrcurveto
          -105 -18 -104 -86 -107 hhcurveto
          -12 -13 1 3 -12 hvcurveto
          -6 -6 rlineto
          -79 4 -103 -66 vvcurveto
          -6 -23 -42 -3 -36 hhcurveto
          -24 -22 1 4 -14 hvcurveto
          -4 62 -1 62 62 106 3 106 106 vvcurveto
          59 -1 59 -3 59 vhcurveto
          10 41 48 6 49 hhcurveto
          137 162 -52 -164 hvcurveto
          -167 46 rmoveto
          hintmask 10101010
          23 -30 -35 5 -35 -11 -10 -5 -10 hhcurveto
          -1 -1 rlineto
          -4 -8 -1 -15 -15 vvcurveto
          -29 -6 -92 32 52 92 1 69 25 -13 28 -20 14 vhcurveto
          -6 -8 rmoveto
          18 -13 5 -13 6 -20 rrcurveto
          hintmask 11011010
          -58 -42 -12 -50 -2 vhcurveto
          -7 -7 1 -7 hhcurveto
          -5 -5 -1 -1 -5 hvcurveto
          -11 hlineto
          -7 21 -2 29 30 20 1 21 20 vvcurveto
          18 15 2 15 hhcurveto
          23 20 -4 -20 27 hvcurveto
          endchar
        </CharString>
        <CharString name="Q">
          75 -12 132 -132 249 -219 -21 23 -21 563 157 hstemhm
          28 130 -10 203 -128 128 -9 133 -65 callgsubr
          hintmask 1000110010000000
          461 163 rmoveto
          6 29 -1 28 2 29 rrcurveto
          3 38 1 39 38 vvcurveto
          107 0 168 -101 61 vhcurveto
          18 -31 -46 1 -29 hhcurveto
          -81 -97 -16 -79 -38 hvcurveto
          -26 -53 2 -133 -56 -35 -3 -42 -44 vvcurveto
          -61 6 -61 25 -46 vhcurveto
          -66 36 75 -39 74 hhcurveto
          32 44 7 21 24 hvcurveto
          -15 12 16 -13 15 hhcurveto
          25 47 31 28 13 -12 6 -7 12 hvcurveto
          11 24 15 32 1 29 rrcurveto
          -10 1 rmoveto
          -27 -17 -33 -10 -24 vhcurveto
          -4 vlineto
          3 -7 6 -7 6 -5 3 -6 rcurveline
          hintmask 0010110100000000
          -23 -36 -31 -31 vhcurveto
          -14 8 -15 18 -9 5 rrcurveto
          hintmask 0001110010000000
          -25 -25 -43 -4 -30 hhcurveto
          -70 -74 35 63 -34 hvcurveto
          -24 44 -3 53 50 22 1 21 20 24 -1 36 39 vvcurveto
          77 4 89 20 48 vhcurveto
          75 32 98 14 75 hhcurveto
          45 57 0 -53 39 hvcurveto
          52 -72 6 -103 -87 vvcurveto
          -48 -1 -48 -3 -48 vhcurveto
          -2 -29 1 -27 -6 -28 rrcurveto
          -161 61 rmoveto
          7 hlineto
          15 -15 5 -20 14 -14 2 2 3 1 3 1 rrcurveto
          1 -1 3 2 26 13 73 20 vvcurveto
          hintmask 0100101000000000
          36 -3 19 31 vvcurveto
          97 -2 82 -117 -71 -13 -58 -141 vhcurveto
          -16 3 -16 -14 vvcurveto
          -6 -17 2 -16 -19 vvcurveto
          -73 6 -93 108 7 4 1 9 4 vhcurveto
          -17 17 -25 20 27 vvcurveto
          7 13 13 -3 30 30 3 1 3 2 3 1 rrcurveto
          4 10 rmoveto
          -16 -6 -11 -8 -11 hvcurveto
          hintmask 1000110100000000
          -17 -12 -24 -5 -21 vvcurveto
          -22 27 -27 11 -11 vhcurveto
          -91 -12 63 69 hvcurveto
          37 5 35 35 20 -4 11 28 vvcurveto
          104 11 40 70 vhcurveto
          hintmask 0100110010000000
          108 -6 -93 -121 hvcurveto
          -34 -2 -24 -15 -6 1 -7 -4 vvcurveto
          -6 -18 -1 -28 -19 vvcurveto
          14 -10 -6 30 -21 hhcurveto
          endchar
        </CharString>
        <CharString name="R">
          98 14 -21 23 -35 callgsubr
          23 -21 303 134 -9 154 -11 155 hstemhm
          31 151 -151 174 -34 159 -9 182 -65 callgsubr
          hintmask 0100101010100000
          522 2 rmoveto
          -41 109 -77 90 -59 100 rrcurveto
          103 6 58 100 96 vvcurveto
          157 -146 64 -138 -66 -67 -10 -10 -56 vhcurveto
          -2 -78 callsubr
          8 -53 -2 -58 -52 -160 5 -159 -160 vvcurveto
          -19 0 -18 -3 -18 vhcurveto
          0 1 1 1 vvcurveto
          3 -8 rlineto
          hintmask 1000101010100000
          26 28 -2 29 hhcurveto
          24 63 0 18 9 hvcurveto
          -6 40 -5 66 56 vvcurveto
          25 1 24 3 19 vhcurveto
          24 -36 24 -32 21 -38 24 -45 18 -46 23 -45 rrcurveto
          hintmask 0010101100100000
          22 callsubr
          hintmask 0001101100100000
          55 56 2 56 hhcurveto
          8 vlineto
          23 callsubr
          -169 4 rmoveto
          -22 44 -19 45 -22 44 -22 43 -29 36 -26 40 -3 -1 -3 0 -3 -1 rrcurveto
          -4 -20 -2 -28 -30 vvcurveto
          hintmask 1000010001000000
          -57 6 -66 5 -41 vhcurveto
          -9 -25 -28 -2 -28 -28 -28 2 -25 hhcurveto
          2 14 1 14 15 208 -9 207 209 vvcurveto
          8 -1 7 -1 8 vhcurveto
          43 8 43 4 43 3 rrcurveto
          -2 hlineto
          1 22 22 2 22 hhcurveto
          112 152 -45 -166 -92 -58 -99 -100 hvcurveto
          -2 -2 -33 callgsubr
          -2 5 -28 35 -38 17 -25 44 -67 45 -66 30 -73 rrcurveto
          -52 -52 -2 -52 hhcurveto
          -178 538 rmoveto
          -6 -1 -6 -6 -6 2 -6 -5 -11 -3 -17 -15 vvcurveto
          -14 3 -13 8 -8 vhcurveto
          18 28 -5 26 hhcurveto
          53 24 36 39 43 -32 36 -53 -25 -25 -7 -9 -21 hvcurveto
          115 -5 rmoveto
          hintmask 1000101100100000
          21 -13 11 -24 -24 vvcurveto
          -37 -20 -26 -59 -21 -22 3 3 -14 vhcurveto
          -2 10 -1 1 20 14 1 19 16 vvcurveto
          14 -1 12 -1 2 vhcurveto
          6 vlineto
          8 19 23 6 23 hhcurveto
          15 15 -3 -7 13 hvcurveto
          endchar
        </CharString>
        <CharString name="S">
          13 callsubr
          -7 callsubr
          hintmask 1000110001000000
          468 474 -32 callgsubr
          hintmask 0100101000100000
          -37 callgsubr
          hintmask 1001010100100000
          -4 callsubr
          hintmask 0011010010000000
          -46 callgsubr
          hintmask 1001010100100000
          -41 callsubr
        </CharString>
        <CharString name="Scaron">
          13 callsubr
          -9 221 8 -20 -7 callsubr
          hintmask 1000101100010000
          323 925 rmoveto
          -40 -11 -28 -26 -26 hvcurveto
          -28 20 -8 32 -31 -2 -101 -7 rcurveline
          47 -61 63 -57 58 -52 rrcurveto
          -38 callsubr
          0 3 hhcurveto
          54 54 61 59 54 54 rrcurveto
          -173 -157 rmoveto
          -55 48 -51 46 -46 56 27 -1 26 5 24 2 rrcurveto
          10 hlineto
          -23 callsubr
          223 -397 -32 callgsubr
          hintmask 0100101010001000
          -37 callgsubr
          hintmask 1001001101001000
          -4 callsubr
          hintmask 0011001100100000
          -46 callgsubr
          hintmask 1000010101001000
          -41 callsubr
        </CharString>
        <CharString name="T">
          23 15 -21 23 -21 24 -21 538 172 hstemhm
          13 145 -13 169 hintmask 00000000
          hintmask 10011000
          438 702 rmoveto
          13 -141 -147 -6 -140 hhcurveto
          -2 -78 callsubr
          1 hlineto
          -3 -17 1 -17 -16 vvcurveto
          -49 vlineto
          -6 -1 -10 -10 vvcurveto
          -22 2 -19 21 vhcurveto
          16 13 1 20 hhcurveto
          hintmask 10010100
          19 26 -5 -8 16 hvcurveto
          4 -133 -1 -131 -132 -38 -3 -38 -38 vvcurveto
          -8 1 -9 7 -4 vhcurveto
          hintmask 00111000
          4 15 15 1 16 hhcurveto
          hintmask 01010100
          26 27 -3 26 hhcurveto
          16 23 1 9 4 hvcurveto
          136 -7 137 137 39 2 40 40 vvcurveto
          26 28 4 27 hhcurveto
          14 13 -1 -3 13 hvcurveto
          9 18 1 24 23 vvcurveto
          -14 -54 rmoveto
          3 -16 -16 0 -16 hhcurveto
          -28 -51 -1 -11 1 0 0 0 -1 -1 -10 -6 hvcurveto
          -33 vlineto
          -159 -1 -162 7 -158 vhcurveto
          -3 -14 -14 -1 -14 -23 -24 2 -23 hhcurveto
          -14 -14 0 -3 -14 hvcurveto
          -1 9 -1 10 12 vvcurveto
          hintmask 10011000
          32 4 38 24 92 -3 92 92 31 2 63 23 vvcurveto
          18 -43 6 -19 vhcurveto
          -13 -14 -1 -13 hhcurveto
          -10 -10 1 2 -8 hvcurveto
          -5 10 -2 31 32 vvcurveto
          34 2 35 2 8 vhcurveto
          138 136 4 -13 138 hvcurveto
          1 -21 0 -20 -21 vvcurveto
          -27 -1 -28 -3 -27 vhcurveto
          -124 -3 rmoveto
          -1 -1 rlineto
          -1 -1 0 -1 0 vvcurveto
          23 callgsubr
          -295 161 rmoveto
          -1 vlineto
          endchar
        </CharString>
        <CharString name="Thorn">
          58 10 -21 25 -21 26 -21 129 151 -10 235 -10 146 -146 239 3 -20 hstemhm
          32 148 -10 169 -11 133 -65 callgsubr
          hintmask 0101010110100000
          52 -7 rmoveto
          hintmask 1001010110100000
          23 32 -4 27 hhcurveto
          27 18 3 14 7 hvcurveto
          -3 5 -1 6 7 vvcurveto
          52 5 48 1 51 vhcurveto
          -31 34 40 -17 38 hhcurveto
          104 59 4 callsubr
          -2 121 rlineto
          hintmask 1001001010100000
          -92 callgsubr
          hintmask 0101010110100000
          -46 1 -45 1 -45 1 rrcurveto
          -8 -5 -2 -42 -42 -146 5 -124 -139 vvcurveto
          -81 -4 -83 -3 -80 vhcurveto
          146 193 rmoveto
          hintmask 0010100101000000
          -57 -6 -46 -54 vvcurveto
          -8 1 -8 2 -7 vhcurveto
          -6 -12 -14 -2 -15 -33 -32 5 -27 hhcurveto
          4 77 3 76 78 110 -4 110 109 vvcurveto
          54 1 54 3 54 vhcurveto
          126 -3 2 -135 40 callsubr
          rlinecurve
          14 43 37 -9 35 9 -55 callsubr
          hintmask 1001010110100000
          4 -12 -3 -18 5 -10 -17 callgsubr
        </CharString>
        <CharString name="U">
          6 callgsubr
          700 -20 hstemhm
          22 -10 callgsubr
          hintmask 10110100
          472 673 rmoveto
          9 -18 -19 3 -18 hhcurveto
          -28 -51 -2 -10 -20 -104 callgsubr
          hintmask 01101000
          -101 callsubr
          30 8 29 hhcurveto
          17 16 -3 -7 15 hvcurveto
          2 -61 2 -61 -9 callsubr
          endchar
        </CharString>
        <CharString name="Uacute">
          6 callgsubr
          933 -20 hstemhm
          12 -10 callgsubr
          hintmask 10110100
          -75 callsubr
          hintmask 01101000
          -70 callsubr
          -40 569 -82 callsubr
          -8 vlineto
          -6 6 39 -3 35 hhcurveto
          37 20 2 5 5 hvcurveto
          12 26 64 45 25 25 rrcurveto
          hintmask 10110100
          -110 -90 rmoveto
          -3 -15 -16 -1 -17 hhcurveto
          -25 -25 2 4 -22 hvcurveto
          54 50 46 58 57 46 20 -21 21 -21 21 -21 -28 -27 -58 -41 -13 -25 rrcurveto
          endchar
        </CharString>
        <CharString name="Ucircumflex">
          6 callgsubr
          688 79 166 20 callgsubr
          16 -10 callgsubr
          hintmask 10101101
          -75 callsubr
          hintmask 01110010
          -70 callsubr
          -48 478 -42 callsubr
          hintmask 10101101
          -107 callsubr
          endchar
        </CharString>
        <CharString name="Udieresis">
          6 callgsubr
          688 87 -9 120 hstemhm
          17 158 -87 184 -113 149 -8 160 hintmask 00000000
          hintmask 10101001
          -75 callsubr
          hintmask 01100010
          -70 callsubr
          hintmask 10010101
          -348 473 rmoveto
          -100 callgsubr
          177 hmoveto
          -100 callgsubr
          -171 -74 callsubr
          hintmask 10100101
          -77 callsubr
          174 -72 callsubr
        </CharString>
        <CharString name="Ugrave">
          6 callgsubr
          933 -20 hstemhm
          17 -10 callgsubr
          hintmask 10110100
          -75 callsubr
          hintmask 01101000
          -70 callsubr
          -302 640 rmoveto
          -23 -24 -23 -23 -23 -23 rrcurveto
          -8 vlineto
          -15 86 -52 15 -28 vhcurveto
          -6 30 -1 30 32 36 2 7 13 vhcurveto
          -49 callsubr
        </CharString>
        <CharString name="V">
          20 13 -21 710 -20 hstem
          446 689 rmoveto
          6 -23 -35 0 -20 -12 -12 -1 -13 hhcurveto
          -10 -10 1 3 -9 hvcurveto
          -3 hlineto
          -1 -1 0 0 -1 hhcurveto
          -32 callsubr
          1 0 0 0 -10 -43 -305 -143 -30 vhcurveto
          -31 120 -10 129 121 6 0 9 10 vvcurveto
          54 1 9 -76 -41 -29 -6 -14 -14 vhcurveto
          1 -6 1 -22 1 -9 6 -69 rcurveline
          17 -167 38 -219 53 -186 rrcurveto
          -19 19 55 7 16 hhcurveto
          25 28 1 6 13 hvcurveto
          66 225 55 229 45 229 rrcurveto
          -175 -676 rmoveto
          -26 -30 -5 -29 hhcurveto
          -19 -18 2 6 -16 hvcurveto
          -62 219 -35 225 -19 227 rrcurveto
          9 12 31 3 30 hhcurveto
          25 24 -2 -2 11 hvcurveto
          8 -36 -2 -41 -39 vvcurveto
          -115 18 -122 28 -113 vhcurveto
          3 4 0 -1 3 hvcurveto
          23 94 14 95 17 95 11 61 5 62 17 59 rrcurveto
          -4 15 16 -1 15 14 13 1 14 hhcurveto
          -4 12 16 1 21 hhcurveto
          -44 -227 -55 -226 -65 -221 rrcurveto
          -264 676 rmoveto
          -1 vlineto
          endchar
        </CharString>
        <CharString name="W">
          45 16 -21 23 -35 callgsubr
          23 -21 706 -20 hstemhm
          20 155 -145 138 7 122 hintmask 00000000
          hintmask 00011011
          450 699 rmoveto
          8 -8 -30 -2 -7 -13 -15 1 -15 hhcurveto
          -20 -20 -1 -6 -17 -45 callgsubr
          1 0 0 0 -1 -2 -35 -12 -1 vhcurveto
          -3 -75 -4 -94 0 -93 -5 -93 rlinecurve
          -18 57 -8 102 -29 16 -1 -1 rcurveline
          -16 -33 -13 -84 -14 -47 rrcurveto
          -11 49 -3 51 51 59 3 61 61 vvcurveto
          24 -1 26 -9 19 vhcurveto
          -34 -33 2 -35 hhcurveto
          hintmask 00011100
          -17 -20 -1 -9 -9 hvcurveto
          -221 40 -242 33 -228 vhcurveto
          23 callsubr
          4 hlineto
          2 -4 0 2 2 vvcurveto
          hintmask 01001100
          -1 11 21 -2 19 hhcurveto
          16 14 2 5 5 hvcurveto
          31 37 -12 84 31 40 rrcurveto
          hintmask 00101100
          -32 17 17 -135 26 hhcurveto
          hintmask 10001011
          12 20 -3 19 hhcurveto
          16 11 1 9 9 hvcurveto
          20 231 26 229 20 231 rrcurveto
          -75 -687 rmoveto
          -3 -7 -10 -1 -10 -19 -20 3 -10 hhcurveto
          -25 25 -4 113 -32 32 rrcurveto
          -1 hlineto
          -28 -14 -141 -26 -15 hvcurveto
          -4 -10 -10 -1 -11 hhcurveto
          -16 -17 3 1 -17 hvcurveto
          -33 226 -32 226 -7 230 rrcurveto
          2 16 17 1 16 29 27 -2 29 hhcurveto
          3 -35 1 -35 -35 -43 -1 -42 -43 vvcurveto
          -60 3 -61 14 -59 vhcurveto
          3 4 0 -1 3 hvcurveto
          12 57 15 58 16 56 25 -58 0 -68 25 -58 rrcurveto
          3 3 1 1 3 hvcurveto
          16 140 -14 142 16 140 rrcurveto
          3 27 27 2 28 hhcurveto
          15 16 0 -2 15 hvcurveto
          -19 -229 -25 -227 -20 -228 rrcurveto
          70 683 rmoveto
          -3 hlineto
          endchar
        </CharString>
        <CharString name="X">
          16 13 -21 24 -21 23 -21 687 22 -1 -36 callsubr
          hintmask 10010000
          444 698 rmoveto
          1 2 rlineto
          5 -5 -9 1 -10 hhcurveto
          hintmask 10001000
          -9 -10 -1 -6 hhcurveto
          hintmask 10010000
          -13 -20 1 -20 hhcurveto
          -26 -27 -2 -9 -9 hvcurveto
          1 vlineto
          -24 -72 -14 -74 -26 -71 -19 54 -12 57 -17 55 rrcurveto
          27 -9 9 29 -57 hhcurveto
          -40 -72 -4 -10 -5 hvcurveto
          45 -111 41 -112 27 -117 -27 -115 -47 -108 -30 -114 3 -6 rcurveline
          -8 18 39 -4 33 hhcurveto
          hintmask 00110000
          19 18 2 3 10 hvcurveto
          1 hlineto
          -25 callgsubr
          34 69 5 81 31 70 24 -51 6 -59 15 -52 3 -10 9 -41 10 -6 rrcurveto
          hintmask 01010000
          -7 10 32 1 31 hhcurveto
          32 31 1 8 6 hvcurveto
          -19 76 -26 76 -22 76 rrcurveto
          -10 34 -16 39 36 vvcurveto
          30 11 30 8 29 vhcurveto
          23 91 36 87 30 88 rrcurveto
          -118 -354 rmoveto
          -33 16 -47 10 -33 vhcurveto
          22 -75 24 -73 20 -74 rrcurveto
          -1 -24 -24 -2 -25 hhcurveto
          -18 -17 1 4 -17 hvcurveto
          -24 48 -8 57 -13 53 -5 19 -4 33 -15 15 rrcurveto
          -3 -3 0 -1 -2 hvcurveto
          -37 -71 -3 -84 -34 -71 rrcurveto
          -1 -23 -26 -3 -24 hhcurveto
          -19 -19 2 7 -16 hvcurveto
          30 112 50 107 23 114 rrcurveto
          18 -15 52 -6 21 vhcurveto
          -24 84 -33 83 -34 81 rrcurveto
          3 46 44 1 45 hhcurveto
          2 -1 1 0 2 -1 rrcurveto
          hintmask 10001000
          -1 vlineto
          10 -39 14 -38 11 -39 10 -34 5 -38 17 -32 rrcurveto
          9 hlineto
          35 70 9 82 24 74 rrcurveto
          5 46 49 -1 47 hhcurveto
          -38 -114 -57 -121 -11 -118 rrcurveto
          endchar
        </CharString>
        <CharString name="Y">
          15 13 47 callsubr
          708 -36 callsubr
          hintmask 10010000
          455 690 rmoveto
          3 vlineto
          2 -19 -26 6 -12 hhcurveto
          -33 -55 -4 -7 -7 hvcurveto
          -33 -66 -11 -76 -33 -66 -32 65 -26 74 -14 71 rrcurveto
          -1 -1 1 1 hvcurveto
          8 -16 -16 2 -17 hhcurveto
          -26 -56 -3 -10 -10 hvcurveto
          19 -80 36 -78 33 -75 rrcurveto
          12 -29 26 -55 -28 vvcurveto
          -47 -116 -50 -118 -36 -120 rrcurveto
          16 10 0 13 hhcurveto
          hintmask 00110000
          33 55 4 17 hhcurveto
          hintmask 01010000
          -1 3 1 0 4 hhcurveto
          -25 callgsubr
          81 238 133 216 80 238 rrcurveto
          -303 -685 rmoveto
          2 -4 -10 1 -14 -34 -54 -5 -15 -1 -1 1 -1 hhcurveto
          32 103 42 102 41 99 rrcurveto
          6 14 8 11 15 vvcurveto
          27 -22 46 -10 24 vhcurveto
          -33 79 -40 79 -20 84 rrcurveto
          27 28 6 27 hhcurveto
          14 13 -2 -4 14 hvcurveto
          13 -73 31 -79 33 -66 rrcurveto
          9 hlineto
          34 69 13 77 32 69 rrcurveto
          5 24 26 1 25 20 19 -2 19 hhcurveto
          -79 -235 -131 -214 -81 -234 rrcurveto
          endchar
        </CharString>
        <CharString name="Yacute">
          14 14 -21 24 -21 514 -20 431 -36 callsubr
          hintmask 10110000
          -62 callgsubr
          hintmask 01110000
          28 40 3 35 hhcurveto
          15 14 0 -2 12 hvcurveto
          -25 callgsubr
          81 237 133 215 79 237 rrcurveto
          -301 -681 rmoveto
          1 -8 -12 0 -12 hhcurveto
          -33 -42 -2 -1 -27 hvcurveto
          27 85 35 82 32 83 rrcurveto
          9 24 25 54 14 vvcurveto
          25 -20 41 -8 22 vhcurveto
          -29 84 -46 79 -21 87 rrcurveto
          33 27 8 30 hhcurveto
          16 17 -3 -6 19 hvcurveto
          -34 7 31 -138 29 hhcurveto
          31 55 20 59 28 56 rrcurveto
          3 22 42 4 34 hhcurveto
          13 11 -1 -1 9 hvcurveto
          -79 -234 -131 -212 -79 -234 rrcurveto
          237 845 -82 callsubr
          -50 callsubr
        </CharString>
        <CharString name="Ydieresis">
          14 14 -21 24 -21 514 -20 201 72 -9 120 hstemhm
          85 184 hintmask 00000000
          hintmask 10110100
          -62 callgsubr
          hintmask 01110100
          28 40 3 35 hhcurveto
          15 14 0 -2 12 hvcurveto
          -25 callgsubr
          81 237 133 215 79 237 rrcurveto
          -301 -681 rmoveto
          1 -8 -12 0 -12 hhcurveto
          -33 -42 -2 -1 -27 hvcurveto
          27 85 35 82 32 83 rrcurveto
          9 24 25 54 14 vvcurveto
          25 -20 41 -8 22 vhcurveto
          -29 84 -46 79 -21 87 rrcurveto
          33 27 8 30 hhcurveto
          16 17 -3 -6 19 hvcurveto
          -34 7 31 -138 29 hhcurveto
          31 55 20 59 28 56 rrcurveto
          3 22 42 4 34 hhcurveto
          13 11 -1 -1 9 hvcurveto
          -79 -234 -131 -212 -79 -234 rrcurveto
          hintmask 10101100
          -59 749 rmoveto
          -100 callgsubr
          177 hmoveto
          -100 callgsubr
          3 -74 callsubr
          hintmask 10110100
          -77 callsubr
          -174 -72 callsubr
        </CharString>
        <CharString name="Z">
          54 14 -21 26 -21 545 160 hstemhm
          hintmask 00000000
          hintmask 01100000
          456 534 38 callgsubr
          -87 -87 4 -87 hhcurveto
          -59 -63 -2 -6 -59 hvcurveto
          -2 -2 3 -3 -1 -2 rrcurveto
          -1 1 -1 -1 vvcurveto
          -8 4 -42 2 -6 vhcurveto
          -11 -1 -11 -11 vvcurveto
          -14 1 -33 13 -6 vhcurveto
          77 79 -4 -8 76 hvcurveto
          -63 -90 -68 -87 -57 -95 rrcurveto
          -20 -33 -33 -44 -35 vvcurveto
          -53 -6 -91 20 -9 vhcurveto
          3 65 66 1 65 hhcurveto
          hintmask 10100000
          -89 callsubr
        </CharString>
        <CharString name="Zcaron">
          54 14 -21 26 -21 545 160 -10 232 hstemhm
          hintmask 00000000
          hintmask 01010000
          418 914 rmoveto
          -24 -47 11 -28 hhcurveto
          -40 -11 -28 -26 -26 hvcurveto
          -28 20 -8 33 -31 -3 -98 -8 rcurveline
          47 -61 60 -56 58 -52 rrcurveto
          -38 callsubr
          0 3 hhcurveto
          54 54 55 54 54 54 rrcurveto
          -167 -152 rmoveto
          -55 48 -51 46 -46 56 87 6 rcurveline
          -23 callsubr
          215 -337 38 callgsubr
          hintmask 01100000
          -87 -87 4 -87 hhcurveto
          -59 -63 -2 -6 -59 hvcurveto
          -2 -2 3 -3 -1 -2 rrcurveto
          -1 1 -1 -1 vvcurveto
          -8 4 -42 2 -6 vhcurveto
          -11 -1 -11 -11 vvcurveto
          -14 1 -33 13 -6 vhcurveto
          77 79 -4 -8 76 hvcurveto
          -63 -90 -68 -87 -57 -95 rrcurveto
          -20 -33 -33 -44 -35 vvcurveto
          -53 -6 -91 20 -9 vhcurveto
          3 65 66 1 65 hhcurveto
          hintmask 10010000
          -89 callsubr
        </CharString>
        <CharString name="a">
          -70 callgsubr
          9 -20 hstemhm
          17 -27 callgsubr
          hintmask 1000001101000000
          -66 callsubr
          hintmask 1000010101000000
          -100 callsubr
          hintmask 0010101101000000
          12 callgsubr
          hintmask 0001101101000000
          -26 callgsubr
          hintmask 0100101101000000
          -105 callgsubr
          hintmask 0010101010000000
          -106 callsubr
          -16 callgsubr
          -291 -189 rmoveto
          -84 callsubr
          10 -3 rmoveto
          hintmask 1000010101000000
          -88 callsubr
          endchar
        </CharString>
        <CharString name="aacute">
          -70 callgsubr
          -10 96 -77 -20 268 -20 hstemhm
          6 -102 callgsubr
          246 390 -82 callsubr
          hintmask 1000001011010000
          -8 vlineto
          -6 6 39 -3 35 hhcurveto
          37 20 2 5 5 hvcurveto
          12 26 64 45 25 25 rrcurveto
          -7 1 rmoveto
          -26 -18 -63 -46 -14 -27 rrcurveto
          -3 -15 -16 -1 -17 hhcurveto
          -25 -25 2 4 -22 hvcurveto
          54 50 46 58 57 46 22 -22 22 -20 22 -23 rrcurveto
          endchar
        </CharString>
        <CharString name="acircumflex">
          -70 callgsubr
          -10 102 -83 -20 270 20 callgsubr
          10 -27 callgsubr
          hintmask 1000000101101000
          -66 callsubr
          hintmask 1000010001101000
          -100 callsubr
          hintmask 0010101001101000
          12 callgsubr
          hintmask 0001101001101000
          -26 callgsubr
          hintmask 0100100101101000
          -105 callgsubr
          hintmask 1000001001010000
          -106 callsubr
          hintmask 0010100110010000
          -16 callgsubr
          -291 -189 rmoveto
          -84 callsubr
          276 298 -42 callsubr
          hintmask 1000010001101000
          -86 callsubr
          60 -17 22 29 42 hvcurveto
          -1 3 -2 1 vhcurveto
          0 0 0 0 vhcurveto
          -15 25 -7 -35 66 41 13 9 26 hhcurveto
          -262 -293 rmoveto
          -88 callsubr
          244 301 rmoveto
          hintmask 1000001001101000
          -22 3 -5 -30 hhcurveto
          -16 -16 1 1 -16 -69 callsubr
          -20 -30 5 -29 -53 hhcurveto
          -27 -34 3 1 -8 hvcurveto
          45 57 55 45 53 50 53 -53 43 -45 54 -53 rrcurveto
          endchar
        </CharString>
        <CharString name="acute">
          -165 537 -21 180 -20 hstem
          246 625 -82 callsubr
          -50 callsubr
        </CharString>
        <CharString name="adieresis">
          -70 callgsubr
          -10 131 -112 -20 122 11 callsubr
          13 133 -36 150 -124 164 -52 52 -10 159 -65 callgsubr
          hintmask 1000000110100100
          -66 callsubr
          hintmask 1000010010100010
          -100 callsubr
          hintmask 0010101001100100
          12 callgsubr
          hintmask 0001101001100100
          -26 callgsubr
          hintmask 0100100110100010
          -105 callgsubr
          hintmask 1000001001001000
          -106 callsubr
          hintmask 0010100110001000
          -16 callgsubr
          -291 -189 rmoveto
          -84 callsubr
          10 -3 rmoveto
          hintmask 1000010010100010
          -88 callsubr
          98 465 rmoveto
          hintmask 1000010001010010
          -46 1 -45 -81 callgsubr
          hintmask 1000010010010010
          -82 callgsubr
          179 5 rmoveto
          hintmask 1000010001100100
          -46 1 -45 -81 callgsubr
          hintmask 1000010010100100
          -82 callgsubr
          -193 -39 rmoveto
          -7 callgsubr
          hintmask 1000001001100100
          -99 callgsubr
          -1 -6 0 -6 -6 -38 callgsubr
          184 hmoveto
          -7 callgsubr
          -99 callgsubr
          -1 -6 0 -6 -6 -38 callgsubr
          endchar
        </CharString>
        <CharString name="ae">
          283 -14 113 -113 130 -102 -21 24 -21 92 131 -114 96 -96 145 -64 149 -126 86 -56 96 -50 50 -21 21 -9 78 -12 111 hstemhm
          79 32 -32 116 -9 174 -134 134 -10 160 -9 142 -142 163 hintmask 000000000000000000000000
          hintmask 100001000100011000100000
          435 232 rmoveto
          10 vlineto
          -7 30 -45 4 112 hhcurveto
          60 81 3 15 15 hvcurveto
          2 15 1 15 16 vvcurveto
          119 -64 81 -131 -54 -53 -15 -30 -35 vhcurveto
          25 -26 -45 13 -50 hhcurveto
          -97 -110 -48 -94 hvcurveto
          hintmask 100001001000101010010000
          -28 29 0 42 29 25 3 10 10 vhcurveto
          hintmask 010000001001011000100000
          32 29 21 30 37 18 -29 -38 vhcurveto
          -17 -1 -18 -13 vvcurveto
          14 -41 -33 4 -43 hhcurveto
          -87 -66 -66 -87 -98 100 -58 82 63 54 29 37 45 hvcurveto
          hintmask 000110000100011010010000
          43 -56 34 7 65 -7 rrcurveto
          hintmask 001001001001011010010000
          -2 14 14 -1 14 hhcurveto
          49 48 12 39 34 hvcurveto
          22 25 -5 90 6 30 rrcurveto
          12 -6 -16 0 -15 -22 -25 -4 -22 hhcurveto
          -5 -6 0 1 -5 hvcurveto
          -6 -6 rlineto
          hintmask 010000010000011000100000
          -46 -14 -30 -39 -65 -5 73 43 vhcurveto
          -10 -1 rmoveto
          hintmask 100000100010011010010000
          -45 8 -81 72 43 20 41 41 vhcurveto
          hintmask 000100010000011010010000
          3 4 -1 4 20 27 4 22 hhcurveto
          10 10 -1 -2 7 hvcurveto
          -89 -16 47 -94 -203 hhcurveto
          -87 -31 15 43 -32 hvcurveto
          -3 -2 0 1 -2 hvcurveto
          -36 -45 -50 -31 -64 hhcurveto
          -83 -90 55 92 hvcurveto
          hintmask 100001000010011010010000
          89 65 53 100 29 41 -4 -18 29 vhcurveto
          2 2 3 -38 callsubr
          rrcurveto
          -1 5 0 6 5 12 1 11 11 vvcurveto
          hintmask 100001001000101001010000
          36 -15 50 -47 -34 -36 -27 -35 -2 vhcurveto
          hintmask 100000100001011010010000
          -5 -12 -23 -2 -23 hhcurveto
          -34 -23 0 21 85 102 45 92 49 46 -13 -26 26 hvcurveto
          6 hlineto
          30 35 54 16 54 hhcurveto
          120 60 -75 -115 -14 -1 -15 -1 -13 hvcurveto
          -13 -32 -146 2 -18 hhcurveto
          -16 -19 -1 5 -16 hvcurveto
          -6 -6 rlineto
          -256 -156 rmoveto
          hintmask 001010000100011010010000
          -3 11 10 -1 10 hhcurveto
          34 44 17 51 46 -42 17 -42 -39 -44 -25 -48 -30 23 -18 35 -6 hvcurveto
          1 10 rmoveto
          hintmask 100001001001010101001000
          -24 4 -18 7 -8 25 rrcurveto
          48 35 23 40 33 39 -12 -44 -41 -35 -13 -33 -10 -10 1 2 -9 vhcurveto
          376 298 rmoveto
          5 -13 -12 5 -16 hhcurveto
          -44 -35 -32 -45 -15 14 -4 16 12 14 2 1 9 hvcurveto
          52 hlineto
          -2 6 8 0 7 hhcurveto
          14 11 0 17 24 -28 34 -13 9 hvcurveto
          -6 -8 rmoveto
          24 -16 10 -21 -29 vvcurveto
          -16 -11 3 -20 -21 -27 -4 -21 hhcurveto
          -10 -9 1 3 -5 hvcurveto
          48 29 21 37 13 14 -2 -5 14 vhcurveto
          endchar
        </CharString>
        <CharString name="agrave">
          -70 callgsubr
          -10 96 -77 -20 268 -20 hstemhm
          11 -102 callgsubr
          27 461 -57 callsubr
          10 -22 77 -45 14 -28 rrcurveto
          6 callsubr
          vhcurveto
          hintmask 1000001011010000
          -15 callsubr
          hvcurveto
          8 vlineto
          -16 12 -13 16 -13 14 -39 42 -40 45 -46 34 rrcurveto
          -3 -10 rmoveto
          45 -34 37 -42 39 -42 11 -13 11 -13 13 -11 rrcurveto
          -4 -16 -30 -2 -25 hhcurveto
          -22 -20 2 2 -7 hvcurveto
          -11 23 -72 55 -18 18 15 10 17 20 27 27 rrcurveto
          endchar
        </CharString>
        <CharString name="ampersand">
          145 -6 148 -129 -21 139 164 -12 112 340 -20 hstemhm
          42 160 -34 134 -110 75 -75 225 -10 145 -65 callgsubr
          hintmask 1001110001000000
          557 27 rmoveto
          1 4 0 3 4 vvcurveto
          35 -32 34 -19 25 vhcurveto
          -8 11 -11 7 -6 13 rrcurveto
          48 114 16 28 38 vvcurveto
          57 -36 -5 -54 -100 24 -48 -36 -16 vhcurveto
          -19 25 -18 30 32 vvcurveto
          hintmask 1001100010000000
          29 59 55 52 70 vvcurveto
          105 -98 51 -81 vhcurveto
          hintmask 1001110001000000
          -78 -118 -51 -101 -61 33 -60 42 -51 hvcurveto
          -51 -45 -48 -75 -71 vvcurveto
          -127 88 -99 118 46 56 11 27 41 vhcurveto
          hintmask 0110101001000000
          -32 31 37 -8 47 hhcurveto
          27 43 3 32 11 hvcurveto
          -10 3 rmoveto
          -1 -4 -2 -3 -2 -4 -2 -2 rcurveline
          -5 -10 -9 -7 -12 hhcurveto
          -47 -1 -62 -11 -34 48 rrcurveto
          -20 -43 -49 -16 -48 hhcurveto
          -115 -89 78 134 72 46 71 53 46 hvcurveto
          2 1 3 2 vvcurveto
          -38 46 -37 63 55 vvcurveto
          91 94 57 92 76 92 -48 -97 -53 -32 -30 -21 -44 vhcurveto
          -32 -54 0 4 -4 vvcurveto
          -31 36 -66 19 -6 vhcurveto
          39 19 -19 48 62 hhcurveto
          71 hlineto
          22 11 -11 -25 -37 -25 -51 -8 -19 hvcurveto
          -9 -21 -21 -43 -1 -12 rrcurveto
          -23 75 -46 -56 -3 -1 -3 -3 vvcurveto
          -257 119 rmoveto
          21 6 24 23 vvcurveto
          42 -29 36 -37 -41 -27 -36 -48 -44 31 -36 43 17 19 7 11 18 vhcurveto
          -30 -2 rmoveto
          hintmask 1001100101000000
          -3 -7 -7 -2 -9 hhcurveto
          -23 -27 13 21 -7 hvcurveto
          -3 8 -3 11 8 vvcurveto
          19 vlineto
          28 8 0 33 46 hhcurveto
          48 10 -35 -32 hvcurveto
          -21 -4 -22 -17 vvcurveto
          -6 -4 -7 -2 -6 -3 rrcurveto
          -29 476 rmoveto
          -35 -13 -24 -29 -17 13 -56 18 hvcurveto
          5 hlineto
          1 0 -1 0 hvcurveto
          22 6 16 43 34 vvcurveto
          24 -8 20 -19 vhcurveto
          -10 vmoveto
          3 2 0 -1 3 hvcurveto
          3 -3 1 -3 2 -3 1 -2 rlinecurve
          -29 2 -52 -29 -14 vhcurveto
          -3 1 rlineto
          hintmask 1001110001000000
          -15 15 -8 26 24 vvcurveto
          31 15 10 23 vhcurveto
          endchar
        </CharString>
        <CharString name="aring">
          -70 callgsubr
          -10 80 -61 -20 72 55 -10 107 -10 53 hstemhm
          10 133 -133 151 -28 164 -145 53 -8 100 -10 57 -57 159 hintmask 000000000000000000000000
          hintmask 100000011011001010000000
          -66 callsubr
          hintmask 100001001010100001000000
          -100 callsubr
          hintmask 001010100101001010000000
          12 callgsubr
          hintmask 000110100101001010000000
          -26 callgsubr
          hintmask 010010011011001001000000
          -105 callgsubr
          hintmask 100000100100010000000000
          -106 callsubr
          hintmask 100000011011001010000000
          -16 callgsubr
          -103 102 -6 callgsubr
          -187 -290 rmoveto
          hintmask 001010100100010000000000
          -84 callsubr
          180 296 rmoveto
          -17 -11 -34 -8 -34 hhcurveto
          hintmask 100001001010100010000000
          15 callsubr
          -169 -298 rmoveto
          48 9 46 13 44 hhcurveto
          36 1 -31 -28 hvcurveto
          -14 -1 -13 -12 -13 1 -16 -15 vvcurveto
          -50 -21 -24 -37 vhcurveto
          hintmask 100001000101000100000000
          -57 -29 54 56 16 2 16 6 13 hvcurveto
          65 409 rmoveto
          -2 callsubr
          5 -9 rmoveto
          hintmask 100001001011001010000000
          -11 callgsubr
        </CharString>
        <CharString name="asciicircum">
          20 485 -35 callgsubr
          230 -36 callsubr
          hintmask 01100000
          434 482 rmoveto
          -213 210 0 2 -2 1 -72 -74 -91 -62 -52 -90 rrcurveto
          -2 10 70 -2 37 hhcurveto
          59 4 44 20 33 hvcurveto
          hintmask 10100000
          -33 41 -11 -32 87 35 45 9 31 hhcurveto
          -86 2 rmoveto
          -26 -26 3 -26 hhcurveto
          -27 14 -11 34 -28 14 -29 -18 -27 -39 -10 -5 rrcurveto
          -9 -11 -2 -14 hhcurveto
          -32 -41 3 3 -22 hvcurveto
          57 77 76 56 67 67 198 -199 rcurveline
          -20 -2 -20 -5 -19 -1 rrcurveto
          endchar
        </CharString>
        <CharString name="asciitilde">
          150 122 22 -22 105 -11 43 -9 105 hstemhm
          hintmask 00000000
          hintmask 10100000
          176 128 rmoveto
          11 -7 16 12 vvcurveto
          34 3 32 15 30 hhcurveto
          47 -5 -37 -25 30 hvcurveto
          -23 27 29 -9 31 hhcurveto
          109 51 106 86 16 -3 6 -9 9 hvcurveto
          -1 -6 -6 0 -6 -14 -15 1 -14 hhcurveto
          -20 -18 -1 -7 -14 hvcurveto
          -32 -6 -26 -46 -36 hhcurveto
          -27 -16 35 22 -22 hvcurveto
          hintmask 01010000
          27 -23 -35 12 -35 hhcurveto
          -88 -44 -63 -69 -27 hvcurveto
          -11 -27 -19 -36 -5 -29 rrcurveto
          26 36 2 39 hhcurveto
          23 22 -1 -4 13 hvcurveto
          -144 13 rmoveto
          91 23 46 114 106 hhcurveto
          33 32 -11 -23 23 hvcurveto
          -39 27 32 -23 18 hhcurveto
          36 31 44 37 7 hvcurveto
          34 3 34 -2 34 3 rrcurveto
          -1 vlineto
          2 -8 1 -9 -9 vvcurveto
          -94 -68 -84 -78 -32 -36 12 22 -18 vhcurveto
          24 -20 -9 39 -44 hhcurveto
          -51 -27 -32 -36 -6 0 -6 2 -7 hvcurveto
          hintmask 10100000
          3 -13 -18 1 -19 -32 -36 -3 -20 hhcurveto
          endchar
        </CharString>
        <CharString name="asterisk">
          -53 377 -21 345 -20 21 -36 callsubr
          hintmask 10100000
          257 358 rmoveto
          69 56 27 9 27 vvcurveto
          -22 12 -26 47 -21 21 rrcurveto
          16 65 35 30 9 callgsubr
          1 vvcurveto
          -29 29 -29 28 -28 28 rrcurveto
          -1 9 callgsubr
          -2 vhcurveto
          -2 2 -3 1 -2 1 -24 -23 -25 -21 -23 -23 rrcurveto
          16 -26 -39 54 -13 hhcurveto
          hintmask 11000000
          -1 -1 -1 -1 hhcurveto
          -1 -1 -28 -14 -39 -52 -22 -22 rlinecurve
          4 -4 8 -14 10 -11 10 -12 34 -31 4 -15 -24 -24 -26 -25 -18 -28 rrcurveto
          -12 47 -35 15 -15 vhcurveto
          -4 5 15 -20 10 hhcurveto
          1 1 1 0 1 1 26 12 21 30 20 17 23 -22 25 -21 23 -23 -2 4 rcurveline
          1 -2 1 -2 2 -1 rrcurveto
          2 2 1 1 2 hvcurveto
          -74 75 rmoveto
          -3 -2 0 1 -2 hvcurveto
          -15 -10 -29 -27 -24 -24 -1 -1 rcurveline
          -28 25 -25 26 -28 24 rrcurveto
          10 16 58 51 9 vvcurveto
          20 -57 47 -11 20 vhcurveto
          29 24 26 31 26 26 rrcurveto
          1 -35 callsubr
          hhcurveto
          -6 3 71 -62 4 hhcurveto
          23 23 26 19 23 23 27 -27 26 -25 27 -26 -4 -28 -53 -23 -9 -28 -56 callgsubr
          24 -25 19 -28 24 -25 -1 -2 -1 -3 -1 -2 -14 -14 rcurveline
          -29 -14 -19 -25 -25 -20 -22 22 -25 21 -22 23 rrcurveto
          69 -66 rmoveto
          -1 -1 rlineto
          endchar
        </CharString>
        <CharString name="at">
          144 -28 102 -73 -21 84 94 -11 240 -137 137 -10 107 -10 106 -106 190 hstemhm
          22 105 -13 48 -9 95 -10 163 -96 96 -7 48 -14 106 -65 callgsubr
          hintmask 1000010010101010
          398 466 rmoveto
          11 -17 -20 7 -28 hhcurveto
          -107 -67 -81 -104 -98 49 -45 68 28 29 8 15 24 hvcurveto
          hintmask 1001000110101010
          -22 14 23 -10 26 hhcurveto
          130 -10 137 103 123 -21 154 -236 hvcurveto
          hintmask 1000010010101010
          -243 -12 -150 -137 hvcurveto
          hintmask 1001001001010010
          -123 -10 -217 150 -49 vhcurveto
          -15 46 44 -1 51 hhcurveto
          74 79 18 48 72 hvcurveto
          2 1 2 1 2 vhcurveto
          -11 22 -18 55 -16 8 rrcurveto
          -39 -66 -81 -16 -67 hhcurveto
          hintmask 1001001010010010
          -130 -8 104 86 -6 hvcurveto
          -2 21 -2 30 32 vvcurveto
          78 12 95 54 31 vhcurveto
          17 30 31 0 33 hhcurveto
          25 -8 28 2 24 -11 rrcurveto
          -1 vlineto
          49 -24 19 -67 -51 -7 -1 -11 -10 vvcurveto
          -6 0 -5 2 -4 vhcurveto
          -53 vlineto
          -7 -13 5 -35 -11 -21 rrcurveto
          -17 10 2 54 25 33 5 33 32 vvcurveto
          13 -7 14 -6 8 vhcurveto
          -7 -7 rmoveto
          hintmask 0110101001000100
          8 -10 0 -13 -13 vvcurveto
          -3 -5 0 -7 -9 -10 1 -12 -7 -16 -2 -21 -19 vvcurveto
          -22 3 -62 25 vhcurveto
          23 23 1 54 29 vvcurveto
          13 -2 13 -2 5 vhcurveto
          67 -4 89 -70 34 vhcurveto
          1 vlineto
          13 -30 -40 7 -30 hhcurveto
          -142 -8 -132 -99 -120 -5 -165 157 65 85 14 39 69 hvcurveto
          11 -24 11 -25 12 -24 rrcurveto
          -39 -59 -88 -25 -85 hhcurveto
          -80 -76 22 56 -45 hvcurveto
          -49 61 -7 112 81 vvcurveto
          156 -17 187 266 93 68 -25 -57 44 vhcurveto
          31 -45 9 -90 -79 vvcurveto
          -127 -12 -74 -97 -24 -22 9 22 -11 vhcurveto
          -3 -3 1 1 -2 hvcurveto
          -16 -23 -29 -9 -28 hhcurveto
          -67 -41 43 93 78 46 94 120 20 21 -5 -11 17 hvcurveto
          hintmask 1000101010010010
          -148 -173 rmoveto
          -23 17 -12 18 53 -5 95 15 6 -1 7 2 6 vhcurveto
          -2 3 -1 2 -1 3 rrcurveto
          -72 -8 -32 -68 hvcurveto
          hintmask 1000010010101010
          10 -1 rmoveto
          52 3 39 60 vhcurveto
          -17 -6 -16 -16 -9 2 -9 -9 vvcurveto
          -17 -5 -16 -27 -9 vhcurveto
          -7 hlineto
          -13 4 -4 6 -3 11 rrcurveto
          endchar
        </CharString>
        <CharString name="atilde">
          -70 callgsubr
          -10 98 -79 -20 89 46 callgsubr
          14 -27 callgsubr
          hintmask 1000000110110100
          -66 callsubr
          hintmask 1000010010110100
          -100 callsubr
          hintmask 0010101001010100
          12 callgsubr
          hintmask 0001101001010100
          -26 callgsubr
          hintmask 0100100110110100
          -105 callgsubr
          hintmask 1000001001001000
          -106 callsubr
          hintmask 1000000110110100
          -16 callgsubr
          hintmask 1000001001010100
          -266 99 -16 callsubr
          hintmask 1000010010110100
          56 -13 -73 81 hhcurveto
          84 36 78 89 hvcurveto
          -1 -1 2 2 hvcurveto
          33 callsubr
          -35 callsubr
          rlinecurve
          -5 -5 -1 -5 -9 -9 1 -10 hhcurveto
          -16 -16 -1 -6 -12 hvcurveto
          -6 -25 -17 -30 -27 -5 rrcurveto
          hintmask 1000001000110100
          -87 callsubr
          hintmask 0010100110101000
          -51 callsubr
          24 -296 rmoveto
          -84 callsubr
          10 -3 rmoveto
          hintmask 1000010010110100
          -88 callsubr
          endchar
        </CharString>
        <CharString name="b">
          44 -5 137 -118 -21 24 -21 25 -21 383 124 208 -20 hstemhm
          26 153 -12 170 -12 125 -65 callgsubr
          hintmask 0010111010000000
          172 692 rmoveto
          11 vlineto
          10 -5 -45 2 -27 hhcurveto
          -22 -22 -2 -4 2 callgsubr
          -212 -11 -210 -212 vvcurveto
          -33 2 -36 8 -4 vhcurveto
          hintmask 0100111010000000
          28 30 -3 28 hhcurveto
          17 17 1 3 16 hvcurveto
          hintmask 0001111010000000
          2 2 1 1 vhcurveto
          1 1 rlineto
          3 callgsubr
          25 vlineto
          1 3 -2 8 3 3 rrcurveto
          hintmask 1000111010000000
          -34 17 34 -14 36 hhcurveto
          146 38 141 130 70 -3 96 -57 46 hvcurveto
          26 -32 -48 3 -39 hhcurveto
          -30 -39 -2 -16 -26 hvcurveto
          21 3 49 31 37 -6 45 20 vvcurveto
          -10 -1 rmoveto
          -5 -1 -10 -11 vvcurveto
          hintmask 1000110100000000
          2 -37 3 -68 -48 -14 -1 -13 -9 vvcurveto
          3 4 -1 3 hhcurveto
          20 15 45 2 27 hhcurveto
          52 61 -4 -47 29 hvcurveto
          24 -40 11 -68 -67 vvcurveto
          -183 -61 -81 -123 -50 -5 27 21 -21 vhcurveto
          -14 0 -32 0 hvcurveto
          -6 1 -6 -5 vvcurveto
          -2 -14 -14 -1 -14 -29 -28 3 -27 hhcurveto
          -3 38 -1 39 39 193 10 192 193 vvcurveto
          3 18 19 2 20 hhcurveto
          20 20 -2 -4 19 hvcurveto
          165 -384 rmoveto
          52 -7 -44 24 -49 hhcurveto
          -61 -8 -43 -45 -86 -1 -96 80 53 46 63 66 22 -3 25 -6 20 hvcurveto
          -10 -3 rmoveto
          hintmask 1000111010000000
          5 -14 -2 -16 4 -14 rrcurveto
          -64 -20 -74 -67 -61 -6 62 42 vhcurveto
          12 1 12 11 11 -1 14 16 vvcurveto
          39 6 32 51 42 42 -26 -43 6 vhcurveto
          -152 -311 rmoveto
          -1 vlineto
          endchar
        </CharString>
        <CharString name="backslash">
          -8 14 -21 22 -35 callgsubr
          hstemhm
          hintmask 00000000
          hintmask 10000000
          200 149 rmoveto
          19 -48 19 -48 18 -48 rrcurveto
          -10 4 18 -2 17 hhcurveto
          hintmask 00100000
          17 16 2 5 hhcurveto
          hintmask 01000000
          19 19 -1 20 hhcurveto
          5 5 2 0 8 vvcurveto
          24 -23 39 -6 19 vhcurveto
          25 -28 48 -8 28 vhcurveto
          -34 108 -48 103 -32 108 -2 5 -9 39 -5 5 -19 48 -16 58 -8 52 -3 1 -6 -4 -2 1 rrcurveto
          -3 -10 -10 -1 -11 -20 -22 4 -20 hhcurveto
          -14 -13 -2 -6 -12 hvcurveto
          -3 -6 3 -9 3 -19 9 -19 5 -18 rlinecurve
          47 -162 64 -161 54 -162 rrcurveto
          10 3 rmoveto
          -13 38 -16 37 -13 39 -31 88 -29 90 -31 89 -18 52 -9 62 -24 50 rrcurveto
          4 11 12 1 12 20 21 -4 21 hhcurveto
          8 9 1 2 8 hvcurveto
          6 -33 29 -99 14 -19 43 -157 68 -150 52 -155 rrcurveto
          -11 25 -59 3 -11 vhcurveto
          -4 vlineto
          -1 -19 -23 -1 -23 hhcurveto
          -21 -20 1 4 -15 hvcurveto
          -15 50 -23 47 -19 49 rrcurveto
          endchar
        </CharString>
        <CharString name="bar">
          -219 -12 -21 34 -21 738 -20 36 -20 hstemhm
          28 122 hintmask 00000000
          hintmask 10011000
          148 -33 rmoveto
          9 hlineto
          -71 callgsubr
          252 -2 253 252 vvcurveto
          -92 callgsubr
          -3 -21 -20 -2 -21 hhcurveto
          3 -13 -28 -1 1 hhcurveto
          -5 -3 -1 -5 -5 hvcurveto
          -749 vlineto
          -8 8 34 -1 27 21 8 0 10 hhcurveto
          4 10 rmoveto
          -13 hlineto
          hintmask 01101000
          5 -17 -51 -2 -21 hhcurveto
          741 13 vlineto
          -4 14 16 1 14 hhcurveto
          14 16 2 3 13 hvcurveto
          -249 2 -249 -248 vvcurveto
          endchar
        </CharString>
        <CharString name="braceleft">
          -102 15 -21 691 -20 hstemhm
          1 125 -9 121 -121 178 hintmask 00000000
          hintmask 11001000
          297 1 rmoveto
          1 25 0 25 25 vvcurveto
          12 -1 11 -4 9 vhcurveto
          hintmask 11010000
          -42 -10 48 32 -1 hvcurveto
          -3 66 9 46 -54 41 rrcurveto
          41 18 8 35 39 24 -3 25 23 vvcurveto
          43 11 20 42 12 vhcurveto
          8 17 -1 27 19 vvcurveto
          14 -1 18 -8 8 vhcurveto
          1 -16 -18 1 -17 hhcurveto
          -55 -64 -17 -81 hvcurveto
          -22 4 -23 -23 vvcurveto
          -63 -26 -59 -65 -5 -6 0 1 -5 vhcurveto
          hintmask 11100000
          -9 -5 -4 -34 -32 vvcurveto
          -52 12 25 39 -15 vhcurveto
          61 -18 6 -70 -53 vvcurveto
          hintmask 11010000
          -15 -2 -14 -14 vvcurveto
          -79 82 -28 64 10 9 1 1 9 vhcurveto
          hintmask 11001000
          -74 13 rmoveto
          hintmask 11100000
          -47 11 -44 30 60 20 3 20 20 vvcurveto
          77 -39 52 -75 vhcurveto
          -3 12 -1 13 12 vvcurveto
          17 2 18 4 16 vhcurveto
          -1 5 5 0 5 hhcurveto
          80 19 81 70 hvcurveto
          19 -4 17 17 vvcurveto
          71 57 15 48 18 18 -2 -1 15 vhcurveto
          2 -13 1 -13 -13 vvcurveto
          -15 -2 -16 -1 -14 vhcurveto
          -48 -14 -10 -33 -38 -25 4 -27 -24 vvcurveto
          -36 -8 -31 -40 -14 vhcurveto
          1 vlineto
          -2 -1 rlineto
          -3 -1 -3 -3 vvcurveto
          49 -32 2 -46 -65 vvcurveto
          -43 4 -41 53 -13 vhcurveto
          -31 1 -31 -2 -31 vhcurveto
          -1 -9 -8 0 -8 hhcurveto
          -15 -14 1 4 -14 hvcurveto
          endchar
        </CharString>
        <CharString name="braceright">
          -102 -6 114 181 108 288 -20 hstemhm
          22 70 -60 51 0 120 -111 100 11 105 hintmask 00000000
          hintmask 11100100
          26 -4 rmoveto
          -1 11 12 -1 12 hhcurveto
          114 24 78 45 hvcurveto
          16 -2 16 17 vvcurveto
          60 23 63 77 14 2 15 15 20 3 44 -13 15 vhcurveto
          -1 -5 -4 0 -5 hhcurveto
          -62 -32 51 62 hvcurveto
          23 3 25 24 vvcurveto
          95 -67 8 -66 -15 -15 -1 -5 -11 vhcurveto
          hintmask 11110001
          -3 -16 -3 -19 -18 vvcurveto
          -16 1 -17 7 -13 vhcurveto
          hintmask 11101011
          28 -9 25 -7 -45 -38 -5 -10 -24 vvcurveto
          -43 9 -43 41 -20 vhcurveto
          -60 -89 85 -173 -95 hhcurveto
          -9 -9 1 -42 -20 vvcurveto
          -12 1 -13 3 -12 vhcurveto
          9 98 rmoveto
          58 1 89 25 hvcurveto
          6 -1 6 5 vvcurveto
          42 3 36 47 31 vhcurveto
          -1 3 0 3 -1 3 rrcurveto
          -42 13 -8 34 39 25 4 28 25 vvcurveto
          55 -24 9 -34 14 vhcurveto
          -3 11 -1 13 12 vvcurveto
          17 2 16 3 15 vhcurveto
          1 15 17 2 17 hhcurveto
          49 57 -15 -71 hvcurveto
          -19 -3 -20 -20 vvcurveto
          -57 15 -88 81 6 6 0 1 6 vhcurveto
          3 -15 2 -17 -16 vvcurveto
          -14 -1 -14 -2 -12 vhcurveto
          -75 -1 -40 -49 -73 -22 5 -23 -21 vvcurveto
          -77 -78 -29 -58 -33 6 10 22 vhcurveto
          21 2 21 20 vvcurveto
          endchar
        </CharString>
        <CharString name="bracketleft">
          -99 14 -21 23 -21 24 -21 583 126 7 -20 hstemhm
          29 143 hintmask 00000000
          hintmask 01010100
          197 -5 rmoveto
          hintmask 10010100
          11 23 -2 21 hhcurveto
          39 8 -1 31 hvcurveto
          36 -3 36 37 vvcurveto
          -6 11 -78 -2 -23 5 rrcurveto
          105 -9 104 105 vvcurveto
          40 1 40 4 41 vhcurveto
          35 36 2 35 hhcurveto
          19 19 -7 65 5 vvcurveto
          14 -1 14 -5 11 vhcurveto
          -3 -18 -18 -1 -18 hhcurveto
          hintmask 10001100
          -51 -51 7 -50 hhcurveto
          -16 -18 -1 -9 -9 hvcurveto
          1 0 0 0 -9 -2 -363 -37 vhcurveto
          1 -312 rlineto
          hintmask 00110100
          4 19 25 1 20 hhcurveto
          hintmask 01010100
          32 32 -3 31 hhcurveto
          10 vmoveto
          -31 -33 2 -31 hhcurveto
          -19 -18 -1 -2 -17 hvcurveto
          84 -1 85 84 vvcurveto
          148 2 148 9 148 vhcurveto
          3 19 20 1 19 48 47 -6 48 hhcurveto
          11 11 0 1 11 hvcurveto
          -37 2 -35 -7 -35 vhcurveto
          -36 -35 -2 -35 hhcurveto
          -10 -5 -2 -45 -37 -121 10 -120 -120 vvcurveto
          18 -18 60 5 29 -3 rrcurveto
          -40 3 -40 -41 vvcurveto
          -31 -31 -1 -30 hhcurveto
          endchar
        </CharString>
        <CharString name="bracketright">
          -99 16 -35 callgsubr
          583 134 hstemhm
          147 140 hintmask 00000000
          hintmask 10110000
          23 -9 rmoveto
          -1 58 63 5 59 hhcurveto
          hintmask 01110000
          12 15 1 14 hhcurveto
          11 18 -2 -2 11 hvcurveto
          -2 166 1 169 -2 167 rrcurveto
          -1 70 -7 71 70 vvcurveto
          7 -4 -19 1 -15 -52 -51 -6 -51 hhcurveto
          -19 -26 3 3 -19 hvcurveto
          2 -8 rlineto
          -20 -1 -21 -20 vvcurveto
          -21 1 -35 11 -5 vhcurveto
          20 39 -4 27 hhcurveto
          8 7 0 1 5 hvcurveto
          4 -40 1 -41 -40 -104 -9 -105 -104 vvcurveto
          -32 -8 -47 9 -28 -14 rrcurveto
          -4 -26 -3 -29 -29 vvcurveto
          -17 1 -16 4 -25 vhcurveto
          11 136 rmoveto
          7 1 94 0 7 14 rrcurveto
          123 10 124 123 vvcurveto
          29 -2 30 -10 20 vhcurveto
          -36 -35 2 -36 hhcurveto
          -4 19 -1 18 20 16 1 17 17 vvcurveto
          -2 14 15 0 14 47 47 6 46 hhcurveto
          17 17 -1 -2 17 hvcurveto
          14 -232 -4 -235 -230 vvcurveto
          1 -9 -10 1 -9 -15 -14 -1 -13 hhcurveto
          -58 -57 0 1 -57 hvcurveto
          -2 13 -1 15 15 vvcurveto
          26 3 28 3 24 vhcurveto
          endchar
        </CharString>
        <CharString name="brokenbar">
          -273 endchar
        </CharString>
        <CharString name="bullet">
          -131 172 202 hstem
          22 198 vstem
          66 204 rmoveto
          -9 14 -3 19 19 vvcurveto
          104 25 3 65 30 61 -3 -63 -20 -2 -29 -4 -22 vhcurveto
          -38 -7 -48 -6 -34 hhcurveto
          -34 -24 -5 27 -16 hvcurveto
          -8 -5 rmoveto
          -35 21 33 8 33 hhcurveto
          31 34 4 21 16 hvcurveto
          19 25 -2 47 23 vvcurveto
          65 -24 17 -96 -32 -24 -8 -30 -15 vhcurveto
          -2 vlineto
          -5 -10 -2 -22 -24 vvcurveto
          -32 4 -34 9 -13 vhcurveto
          endchar
        </CharString>
        <CharString name="c">
          22 -15 149 -130 -21 31 -21 130 79 -10 98 -12 90 -11 159 hstemhm
          36 139 -129 121 -65 callgsubr
          hintmask 0101010100000000
          424 196 rmoveto
          5 -10 -13 1 -13 16 callgsubr
          hintmask 1000101100000000
          8 callsubr
          hintmask 1000010100000000
          31 callsubr
          47 12 101 -46 34 rrcurveto
          hintmask 1000101100000000
          39 -53 -32 6 -49 hhcurveto
          -47 -107 10 -54 -51 hvcurveto
          -33 -36 0 -77 -26 -24 2 -23 -24 -18 -1 -17 -18 vvcurveto
          -111 33 -113 136 vhcurveto
          hintmask 0101010100000000
          24 26 -2 27 hhcurveto
          52 52 9 45 32 hvcurveto
          27 38 -12 71 10 44 rrcurveto
          -33 -148 rmoveto
          hintmask 0010101010000000
          -42 -26 -62 -7 -40 hhcurveto
          -128 -108 11 190 hvcurveto
          24 1 23 20 25 -2 24 26 vvcurveto
          24 1 74 29 31 vhcurveto
          49 46 86 -8 58 hhcurveto
          49 45 -5 -38 42 hvcurveto
          41 -38 -8 -80 -52 vvcurveto
          37 callsubr
          hintmask 0101010010000000
          44 -8 -36 27 -35 hhcurveto
          -2 callgsubr
          -1 4 5 0 5 hhcurveto
          hintmask 1000101100000000
          42 callgsubr
          -9 -47 11 -56 -24 -44 rrcurveto
          endchar
        </CharString>
        <CharString name="ccedilla">
          23 -5 128 11 223 -165 98 -92 80 12 67 0 159 -148 138 9 -20 22 -20 hstemhm
          32 140 -129 120 -65 callgsubr
          hintmask 1010001000100000
          340 -7 rmoveto
          96 27 -24 96 14 74 rrcurveto
          12 -6 -16 0 -16 16 callgsubr
          8 callsubr
          31 callsubr
          48 7 53 -18 47 rrcurveto
          58 -23 -74 22 -56 -15 -14 -2 -13 -12 -12 1 -12 hhcurveto
          -43 -47 -6 -28 -31 hvcurveto
          -37 -34 -5 -56 -50 -18 1 -16 -15 -27 -2 -29 -29 vvcurveto
          -97 28 -112 121 -13 vhcurveto
          -20 -40 -9 -48 -16 -43 rrcurveto
          -16 8 40 5 8 hhcurveto
          23 32 1 7 7 hvcurveto
          31 36 63 9 37 vhcurveto
          19 2 18 4 18 4 rrcurveto
          -64 -4 rmoveto
          -8 -45 -27 -42 -11 -45 rrcurveto
          -21 -22 -2 -22 hhcurveto
          hintmask 1001010001000000
          -11 -11 1 1 -10 hvcurveto
          26 67 19 62 1 2 -1 40 callgsubr
          -161 12 15 166 149 vvcurveto
          51 4 58 21 29 vhcurveto
          hintmask 1100000101000000
          37 27 62 9 35 hhcurveto
          hintmask 1001100011000000
          56 135 14 -87 35 hvcurveto
          17 -44 -7 -50 3 -46 rrcurveto
          37 callsubr
          44 -8 -36 27 -35 hhcurveto
          hintmask 1100001001000000
          -2 callgsubr
          hintmask 1001101001000000
          -1 4 5 0 5 42 callgsubr
          -14 -86 32 -102 -152 -8 rrcurveto
          endchar
        </CharString>
        <CharString name="cedilla">
          -230 -145 134 16 -36 callsubr
          hintmask 01000000
          181 hmoveto
          1 -27 -57 4 -29 hhcurveto
          -13 -7 -7 -39 -4 -16 rrcurveto
          hintmask 10000000
          -8 -29 -13 -30 -10 -29 rrcurveto
          -16 8 40 5 8 hhcurveto
          23 32 1 7 7 hvcurveto
          -1 vlineto
          1 2 -1 1 1 2 rrcurveto
          -10 1 rmoveto
          -21 -23 -2 -22 hhcurveto
          -11 -10 1 1 -11 hvcurveto
          10 28 12 28 8 27 5 18 4 20 8 17 35 -6 5 1 54 -1 rrcurveto
          -12 -30 -31 -91 -11 vvcurveto
          endchar
        </CharString>
        <CharString name="cent">
          -70 19 76 -6 211 359 -20 hstemhm
          21 110 -10 39 -9 47 -13 34 -11 120 hintmask 00000000
          hintmask 10110101
          201 464 rmoveto
          2 -2 rlineto
          7 -22 2 -17 -20 vvcurveto
          -31 44 3 25 13 26 0 9 5 vhcurveto
          4 14 3 15 16 vvcurveto
          75 -52 82 -79 3 vhcurveto
          -1 4 0 4 4 12 2 13 12 vvcurveto
          21 -10 0 -9 -24 -4 -17 -14 vhcurveto
          -12 1 -14 -10 vvcurveto
          1 -6 -6 0 -5 hhcurveto
          -68 -46 -61 -72 hvcurveto
          -19 1 -18 -18 -24 -3 -25 -23 vvcurveto
          -69 vlineto
          -35 4 -42 20 -54 vhcurveto
          -31 14 47 -17 36 hhcurveto
          4 3 0 1 4 hvcurveto
          -1 -8 -1 -9 -10 vvcurveto
          -20 4 -20 16 vhcurveto
          7 12 7 6 hhcurveto
          1 1 rlineto
          -1 hlineto
          5 0 13 6 6 -1 6 -1 6 hvcurveto
          hintmask 01110101
          25 vlineto
          54 3 73 55 59 29 -6 29 29 vvcurveto
          4 -9 -19 3 -15 -20 -5 -3 -11 hhcurveto
          -5 -5 0 1 -4 hvcurveto
          -23 -12 24 -55 -28 -17 rrcurveto
          -1 62 -1 61 63 21 1 21 22 vvcurveto
          1 -262 rmoveto
          32 15 -6 40 3 30 rrcurveto
          3 8 -1 7 16 9 2 14 hhcurveto
          9 8 0 -2 9 hvcurveto
          -25 4 -23 -24 vvcurveto
          -59 -69 -54 -57 vhcurveto
          -2 -12 0 -6 -6 -15 2 -16 -12 vvcurveto
          -20 -6 rlineto
          -1 0 1 -1 hhcurveto
          -2 2 rlineto
          hintmask 10101010
          -3 6 -1 9 10 14 3 19 8 vvcurveto
          -2 -16 -5 0 -5 hhcurveto
          -114 6 133 79 hvcurveto
          35 3 35 35 15 -1 16 15 vvcurveto
          74 40 51 63 7 7 -1 -1 8 vhcurveto
          8 8 1 4 11 11 -2 12 10 vvcurveto
          15 17 -4 8 -1 vhcurveto
          -15 vlineto
          -2 -6 -1 -9 -9 vvcurveto
          -13 0 -12 8 -4 vhcurveto
          69 55 -74 -66 hvcurveto
          -17 -6 -17 -17 vvcurveto
          -2 -12 -12 -1 -12 hhcurveto
          -15 -41 0 12 hvcurveto
          6 1 6 5 vvcurveto
          hintmask 10110101
          13 -3 38 -19 12 vhcurveto
          -2 1 rlineto
          hintmask 10110010
          -9 -3 -2 -25 -24 -76 3 -78 -73 vvcurveto
          hintmask 10110101
          -68 96 rmoveto
          -37 5 -52 38 -5 vhcurveto
          72 2 67 80 vvcurveto
          22 -2 21 -7 14 vhcurveto
          -25 -8 -27 -21 hvcurveto
          11 5 rmoveto
          8 4 11 4 9 vhcurveto
          9 4 rlineto
          1 -36 1 -36 -35 -48 -1 -48 -48 vvcurveto
          -18 18 -5 50 43 vvcurveto
          endchar
        </CharString>
        <CharString name="circumflex">
          -73 517 -20 39 -21 181 -36 callsubr
          hintmask 10100000
          347 524 rmoveto
          -48 49 -96 107 -31 16 -57 -53 -68 -59 -47 -61 rrcurveto
          11 hlineto
          -34 callsubr
          58 -11 21 29 40 hvcurveto
          8 -8 rlineto
          hintmask 01100000
          -26 13 20 -18 45 41 13 9 26 hhcurveto
          -55 3 rmoveto
          -20 -20 1 1 -20 -69 callsubr
          -20 -30 5 -29 -53 hhcurveto
          -27 -34 3 1 -8 hvcurveto
          45 57 55 45 53 50 50 -50 50 -51 51 -50 -15 -1 -14 -4 -14 -1 rrcurveto
          endchar
        </CharString>
        <CharString name="colon">
          -215 19 callsubr
          126 219 -10 137 hstemhm
          24 133 hintmask 00000000
          hintmask 01101000
          45 -4 rmoveto
          hintmask 10011000
          38 38 -1 39 -44 callsubr
          38 0 42 6 37 vhcurveto
          13 -7 -28 2 -27 hhcurveto
          hintmask 01101000
          -28 -29 -4 -6 -13 -45 callgsubr
          -20 -4 -31 -27 vvcurveto
          -26 callsubr
          3 336 rmoveto
          hintmask 10011000
          38 38 -1 39 -44 callsubr
          38 0 42 6 37 vhcurveto
          13 -7 -28 2 -27 hhcurveto
          -28 -29 -4 -6 -13 -45 callgsubr
          -20 -4 -31 -27 vvcurveto
          -26 callsubr
          3 -326 45 callsubr
          hintmask 01101000
          -80 callsubr
          336 vmoveto
          -34 callgsubr
          10 callsubr
          endchar
        </CharString>
        <CharString name="comma">
          -232 -102 232 -213 -35 callgsubr
          123 -21 hstemhm
          hintmask 00000000
          hintmask 10000000
          143 -63 rmoveto
          16 105 21 callgsubr
          0 0 1 0 -3 -1 -81 -34 vhcurveto
          -56 callgsubr
          rrcurveto
          hintmask 00110000
          1 -1 rlineto
          -4 callgsubr
          hintmask 10000000
          1 -1 rlineto
          hintmask 00110000
          4 callgsubr
          hintmask 10000000
          4 16 1 15 hhcurveto
          hintmask 01010000
          -25 callsubr
          24 3 40 10 23 -4 11 -31 -2 -15 2 rrcurveto
          26 callgsubr
          -6 -127 -11 -37 -2 -10 rrcurveto
          endchar
        </CharString>
        <CharString name="copyright">
          133 109 81 -8 31 -9 128 -62 62 -13 61 -10 68 -68 134 -14 41 -13 86 hstemhm
          22 81 -10 88 -12 67 -8 65 -65 122 -6 100 -11 81 -22 22 hintmask 000000000000000000000000
          hintmask 100010001101001010000000
          511 249 rmoveto
          2 39 10 58 57 vvcurveto
          158 -111 43 -140 -128 -113 -28 -196 vhcurveto
          -13 0 -14 -14 vvcurveto
          -63 4 -72 49 -44 vhcurveto
          -41 46 55 -10 58 hhcurveto
          123 105 12 126 40 hvcurveto
          -10 3 rmoveto
          -123 -40 -101 -8 -118 hhcurveto
          -55 -53 9 40 -44 hvcurveto
          -45 41 -4 71 58 14 0 14 12 vvcurveto
          195 114 21 125 71 110 -22 -67 32 vhcurveto
          16 -33 5 -36 -35 vvcurveto
          -50 -10 -51 -3 -50 vhcurveto
          -69 235 rmoveto
          hintmask 010101010010101010000000
          35 callsubr
          -42 -33 -10 -49 -48 vvcurveto
          -23 2 -23 2 -23 vhcurveto
          2 -24 -3 -34 12 -23 rrcurveto
          -33 17 41 -21 37 15 15 3 15 hhcurveto
          126 3 70 -5 219 48 callgsubr
          hintmask 101000101101000100000000
          16 -23 2 -37 -38 vvcurveto
          -54 2 -60 -33 -39 vhcurveto
          -34 -29 -58 -5 -46 hhcurveto
          -56 -70 -9 56 -27 hvcurveto
          -10 21 3 34 -2 23 rrcurveto
          -2 23 -2 24 24 vvcurveto
          47 17 85 68 39 callgsubr
          -173 -58 rmoveto
          4 2 7 1 6 3 rrcurveto
          24 -5 -40 -13 7 hvcurveto
          -3 10 13 -2 12 hhcurveto
          34 -1 17 17 52 -53 48 -51 -65 -15 -60 -54 hvcurveto
          -40 2 -26 -24 vvcurveto
          -42 7 -54 70 vhcurveto
          hintmask 100101010100010100000000
          64 38 39 58 19 -5 12 -19 hvcurveto
          -9 -9 -2 -9 hhcurveto
          -3 -3 0 1 -3 hvcurveto
          -10 -19 28 -41 -42 hhcurveto
          -3 1 -2 2 -3 1 -2 2 rcurveline
          hintmask 101001010101001010000000
          -9 16 -2 19 20 27 6 29 24 vvcurveto
          -6 9 rmoveto
          hintmask 100101010100101010000000
          -9 -9 1 -12 -12 -8 1 -8 -3 -8 -1 -16 -17 vvcurveto
          -37 3 -30 34 25 3 17 33 vhcurveto
          hintmask 010010010010101010000000
          3 2 -1 3 9 8 2 9 hhcurveto
          16 -2 -14 -9 -52 -49 -33 -44 -28 -26 14 30 -10 hvcurveto
          46 -3 47 46 vvcurveto
          37 1 57 67 52 43 -38 -47 -14 -1 -11 -23 -10 -10 2 2 -9 vhcurveto
          hintmask 101001010101001010000000
          18 -3 -3 36 -22 hhcurveto
          -6 -13 -4 -3 -7 hvcurveto
          -5 -8 rmoveto
          -1 vlineto
          endchar
        </CharString>
        <CharString name="currency">
          187 41 -35 callgsubr
          82 117 234 119 100 -20 hstemhm
          78 116 -9 249 -8 116 hintmask 00000000
          hintmask 10111101
          122 673 rmoveto
          -36 -30 -39 -33 -35 -30 15 -35 37 -25 23 -30 rrcurveto
          -12 -46 -3 -46 -47 vvcurveto
          -56 0 -60 15 -33 vhcurveto
          -24 -30 -28 -31 -24 -29 30 -19 52 -71 38 -2 26 26 20 37 25 29 rrcurveto
          -6 28 29 -3 30 hhcurveto
          31 32 4 6 31 hvcurveto
          hintmask 01111101
          26 -34 35 -26 29 -32 rrcurveto
          hintmask 10111101
          4 callgsubr
          64 29 23 49 36 14 -7 3 rcurveline
          -36 18 -25 37 -25 31 rrcurveto
          18 37 12 63 61 vvcurveto
          47 -7 45 -17 30 vhcurveto
          26 33 33 29 26 34 -35 30 -42 34 -34 29 -37 -36 -27 -40 -33 -33 rrcurveto
          5 -28 -32 4 -31 -30 -25 -10 -24 hhcurveto
          -32 34 -36 39 -29 37 rrcurveto
          95 -120 rmoveto
          26 27 11 30 hhcurveto
          31 32 -5 -5 28 hvcurveto
          33 33 29 39 33 33 32 -27 32 -27 32 -28 -24 -31 -30 -27 -25 -31 rrcurveto
          -1 -2 0 -2 -2 vvcurveto
          17 -30 8 -45 -46 vvcurveto
          -59 -12 -62 -19 -38 vhcurveto
          -2 0 -2 1 -2 vhcurveto
          23 -29 26 -40 34 -17 -40 -21 -21 -42 -41 -17 -29 33 -34 30 -30 31 rrcurveto
          -7 -31 -32 -3 -33 hhcurveto
          -29 -30 3 6 -29 hvcurveto
          -28 -28 -22 -33 -23 -32 rrcurveto
          -2 hlineto
          -40 17 -23 44 -37 21 22 27 23 33 25 25 rrcurveto
          3 callgsubr
          12 -12 38 -1 18 vhcurveto
          -2 26 -2 27 27 vvcurveto
          48 5 48 12 45 vhcurveto
          -16 32 -34 27 -23 29 32 27 32 27 32 28 29 -36 33 -35 32 -34 rrcurveto
          20 -97 rmoveto
          hintmask 10111010
          -59 -22 4 -58 -54 vvcurveto
          -72 3 -40 114 90 42 26 122 92 -54 13 -60 -28 -11 -1 -3 -22 vhcurveto
          -16 -13 rmoveto
          3 18 28 4 29 hhcurveto
          hintmask 10111101
          59 49 -16 -67 -80 -20 -57 -53 -7 hvcurveto
          -2 -15 -39 -5 -27 hhcurveto
          -49 -29 24 70 52 -6 61 55 20 hvcurveto
          endchar
        </CharString>
        <CharString name="d">
          43 -3 134 -118 -21 391 124 208 -20 hstemhm
          7 122 -10 177 -20 20 -20 151 hintmask 00000000
          hintmask 10111001
          292 702 rmoveto
          -41 -7 -5 -67 -37 3 -48 -15 vvcurveto
          18 -24 -42 0 -29 hhcurveto
          -35 -41 -3 -17 -30 hvcurveto
          -60 -35 -11 -93 -71 vvcurveto
          -120 16 -171 176 33 28 12 34 17 vhcurveto
          -1 1 -1 0 vhcurveto
          -3 -1 -6 -5 vvcurveto
          -5 1 -4 1 -2 vhcurveto
          -12 vlineto
          hintmask 01111001
          -10 5 12 -2 29 hhcurveto
          38 55 2 7 7 hvcurveto
          2 52 0 52 52 182 -8 183 182 vvcurveto
          10 -5 -31 1 -24 hhcurveto
          -27 -28 -3 -4 -16 hvcurveto
          121 -8 rmoveto
          -180 8 -180 -180 vvcurveto
          -51 0 -52 -2 -51 vhcurveto
          -28 -29 -3 -28 hhcurveto
          -12 -29 -2 12 18 1 9 -13 15 hvcurveto
          -1 hlineto
          -10 -13 -32 -7 -13 hvcurveto
          -7 -12 -12 -2 -14 hhcurveto
          -124 -63 79 190 66 11 65 24 38 hvcurveto
          48 31 59 4 53 hhcurveto
          29 47 -3 -21 12 hvcurveto
          3 3 1 1 3 hvcurveto
          -1 28 0 29 27 vvcurveto
          28 3 94 1 18 vhcurveto
          4 18 19 1 19 hhcurveto
          20 21 -2 -2 19 hvcurveto
          -281 -384 rmoveto
          hintmask 10110100
          -6 -17 -3 -20 -20 vvcurveto
          -67 35 -71 64 75 3 87 97 46 -8 40 -60 -50 -42 -23 -52 -8 vhcurveto
          10 -1 rmoveto
          43 6 41 25 41 hhcurveto
          58 1 -35 -53 -87 -2 -77 -62 hvcurveto
          hintmask 10111010
          -55 -37 57 69 20 3 20 6 16 hvcurveto
          endchar
        </CharString>
        <CharString name="dagger">
          -149 255 -21 264 94 -12 124 hstemhm
          1 94 -84 76 -76 221 -145 76 -68 58 hintmask 00000000
          hintmask 11000010
          177 242 rmoveto
          85 -2 86 -2 86 vhcurveto
          9 14 -1 15 hhcurveto
          20 20 2 6 6 hvcurveto
          19 -2 20 19 vvcurveto
          7 0 6 1 7 vhcurveto
          8 -4 -18 0 -10 hhcurveto
          -16 -17 -2 -1 -16 hvcurveto
          -1 20 -1 21 21 vvcurveto
          14 0 14 3 14 vhcurveto
          hintmask 10100010
          11 -4 -14 0 -14 hhcurveto
          -57 9 -35 -32 hvcurveto
          -16 1 -16 -15 vvcurveto
          -3 -8 -9 0 -8 -11 -11 1 -11 hhcurveto
          hintmask 11010000
          -31 3 -25 -31 -35 17 -5 26 7 7 1 2 7 hvcurveto
          hintmask 11000010
          22 -130 hlineto
          -22 -2 -28 -25 vvcurveto
          -21 1 -30 11 -5 vhcurveto
          22 4 22 -3 22 2 rrcurveto
          -63 8 rmoveto
          hintmask 11001001
          -4 37 -1 38 38 47 2 48 47 vvcurveto
          6 -7 -6 0 -11 -14 -11 -3 -13 hhcurveto
          hintmask 10100100
          -19 -5 1 44 21 2 11 24 hvcurveto
          11 11 -2 11 hhcurveto
          9 14 0 8 4 hvcurveto
          16 -1 18 17 vvcurveto
          17 1 18 3 16 vhcurveto
          2 12 13 3 13 hhcurveto
          6 5 -1 -1 6 hvcurveto
          hintmask 10101001
          -3 -19 1 -16 -25 vvcurveto
          -22 1 -24 6 -6 vhcurveto
          19 18 2 20 6 6 -1 7 hhcurveto
          hintmask 11000100
          -1 -14 -3 -16 -15 vvcurveto
          -9 1 -8 2 -7 vhcurveto
          hintmask 11001001
          -79 -4 -33 callgsubr
          -2 rrcurveto
          2 -80 2 -108 -69 vvcurveto
          -19 -20 2 -3 -18 hvcurveto
          endchar
        </CharString>
        <CharString name="daggerdbl">
          -134 340 98 -88 78 0 79 -69 60 0 97 -88 74 -72 -20 25 -20 87 124 hstemhm
          9 159 -77 77 -77 161 -65 callgsubr
          hintmask 1000010001000000
          22 425 rmoveto
          -58 vlineto
          -25 8 -2 38 5 6 1 1 4 vhcurveto
          7 7 0 -1 6 hvcurveto
          2 -98 rlineto
          -6 6 10 -1 10 hhcurveto
          13 35 -4 15 5 hvcurveto
          -2 11 -1 11 12 19 1 22 22 vvcurveto
          10 12 0 11 hhcurveto
          hintmask 0101010000010000
          54 -4 5 38 18 -1 19 -5 12 hvcurveto
          1 -13 -13 1 -12 hhcurveto
          -13 -13 -1 -1 -13 hvcurveto
          -3 10 -1 12 12 vvcurveto
          hintmask 0100001011000000
          11 1 11 2 9 vhcurveto
          6 8 0 9 hhcurveto
          24 29 1 7 7 hvcurveto
          -1 11 -1 11 11 15 1 15 15 vvcurveto
          hintmask 0100100000100000
          8 -4 -15 0 -10 -17 -17 -3 -17 hhcurveto
          26 -2 26 26 vvcurveto
          9 0 8 1 9 vhcurveto
          hintmask 0101000010100000
          8 -4 -15 1 -13 hhcurveto
          -15 -15 -3 -4 -10 -45 callgsubr
          -4 vlineto
          -28 -4 -26 -26 -5 1 -6 -6 vvcurveto
          -1 -5 -5 0 -5 -12 -14 1 -12 hhcurveto
          hintmask 0101010001000000
          -11 -10 -1 -8 -8 hvcurveto
          -25 vlineto
          -35 -7 3 -24 38 11 10 1 11 hhcurveto
          15 2 -5 -7 hvcurveto
          -3 0 -4 -3 -7 1 -7 -7 vvcurveto
          -13 -3 -10 -14 vhcurveto
          -10 -11 1 -10 hhcurveto
          -11 -10 -1 -2 -10 hvcurveto
          83 -7 rmoveto
          -38 callsubr
          1 1 2 rrcurveto
          74 vlineto
          hintmask 0100001011000000
          7 -4 -7 -1 -6 hhcurveto
          hintmask 0101010001000000
          -16 -15 -2 -16 hhcurveto
          -8 -7 1 9 -4 hvcurveto
          3 43 -2 11 8 vvcurveto
          2 7 7 0 7 14 13 -1 14 hhcurveto
          8 9 0 7 3 hvcurveto
          6 -1 5 6 29 4 28 28 vvcurveto
          2 13 13 2 13 hhcurveto
          5 5 0 -1 6 hvcurveto
          -2 -18 0 -13 -28 vvcurveto
          -22 2 -23 6 -6 vhcurveto
          19 18 2 19 6 7 -1 6 hhcurveto
          -15 -1 -16 -15 vvcurveto
          hintmask 0100000111000000
          -8 0 -7 1 -8 vhcurveto
          -7 -9 0 -9 hhcurveto
          hintmask 0010000011000000
          -21 -23 -1 -6 -12 hvcurveto
          -2 -10 -2 -13 -13 vvcurveto
          -17 1 -24 11 -5 vhcurveto
          2 14 15 1 14 hhcurveto
          10 10 -1 -1 10 hvcurveto
          -13 -2 -16 -15 vvcurveto
          -9 1 -8 2 -8 vhcurveto
          -23 -3 -48 5 -11 -11 rrcurveto
          1 -7 0 -7 -8 -17 -2 -17 -17 vvcurveto
          -9 1 -9 1 -9 vhcurveto
          -1 -8 -9 -1 -8 -11 -11 1 -11 hhcurveto
          2 21 -7 70 4 7 rrcurveto
          7 -4 -11 0 -9 hhcurveto
          hintmask 0101010001000000
          -12 -12 -2 -14 hhcurveto
          -24 1 11 18 14 2 16 1 13 hvcurveto
          2 9 9 0 10 11 12 -1 12 5 5 1 5 hhcurveto
          endchar
        </CharString>
        <CharString name="degree">
          -122 394 204 -144 144 -11 70 hstemhm
          23 200 -144 144 -11 70 hintmask 00000000
          hintmask 10001000
          77 405 rmoveto
          -7 19 23 -4 23 hhcurveto
          22 21 3 6 18 hvcurveto
          hintmask 00100100
          53 24 80 55 82 -51 37 -80 hvcurveto
          hintmask 10010000
          -102 -26 -53 -80 hvcurveto
          hintmask 01001000
          -53 2 -39 54 -27 vhcurveto
          -46 129 rmoveto
          32 2 28 22 24 vhcurveto
          17 15 37 9 19 hhcurveto
          3 2 0 1 2 hvcurveto
          35 hlineto
          7 -2 7 1 8 -1 rrcurveto
          44 -6 36 -31 -68 vvcurveto
          -105 -48 -27 -96 -97 2 76 52 vhcurveto
          80 59 rmoveto
          -22 -11 -12 -23 -25 vvcurveto
          -68 13 -12 53 56 22 23 59 52 -29 10 -39 -15 -15 -2 -3 -10 vhcurveto
          1 -10 rmoveto
          hintmask 00100100
          3 10 10 1 10 hhcurveto
          66 0 -18 -40 hvcurveto
          -11 -20 15 -28 -41 -14 rrcurveto
          -19 -20 -2 -20 hhcurveto
          -21 8 -4 24 17 vvcurveto
          27 -5 27 32 16 vhcurveto
          endchar
        </CharString>
        <CharString name="dieresis">
          -71 517 120 -100 -21 hstemhm
          25 184 hintmask 00000000
          hintmask 10100000
          39 517 rmoveto
          hintmask 01100000
          33 33 -1 33 hhcurveto
          12 25 -7 50 6 31 rrcurveto
          hintmask 10100000
          12 -6 -26 3 -26 hhcurveto
          -23 -26 -2 -5 -12 hvcurveto
          -8 vlineto
          -19 -5 -25 -23 vvcurveto
          -14 1 -19 10 -5 vhcurveto
          177 hmoveto
          hintmask 01100000
          33 33 -1 33 hhcurveto
          12 25 -7 50 6 31 rrcurveto
          hintmask 10100000
          12 -6 -26 3 -26 hhcurveto
          -23 -26 -2 -5 -12 hvcurveto
          -8 vlineto
          -19 -5 -25 -23 vvcurveto
          -14 1 -19 10 -5 vhcurveto
          -171 -74 callsubr
          -77 callsubr
          174 -72 callsubr
        </CharString>
        <CharString name="divide">
          46 19 callsubr
          126 49 -10 131 -10 59 -10 137 hstemhm
          145 133 hintmask 00000000
          hintmask 10010110
          22 166 rmoveto
          140 142 -5 141 -19 callsubr
          rrcurveto
          -3 16 -1 16 17 23 2 24 23 vvcurveto
          -92 callgsubr
          -419 hlineto
          -7 -7 -2 -24 -26 -24 2 -26 -13 vvcurveto
          hintmask 01101010
          11 110 rmoveto
          410 hlineto
          -24 -2 -22 -23 vvcurveto
          -14 1 -14 2 -14 vhcurveto
          -137 -138 5 -137 hhcurveto
          -1 20 -1 22 21 vvcurveto
          15 0 14 3 14 vhcurveto
          143 -286 rmoveto
          hintmask 10010110
          38 38 -1 39 -44 callsubr
          38 0 42 6 37 vhcurveto
          13 -7 -28 2 -27 hhcurveto
          hintmask 01100110
          -28 -29 -4 -6 -13 -45 callgsubr
          -20 -4 -31 -27 vvcurveto
          -26 callsubr
          3 336 rmoveto
          38 38 -1 39 -44 callsubr
          38 0 42 6 37 vhcurveto
          13 -7 -28 2 -27 hhcurveto
          -28 -29 -4 -6 -13 -45 callgsubr
          -20 -4 -31 -27 vvcurveto
          -26 callsubr
          3 -326 45 callsubr
          -80 callsubr
          336 vmoveto
          -34 callgsubr
          hintmask 10001010
          10 callsubr
          endchar
        </CharString>
        <CharString name="dollar">
          25 -103 239 -11 123 -11 207 -10 92 -9 242 hstemhm
          18 140 -140 157 -157 171 -45 153 -133 100 -84 249 -174 174 -139 139 -65 callgsubr
          hintmask 1010100100010000
          343 329 rmoveto
          -48 36 -102 41 67 vvcurveto
          23 15 21 25 vhcurveto
          hintmask 1001010000010000
          68 -81 -83 120 hhcurveto
          18 2 12 2 18 -2 rrcurveto
          23 22 2 41 107 -57 47 -72 17 hvcurveto
          -2 2 rlineto
          hintmask 1010100010000000
          1 -1 0 1 vvcurveto
          86 vlineto
          21 -81 -2 -1 -59 -12 3 -46 -19 1 -24 4 -19 vhcurveto
          -11 -6 -13 -2 -11 -5 rrcurveto
          hintmask 1010101000010000
          -56 -26 -40 -48 -57 vvcurveto
          -83 50 -58 60 -47 vhcurveto
          28 -22 99 -71 -56 vvcurveto
          -27 -25 -10 -18 -39 8 30 19 -6 vhcurveto
          hintmask 0101010001001000
          63 -20 0 -92 -56 4 -28 -47 -73 19 -58 63 -26 vhcurveto
          28 -12 26 1 -48 -6 0 -5 -5 vvcurveto
          hintmask 1010100010000000
          -26 5 -18 59 6 6 0 2 5 vhcurveto
          37 hlineto
          31 6 27 27 hvcurveto
          17 -2 18 13 vvcurveto
          16 4 19 17 12 8 rrcurveto
          52 35 23 51 52 vvcurveto
          60 -30 61 -53 40 vhcurveto
          -6 -8 rmoveto
          46 -35 34 -64 -61 vvcurveto
          -75 -56 -45 -60 -30 vhcurveto
          -1 hlineto
          hintmask 1010110001001000
          -5 -3 -1 -5 -6 -9 0 -7 -9 vvcurveto
          -22 vlineto
          -30 -7 -8 -11 -1 vhcurveto
          -24 3 -22 -6 -27 -1 rrcurveto
          -14 -23 0 19 -5 hvcurveto
          11 1 12 12 95 -138 -74 192 6 0 7 7 vvcurveto
          48 25 -5 25 vhcurveto
          1 19 19 -5 18 hhcurveto
          19 20 -4 -24 hvcurveto
          -4 -1 -5 -4 vvcurveto
          hintmask 0101010001001000
          -46 21 -21 29 25 25 18 32 35 -26 28 -23 23 vhcurveto
          -76 78 -110 42 126 vvcurveto
          58 38 44 52 23 vhcurveto
          9 4 31 6 10 18 -6 63 5 vvcurveto
          9 3 24 1 21 hhcurveto
          21 41 3 -11 22 hvcurveto
          2 -2 rlineto
          -19 -5 -20 -19 vvcurveto
          -54 30 19 25 -16 vhcurveto
          57 -38 23 -47 -72 vvcurveto
          -6 0 -7 -3 -5 vhcurveto
          -2 -2 rlineto
          -7 -12 -17 3 -13 hhcurveto
          hintmask 1010110001001000
          -16 -18 -4 -19 hhcurveto
          hintmask 1001010000100000
          -75 53 82 -65 hhcurveto
          -34 -16 -25 -27 -73 101 -41 52 -39 hvcurveto
          endchar
        </CharString>
        <CharString name="e">
          24 -18 128 -97 -21 105 103 -15 67 -12 96 -15 99 -8 107 -9 -20 hstemhm
          18 -21 callsubr
          hintmask 1000101010000000
          161 233 rmoveto
          11 vlineto
          -3 9 11 -1 12 24 16 2 18 hhcurveto
          47 114 0 17 17 hvcurveto
          2 15 1 16 16 vvcurveto
          66 -18 72 -53 40 vhcurveto
          28 -38 -61 7 -38 hhcurveto
          -88 -94 -40 -95 -16 hvcurveto
          hintmask 1001010110000000
          -7 -41 -5 -45 -46 vvcurveto
          -82 17 -83 53 -61 vhcurveto
          -40 35 58 -4 53 13 13 0 12 hhcurveto
          178 -37 113 93 18 hvcurveto
          hintmask 0110101010000000
          -61 callgsubr
          -6 -6 rlineto
          hintmask 1001010110000000
          -35 -7 -46 -51 -60 -12 69 54 vhcurveto
          -10 -1 rmoveto
          hintmask 0110101001000000
          -52 14 -83 70 37 29 41 48 vhcurveto
          hintmask 0101010100100000
          -103 callsubr
          -3 -33 callgsubr
          -3 -2 rrcurveto
          129 160 -13 callsubr
          -86 callgsubr
          hintmask 1000101010000000
          -71 callsubr
        </CharString>
        <CharString name="eacute">
          -39 callsubr
          77 171 -20 hstemhm
          10 -21 callsubr
          hintmask 1001001011000000
          -93 callgsubr
          hintmask 0110101011000000
          -61 callgsubr
          -6 -6 rlineto
          hintmask 1000101011000000
          -21 callgsubr
          11 17 19 2 11 hhcurveto
          -86 8 rmoveto
          hintmask 0110101010100000
          1 callsubr
          hintmask 0101010110010000
          -103 callsubr
          225 432 -82 callsubr
          -106 callgsubr
          6 -181 -13 callsubr
          -86 callgsubr
          hintmask 1000101011000000
          -71 callsubr
        </CharString>
        <CharString name="ecircumflex">
          -39 callsubr
          84 166 20 callgsubr
          14 -21 callsubr
          hintmask 1001001001100000
          -93 callgsubr
          hintmask 0110101001100000
          -61 callgsubr
          -6 -6 rlineto
          hintmask 1000101001100000
          -21 callgsubr
          11 17 19 2 11 hhcurveto
          -86 8 rmoveto
          hintmask 0110101001010000
          1 callsubr
          hintmask 0101010110100000
          -103 callsubr
          242 343 -42 callsubr
          hintmask 1001010101001000
          -107 callsubr
          -62 -183 -13 callsubr
          -86 callgsubr
          hintmask 1000101001100000
          -71 callsubr
        </CharString>
        <CharString name="edieresis">
          -39 callsubr
          112 -10 11 callsubr
          19 147 -105 150 -54 149 -149 169 -127 56 -10 150 -65 callgsubr
          hintmask 1001001010100010
          -93 callgsubr
          hintmask 0110101010100010
          -61 callgsubr
          -6 -6 rlineto
          hintmask 1000101010100010
          -21 callgsubr
          10 17 19 2 12 hhcurveto
          -86 8 rmoveto
          hintmask 0110101010001000
          1 callsubr
          hintmask 0101010101100010
          -103 callsubr
          hintmask 1001010010100010
          39 507 rmoveto
          hintmask 1001010101010001
          -46 1 -45 -81 callgsubr
          hintmask 1001010010010001
          -82 callgsubr
          179 5 rmoveto
          hintmask 1001010101100001
          -46 1 -45 -81 callgsubr
          hintmask 1001010010100001
          -82 callgsubr
          -9 -39 rmoveto
          -7 callgsubr
          hintmask 1001010101100010
          -99 callgsubr
          -1 -6 0 -6 -6 -38 callgsubr
          -184 hmoveto
          -7 callgsubr
          -99 callgsubr
          -1 -6 0 -6 -6 -38 callgsubr
          86 -308 -13 callsubr
          hintmask 1001010101000100
          -86 callgsubr
          hintmask 1000101010100010
          -71 callsubr
        </CharString>
        <CharString name="egrave">
          -39 callsubr
          77 171 -20 hstemhm
          15 -21 callsubr
          hintmask 1001001011000000
          -93 callgsubr
          hintmask 0110101011000000
          -61 callgsubr
          -6 -6 rlineto
          hintmask 1000101011000000
          -21 callgsubr
          10 17 19 2 12 hhcurveto
          -86 8 rmoveto
          hintmask 0110101010100000
          1 callsubr
          hintmask 0101010111000000
          -103 callsubr
          -1 503 rmoveto
          -23 -24 -23 -23 -23 -23 rrcurveto
          -8 vlineto
          -15 86 -52 15 -28 vhcurveto
          -6 30 -1 30 32 36 2 7 13 vhcurveto
          -101 callgsubr
          -2 -220 -13 callsubr
          hintmask 1001010110010000
          -86 callgsubr
          hintmask 1000101011000000
          -71 callsubr
        </CharString>
        <CharString name="eight">
          70 -19 196 -165 -21 175 115 151 106 -30 -20 37 189 hstemhm
          62 163 -10 124 -19 178 -65 callgsubr
          hintmask 1000111010000000
          468 513 rmoveto
          154 -92 47 -114 -47 -42 -1 -18 -42 vhcurveto
          -70 -31 -34 -92 -76 vvcurveto
          -48 16 -59 37 -37 vhcurveto
          -41 -41 -21 -59 -57 vvcurveto
          -113 76 -101 149 141 79 84 120 67 -19 54 -51 39 vhcurveto
          44 39 32 52 61 6 -1 7 3 vvcurveto
          -10 14 rmoveto
          -38 vlineto
          -3 -6 -8 -44 -1 -2 -11 -35 -24 -29 -28 -23 -1 -2 0 -1 -1 -2 rrcurveto
          46 -46 27 -39 -75 vvcurveto
          hintmask 0111000100000000
          -113 -75 -81 -135 -116 -100 64 139 59 22 55 41 41 vhcurveto
          6 vlineto
          -36 35 -17 55 56 vvcurveto
          119 63 86 147 99 72 -29 -78 25 vhcurveto
          -24 13 -46 1 -2 vhcurveto
          -152 -316 rmoveto
          3 vlineto
          1 2 0 3 2 vvcurveto
          38 -29 22 -36 -31 -31 -18 -41 -39 33 -17 32 30 29 15 27 vhcurveto
          23 callgsubr
          hintmask 1001001010000000
          -116 295 rmoveto
          -6 -1 -4 -5 vvcurveto
          -36 24 -23 30 28 25 22 28 28 -22 28 -29 vhcurveto
          hintmask 1000111010000000
          -11 -42 -13 -17 hvcurveto
          1 vlineto
          -41 callgsubr
          vhcurveto
          107 -291 rmoveto
          -4 -6 -3 -10 -5 -10 -2 -2 rcurveline
          -7 -13 -15 -3 -14 hhcurveto
          -27 -24 14 33 hvcurveto
          7 20 7 21 23 7 rrcurveto
          42 9 -10 -33 18 hvcurveto
          -2 3 callsubr
          -7 vlineto
          -1 -1 0 -2 -1 vvcurveto
          -94 293 rmoveto
          10 16 11 8 21 hhcurveto
          26 9 -28 -15 -21 -16 -19 -24 -32 -14 31 19 hvcurveto
          4 1 4 5 vvcurveto
          -9 3 rmoveto
          1 hlineto
          -1 -1 rlineto
          endchar
        </CharString>
        <CharString name="ellipsis">
          100 19 callsubr
          hstemhm
          26 175 -10 175 hintmask 00000000
          hintmask 01100000
          37 -4 rmoveto
          hintmask 10100000
          38 38 -1 39 -44 callsubr
          38 0 42 6 37 vhcurveto
          13 -7 -28 2 -27 hhcurveto
          -28 -29 -4 -6 -13 -45 callgsubr
          -20 -4 -31 -27 vvcurveto
          hintmask 01100000
          -26 callsubr
          168 hmoveto
          hintmask 10010000
          38 38 -1 39 -44 callsubr
          38 0 42 6 37 vhcurveto
          13 -7 -28 2 -27 hhcurveto
          -28 -29 -4 -6 -13 -45 callgsubr
          -20 -4 -31 -27 vvcurveto
          hintmask 01100000
          -26 callsubr
          169 hmoveto
          hintmask 10100000
          38 38 -1 39 -44 callsubr
          38 0 42 6 37 vhcurveto
          13 -7 -28 2 -27 hhcurveto
          -28 -29 -4 -6 -13 -45 callgsubr
          -20 -4 -31 -27 vvcurveto
          hintmask 01010000
          -26 callsubr
          -328 10 45 callsubr
          -80 callsubr
          331 hmoveto
          -57 callgsubr
          -80 callsubr
          -165 108 rmoveto
          -80 callsubr
          hintmask 10100000
          -3 8 0 10 12 26 4 31 21 vvcurveto
          endchar
        </CharString>
        <CharString name="emdash">
          272 148 213 hstem
          38 155 rmoveto
          205 207 -7 206 -19 callsubr
          rrcurveto
          -6 23 -2 25 27 43 5 45 38 vvcurveto
          -92 callgsubr
          -612 hlineto
          -2 -78 callsubr
          -64 -3 -65 -65 vvcurveto
          11 105 rmoveto
          15 -1 18 18 vvcurveto
          12 0 11 2 11 vhcurveto
          603 hlineto
          -40 -5 -44 -42 vvcurveto
          -23 1 -23 5 -21 vhcurveto
          -202 -202 7 -202 hhcurveto
          33 1 34 34 vvcurveto
          endchar
        </CharString>
        <CharString name="endash">
          35 154 207 hstem
          37 161 rmoveto
          126 128 -7 127 hhcurveto
          6 13 0 33 36 vvcurveto
          31 -1 28 -3 10 vhcurveto
          51 vlineto
          -92 callgsubr
          -375 hlineto
          -2 -78 callsubr
          3 0 3 0 -1 -2 -106 -88 vhcurveto
          13 184 rmoveto
          365 hlineto
          -7 -1 -12 -11 -54 4 -51 -52 vvcurveto
          -124 -125 7 -122 hhcurveto
          29 -1 30 30 vvcurveto
          30 1 31 3 30 vhcurveto
          endchar
        </CharString>
        <CharString name="equal">
          46 108 153 -10 74 -10 153 hstemhm
          hintmask 00000000
          hintmask 10100000
          41 321 -40 callgsubr
          5 -213 -40 callgsubr
          13 338 rmoveto
          369 hlineto
          -26 -1 -26 -25 vvcurveto
          hintmask 01000000
          -5 callsubr
          -207 vmoveto
          369 hlineto
          -26 -1 -26 -25 vvcurveto
          -5 callsubr
          endchar
        </CharString>
        <CharString name="eth">
          111 -29 160 -150 140 0 195 -185 177 0 148 -140 130 414 -20 hstemhm
          20 139 -9 227 -10 157 -65 callgsubr
          hintmask 1000101101000000
          160 844 rmoveto
          -30 -67 -60 -22 -22 hvcurveto
          -8 -5 -10 -10 -5 vvcurveto
          3 -5 34 -15 40 -31 35 -9 rlinecurve
          -38 -28 -75 -46 -13 vvcurveto
          19 -26 34 -14 21 -26 22 callsubr
          12 24 21 7 10 hvcurveto
          37 25 37 25 38 25 62 -52 -5 -73 12 -71 rrcurveto
          15 -32 -42 8 -42 hhcurveto
          -171 -29 -120 -133 -167 118 -65 138 197 51 145 147 78 -13 80 -9 64 hvcurveto
          -13 84 -22 98 -68 58 rrcurveto
          20 13 70 33 15 vvcurveto
          -28 28 -39 11 -22 33 -2 1 -2 0 -2 1 -30 -10 -50 -49 -27 -17 -42 12 -35 40 -41 8 rrcurveto
          122 -69 rmoveto
          22 13 52 49 29 11 22 -29 35 -10 26 -25 -29 -19 -32 -16 -28 -20 rrcurveto
          -8 vlineto
          87 -65 12 -129 13 -99 rrcurveto
          6 -49 8 -59 -59 vvcurveto
          hintmask 0101011101000000
          -137 -42 -143 -192 -217 -32 124 129 103 29 109 161 53 28 -16 -10 41 vhcurveto
          -38 callsubr
          2 2 3 -5 22 1 21 -3 23 -6 55 -22 55 -43 36 rrcurveto
          -6 hlineto
          -51 -34 -50 -37 -52 -31 -19 25 -29 13 -21 21 38 29 40 27 39 28 -1 3 0 3 -1 3 -40 8 -36 30 -37 17 rrcurveto
          9 12 67 81 42 hhcurveto
          16 79 -53 -7 28 hvcurveto
          -135 -583 rmoveto
          -46 11 54 -24 51 hhcurveto
          hintmask 0010001010000000
          55 53 27 53 64 -61 51 -81 -62 -23 -40 -44 -14 1 -14 2 -13 hvcurveto
          10 1 rmoveto
          hintmask 0101011101000000
          -2 13 -2 14 14 vvcurveto
          45 30 30 45 71 62 -49 -58 -47 -47 -23 -50 -47 -50 21 42 -10 vhcurveto
          endchar
        </CharString>
        <CharString name="exclam">
          -201 -4 177 -155 -21 123 53 540 -20 hstemhm
          23 138 hintmask 00000000
          hintmask 10011000
          51 707 rmoveto
          -5 -1 -2 2 -2 -1 rrcurveto
          -5 -69 -1 -74 -70 -108 2 -110 -107 vvcurveto
          -6 30 24 1 21 hhcurveto
          23 39 1 10 5 hvcurveto
          -4 94 -2 95 94 vvcurveto
          82 2 82 3 82 vhcurveto
          9 -5 -25 0 -11 -29 -29 -6 -29 hhcurveto
          118 -7 rmoveto
          -3 -80 -2 -81 -81 vvcurveto
          -93 2 -93 4 -93 vhcurveto
          -4 -20 -22 -2 -21 hhcurveto
          -20 -19 1 1 -18 hvcurveto
          -1 104 -3 105 105 vvcurveto
          70 2 69 4 69 vhcurveto
          29 27 7 28 hhcurveto
          11 11 -1 -3 11 hvcurveto
          -118 -704 rmoveto
          hintmask 01111000
          29 28 1 29 hhcurveto
          27 -2 1 2 14 1 rrcurveto
          40 -1 43 3 40 vhcurveto
          -39 8 -82 4 -11 -15 rrcurveto
          -12 vlineto
          -22 -4 -4 -34 vvcurveto
          hintmask 10011000
          -15 -3 -31 8 -4 vhcurveto
          3 11 rmoveto
          37 6 35 37 vvcurveto
          hintmask 01111000
          3 11 10 1 11 27 25 -4 28 hhcurveto
          -3 -36 0 -38 -36 vvcurveto
          1 -30 -2 0 -3 -26 -28 -1 -26 hhcurveto
          endchar
        </CharString>
        <CharString name="exclamdown">
          -204 -61 -21 582 136 -126 -20 26 -20 141 -20 hstemhm
          31 137 hintmask 00000000
          hintmask 11000100
          166 -75 rmoveto
          3 hlineto
          -71 callgsubr
          2 62 3 62 62 86 -4 86 86 vvcurveto
          29 1 29 1 30 vhcurveto
          5 -5 -12 1 -12 -12 -12 -1 -8 -7 -9 0 -9 hhcurveto
          -21 -23 -1 -10 -10 hvcurveto
          3 -84 2 -83 -84 vvcurveto
          -92 -2 -92 -2 -92 vhcurveto
          -11 11 16 0 14 27 27 7 30 hhcurveto
          -115 7 rmoveto
          2 95 1 95 95 vvcurveto
          78 -1 79 -3 79 vhcurveto
          38 7 43 -7 39 4 rrcurveto
          -1 -29 -1 -29 -30 -83 4 -83 -83 vvcurveto
          -62 -3 -61 -3 -62 vhcurveto
          -28 -28 -7 -27 hhcurveto
          -11 -10 1 3 -11 hvcurveto
          118 704 rmoveto
          -34 -33 -1 -34 hhcurveto
          hintmask 10101100
          1 -3 -3 1 -3 hhcurveto
          -9 -2 -1 -6 -6 hvcurveto
          -39 -3 -40 -39 vvcurveto
          hintmask 11000100
          -10 10 50 -2 24 hhcurveto
          17 19 1 12 12 hvcurveto
          33 7 33 34 vvcurveto
          9 -1 6 -7 8 vhcurveto
          -3 -32 rmoveto
          hintmask 10011100
          -7 -20 1 -45 -23 vvcurveto
          hintmask 10101100
          -5 -11 -13 -1 -12 hhcurveto
          hintmask 10011100
          -26 -27 6 -23 hhcurveto
          37 3 36 37 vvcurveto
          45 -5 35 6 34 -1 rrcurveto
          2 -9 -1 -6 -7 vvcurveto
          endchar
        </CharString>
        <CharString name="f">
          -41 16 -21 25 -35 callgsubr
          350 128 -10 90 -90 225 hstemhm
          80 144 -10 168 hintmask 00000000
          hintmask 10010010
          221 4 rmoveto
          346 vlineto
          48 -3 49 1 49 -5 rrcurveto
          hintmask 10010001
          8 3 4 64 9 1 0 4 4 vvcurveto
          18 -1 33 -5 -1 vhcurveto
          -149 hlineto
          -1 5 -1 6 5 vvcurveto
          15 3 19 17 6 vhcurveto
          28 10 100 0 9 9 rrcurveto
          32 7 32 31 vvcurveto
          hintmask 10000110
          18 -1 27 -21 -139 -148 -2 -211 vhcurveto
          -22 -22 1 -22 30 callsubr
          hintmask 10010010
          22 22 1 22 hhcurveto
          -106 -4 -104 -105 vvcurveto
          -26 2 -14 32 vhcurveto
          hintmask 00110010
          28 29 5 30 hhcurveto
          hintmask 01001010
          6 6 -1 7 hhcurveto
          -125 7 rmoveto
          116 -1 117 116 vvcurveto
          -92 callgsubr
          -22 -22 -1 -22 hhcurveto
          -1 37 -1 38 -1 37 rrcurveto
          22 22 -1 23 -19 callsubr
          rrcurveto
          -2 10 -1 10 10 vvcurveto
          64 38 65 58 26 vhcurveto
          25 55 76 -4 58 hhcurveto
          4 -14 2 -14 -14 vvcurveto
          -28 -6 -28 -1 -27 vhcurveto
          hintmask 10001001
          -69 -2 -89 -3 -50 vvcurveto
          -7 0 -24 9 -4 vhcurveto
          146 hlineto
          -1 -6 -1 -6 -6 -5 1 -25 -24 vvcurveto
          -19 -1 -19 -2 -4 vhcurveto
          -49 4 -48 -1 -48 4 -6 -6 rcurveline
          -346 vlineto
          -32 -33 -4 -32 hhcurveto
          -8 -8 0 1 -7 hvcurveto
          endchar
        </CharString>
        <CharString name="f_f">
          369 13 -21 27 -21 371 126 -12 104 -10 153 hstemhm
          17 84 -9 152 164 91 -12 155 -65 callgsubr
          hintmask 1010101100000000
          -30 callsubr
          hintmask 1010110100000000
          -16 3 -48 2 -4 -10 5 -130 -3 -4 2 -1 rrcurveto
          23 27 3 24 32 callsubr
          vhcurveto
          hintmask 0110101010000000
          31 17 2 4 16 hvcurveto
          13 18 -1 -1 14 hvcurveto
          373 vlineto
          81 81 -1 81 hhcurveto
          -122 9 -124 -122 vvcurveto
          hintmask 1010110100000000
          -9 8 11 1 19 hhcurveto
          hintmask 0110110010000000
          31 17 2 4 16 hvcurveto
          13 18 -1 -1 13 hvcurveto
          373 vlineto
          31 callgsubr
          1 47 rlineto
          -161 hlineto
          -56 callsubr
          hintmask 1001010100000000
          -12 callgsubr
          -85 -2 -82 3 -77 vvcurveto
          hintmask 1010110100000000
          -6 0 -5 2 -5 vhcurveto
          2 -13 155 3 rlineto
          7 callsubr
          -12 -17 1 1 -11 hvcurveto
          -373 21 callsubr
          123 -9 129 122 vvcurveto
          -84 7 -89 -4 -90 -2 rrcurveto
          -371 vlineto
          2 callsubr
          -25 -33 -6 -30 hhcurveto
          -6 -5 0 1 -6 hvcurveto
          122 3 130 123 vvcurveto
          -26 -2 -27 1 -26 -1 -1 40 -1 39 -1 40 rrcurveto
          53 hlineto
          -1 4 16 0 4 hhcurveto
          -2 -1 26 6 199 173 -6 127 hvcurveto
          5 -15 2 -14 -15 vvcurveto
          hintmask 1001010100000000
          -30 -7 -30 -1 -29 vhcurveto
          -1 callgsubr
          90 0 85 hhcurveto
          endchar
        </CharString>
        <CharString name="f_f_i">
          534 13 -21 23 -21 27 -21 369 134 -18 101 -59 201 -152 152 -10 -20 hstemhm
          93 151 242 156 -11 162 -4 25 -25 148 -65 callgsubr
          hintmask 0101000111010000
          798 718 rmoveto
          hintmask 0101001011010000
          -9 4 10 -21 hhcurveto
          -145 -122 -3 -169 -28 hvcurveto
          -2 -12 -2 -13 -13 vvcurveto
          -5 0 -5 1 -5 vhcurveto
          -81 -80 -1 -81 hhcurveto
          -2 6 -1 8 9 vvcurveto
          53 110 -2 51 vhcurveto
          11 22 1 50 29 vvcurveto
          hintmask 0101000111010000
          13 -2 14 -3 14 vhcurveto
          4 hlineto
          hintmask 0101001011010000
          -8 1 10 -24 hhcurveto
          -142 -150 -5 -219 hvcurveto
          -7 hlineto
          2 -6 -9 0 -9 hhcurveto
          -58 14 -15 -48 -35 2 -38 7 -3 hvcurveto
          23 23 1 23 hhcurveto
          -107 -2 -107 -108 vvcurveto
          -46 1 -6 40 23 25 3 4 17 vhcurveto
          hintmask 0011010011010000
          13 13 0 -1 13 hvcurveto
          -71 callgsubr
          364 vlineto
          81 80 -4 81 hhcurveto
          -121 9 -121 -121 vvcurveto
          hintmask 0101010011010000
          -9 9 13 1 15 hhcurveto
          hintmask 0011010011001000
          43 28 11 -5 40 hvcurveto
          -2 369 45 -4 51 6 52 -5 rlinecurve
          -122 1 -121 -7 -122 vhcurveto
          -1 1 1 0 1 hhcurveto
          hintmask 1001001011001000
          -3 31 40 -5 34 hhcurveto
          18 32 3 12 hvcurveto
          -3 54 -1 54 55 119 7 125 120 vvcurveto
          -49 -52 3 -49 43 callsubr
          -2 vhcurveto
          -2 -145 vlineto
          -2 7 0 7 7 vvcurveto
          17 4 16 13 11 vhcurveto
          14 40 61 2 42 hhcurveto
          hintmask 0100100111010000
          11 22 1 50 29 vvcurveto
          13 -2 14 -3 14 vhcurveto
          -309 -218 rmoveto
          -2 6 0 6 6 vvcurveto
          12 2 12 2 11 vhcurveto
          170 28 127 -5 141 hhcurveto
          37 callgsubr
          hintmask 0100100110100000
          -87 -3 -79 -3 -61 vvcurveto
          -11 1 -19 8 -4 28 callgsubr
          hintmask 0101010010100000
          3 1 3 2 vvcurveto
          45 44 -3 45 hhcurveto
          -118 -5 -119 -118 vvcurveto
          -53 1 -54 3 -53 vhcurveto
          -6 -13 -15 -2 -16 -32 -25 8 -29 -3 -2 -1 -3 hhcurveto
          7 121 -1 121 121 vvcurveto
          6 -3 -19 1 -17 -33 -20 0 -28 hhcurveto
          -15 -14 0 1 -14 hvcurveto
          -2 -78 callsubr
          -363 vlineto
          2 callsubr
          -27 -35 -8 -31 -3 -4 1 -3 hhcurveto
          122 -8 126 121 vvcurveto
          -85 2 -92 2 -86 1 rrcurveto
          -369 vlineto
          2 callsubr
          -27 -34 -8 -32 hhcurveto
          -13 -2 19 18 hvcurveto
          111 4 115 111 vvcurveto
          -24 -26 -1 -25 hhcurveto
          -1 39 -1 40 -1 39 rrcurveto
          52 hlineto
          38 callsubr
          -1 7 -1 7 7 vvcurveto
          hintmask 0100100111010000
          203 177 -7 122 vhcurveto
          37 callgsubr
          hintmask 0101010011010000
          -1 callgsubr
          90 1 84 hhcurveto
          endchar
        </CharString>
        <CharString name="f_f_l">
          590 11 -21 23 -21 24 -21 25 -21 370 126 -10 22 -22 102 -10 153 hstemhm
          20 91 -17 153 163 91 -12 155 -10 220 -60 60 -44 44 -22 22 -10 148 hintmask 000000000000000000000000
          hintmask 010001010110100000000000
          -30 callsubr
          2 -6 -9 0 -10 hhcurveto
          -24 -12 0 -7 -7 hvcurveto
          2 -133 rlineto
          25 25 1 26 32 callsubr
          31 17 2 4 16 vhcurveto
          15 1 17 -3 15 2 rrcurveto
          hintmask 010010011001010000000000
          -2 371 rlineto
          81 81 -4 81 hhcurveto
          -122 9 -121 -122 vvcurveto
          -9 8 11 1 19 hhcurveto
          31 17 2 4 16 hvcurveto
          15 1 16 -3 14 2 -1 371 rcurveline
          31 callgsubr
          47 -160 vlineto
          -56 callsubr
          hintmask 010000101010001000000000
          -12 callgsubr
          hintmask 010000101010100000000000
          -85 -2 -82 3 -77 vvcurveto
          -6 -1 -16 2 -5 vhcurveto
          -5 -2 -3 11 166 -8 rrcurveto
          hintmask 010010011010010000000000
          7 callsubr
          hintmask 010010011010100000000000
          -12 -17 0 1 -11 hvcurveto
          -372 21 callsubr
          -3 124 3 127 -10 120 -87 -1 -91 7 -85 -2 1 -371 rcurveline
          2 callsubr
          -25 -33 -6 -30 hhcurveto
          -6 -5 0 1 -6 hvcurveto
          122 3 129 123 vvcurveto
          -26 -27 -1 -26 hhcurveto
          -1 40 -1 39 -1 40 rrcurveto
          53 hlineto
          hintmask 010000100110100000000000
          38 callsubr
          -2 8 0 8 9 vvcurveto
          199 173 -6 127 vhcurveto
          5 -15 2 -14 -15 vvcurveto
          -30 -7 -30 -1 -29 vhcurveto
          -1 callgsubr
          89 0 85 hhcurveto
          hintmask 010010011010000100000000
          336 237 rmoveto
          -7 -63 0 -66 -63 vvcurveto
          hintmask 001010011010000010000000
          -142 12 -143 -142 vvcurveto
          -37 -1 -43 -2 -37 vhcurveto
          9 1 rlineto
          hintmask 100010011010000010000000
          24 43 -5 34 hhcurveto
          19 30 3 11 hvcurveto
          -7 62 -1 64 63 177 4 179 178 vvcurveto
          -12 -502 rmoveto
          1 -73 -3 -74 7 -72 rrcurveto
          hintmask 000110011010100000000000
          -5 -12 -15 -2 -15 -34 -35 6 -27 hhcurveto
          2 47 1 48 47 140 -11 141 140 vvcurveto
          51 2 50 5 51 vhcurveto
          45 -1 44 -1 46 -1 rrcurveto
          -123 -2 -124 -123 vvcurveto
          -41 0 -40 1 -41 vhcurveto
          endchar
        </CharString>
        <CharString name="fi">
          135 13 -21 23 -21 374 125 -10 243 -201 201 hstemhm
          13 84 -10 151 -10 161 -3 24 -24 145 -65 callgsubr
          hintmask 0101001010000000
          374 726 rmoveto
          -148 -149 -4 -227 hvcurveto
          -7 hlineto
          2 -6 -9 0 -9 hhcurveto
          hintmask 0110110100000000
          -23 -13 0 -7 -7 hvcurveto
          5 -121 -2 -5 2 -1 rrcurveto
          23 26 4 23 hhcurveto
          hintmask 0110101001000000
          -109 -3 -108 -108 vvcurveto
          -36 2 -12 41 22 25 3 4 17 vhcurveto
          13 18 0 -1 13 hvcurveto
          368 vlineto
          49 -3 50 2 49 -2 rrcurveto
          -123 0 -119 -7 -122 vhcurveto
          hintmask 1010110001000000
          -4 34 40 -5 34 hhcurveto
          18 32 3 12 hvcurveto
          -5 55 -1 55 55 122 7 121 120 vvcurveto
          -48 -52 0 -47 43 callsubr
          -4 vhcurveto
          -146 hlineto
          -2 5 -1 7 6 vvcurveto
          17 6 18 10 10 vhcurveto
          29 15 111 -2 10 10 rrcurveto
          hintmask 0101010010000000
          31 7 32 32 vvcurveto
          14 -4 23 -3 14 vhcurveto
          hintmask 0101010100000000
          -175 -346 rmoveto
          -369 vlineto
          2 callsubr
          -26 -33 -7 -30 hhcurveto
          -4 -5 0 1 -5 hvcurveto
          44 -5 44 44 78 4 81 79 vvcurveto
          -24 2 -26 -3 -25 1 -1 37 -1 36 -1 37 rrcurveto
          52 hlineto
          28 -2 -7 19 11 vvcurveto
          206 162 -4 136 vhcurveto
          4 -15 2 -15 -14 vvcurveto
          -30 -6 -29 -1 -29 vhcurveto
          -34 -1 -96 -5 -16 -14 rrcurveto
          -18 -16 0 -23 -22 vvcurveto
          -20 10 0 -2 28 callgsubr
          hintmask 0110110100000000
          3 1 3 2 vvcurveto
          44 45 -3 44 hhcurveto
          -120 -7 -119 -120 vvcurveto
          -51 1 -52 4 -51 vhcurveto
          -6 -13 -16 -2 -16 -31 -24 8 -29 -3 -2 -1 -3 hhcurveto
          6 121 3 124 122 vvcurveto
          endchar
        </CharString>
        <CharString name="five">
          83 -15 176 -144 -21 156 74 -15 148 -8 165 -10 49 -10 162 hstemhm
          299 169 -22 22 -65 callgsubr
          hintmask 0110101100000000
          185 226 rmoveto
          -2 -48 -48 -3 -47 hhcurveto
          -8 -1 -56 -25 hvcurveto
          hintmask 1000101100000000
          -105 109 -50 99 93 69 34 61 50 vhcurveto
          25 30 3 49 41 vvcurveto
          143 -37 173 -186 -21 -20 -2 -4 -20 vhcurveto
          -4 9 -1 13 10 vvcurveto
          56 58 3 57 17 20 -1 19 hhcurveto
          17 25 1 9 4 hvcurveto
          20 vlineto
          3 8 2 50 35 vvcurveto
          18 -1 13 -1 3 vhcurveto
          1 vlineto
          -92 callgsubr
          -143 -142 -6 -142 hhcurveto
          -2 -78 callsubr
          -115 2 -114 -115 vvcurveto
          -6 6 15 -2 16 32 52 8 54 hhcurveto
          72 32 -37 -58 -52 -27 -43 -45 -50 7 44 14 -7 hvcurveto
          2 vlineto
          hintmask 0110101100000000
          -9 -7 rmoveto
          -34 5 17 -28 34 hhcurveto
          54 30 49 48 hvcurveto
          hintmask 0101010010000000
          61 -29 49 -76 vhcurveto
          -59 -56 -4 -58 hhcurveto
          112 -2 111 113 vvcurveto
          139 140 6 139 hhcurveto
          -48 -4 -45 -46 vvcurveto
          -3 -14 -15 -1 -16 -16 -17 1 -16 -59 -58 -3 -58 hhcurveto
          -2 -78 callsubr
          -3 vlineto
          -9 2 -34 12 vhcurveto
          20 21 6 21 hhcurveto
          175 39 -157 -125 -63 -2 -58 -48 -44 hvcurveto
          -39 -42 -73 -24 -70 hhcurveto
          -91 -102 44 101 23 4 23 1 24 hvcurveto
          44 2 44 1 44 2 rrcurveto
          -1 1 -1 0 vhcurveto
          endchar
        </CharString>
        <CharString name="fiveeighths">
          205 36 callgsubr
          -66 150 -84 93 -9 65 -56 45 69 59 8 66 -66 84 14 64 65 -20 hstemhm
          12 149 -9 87 -7 181 -8 70 -8 74 -11 72 hintmask 000000000000000000000000
          hintmask 010000100101111010100000
          264 -64 callgsubr
          hintmask 001100100101111010100000
          -54 callsubr
          hintmask 010010010101111010100000
          -239 416 rmoveto
          -2 -15 -1 -4 -3 vvcurveto
          -71 44 -29 61 vhcurveto
          hintmask 100000100101110101010000
          117 5 71 65 74 -44 58 -70 -8 -10 -1 -2 -9 hvcurveto
          1 vlineto
          3 0 4 -1 3 vhcurveto
          -1 16 29 -1 27 hhcurveto
          hintmask 100000100101111010100000
          30 28 0 10 5 hvcurveto
          2 35 4 38 -9 5 rrcurveto
          -71 -75 1 -70 hhcurveto
          -2 -59 3 -61 -1 -60 -68 callgsubr
          20 27 5 25 hhcurveto
          hintmask 100000010101110101010000
          38 24 -14 -28 -20 -13 -21 -21 -7 hvcurveto
          -15 -6 18 14 hvcurveto
          506 -172 -51 callgsubr
          -47 callgsubr
          -360 -245 rmoveto
          hintmask 010001001110111010100000
          -25 -26 1 -25 hhcurveto
          78 233 93 227 65 236 rrcurveto
          -1 5 7 0 6 18 10 4 18 hhcurveto
          7 6 -1 -2 6 hvcurveto
          -79 -230 -71 -234 -89 -227 -1 -78 callsubr
          350 244 rmoveto
          -27 -13 -22 -18 -19 vhcurveto
          -8 vlineto
          19 -21 12 -27 -31 vvcurveto
          -56 -47 -32 -46 -45 -42 30 66 25 6 31 19 19 vhcurveto
          6 vlineto
          -17 20 -8 25 23 vvcurveto
          52 36 49 56 67 21 -53 -48 vhcurveto
          -451 138 rmoveto
          13 10 6 16 16 vvcurveto
          33 -19 24 -38 vhcurveto
          -28 -26 -3 -27 hhcurveto
          54 -1 55 54 vvcurveto
          67 67 2 68 hhcurveto
          -3 -40 -1 -5 2 -19 rrcurveto
          -11 -10 0 -10 -38 -31 -2 -36 hhcurveto
          -14 3 -17 7 vhcurveto
          12 11 1 11 hhcurveto
          76 26 -69 -77 -72 -58 -29 -60 -38 -54 21 50 10 2 11 1 10 hvcurveto
          20 1 20 1 21 1 rrcurveto
          -19 1 14 -12 17 hhcurveto
          8 8 2 6 8 hvcurveto
          327 -117 rmoveto
          -1 -5 -1 -4 -5 vvcurveto
          hintmask 010010010101111010100000
          -26 20 -18 19 15 20 13 30 26 -22 17 -20 -13 -13 -8 -20 -4 vhcurveto
          -2 -146 rmoveto
          -1 -5 -1 -4 -5 vvcurveto
          hintmask 001100100101111010100000
          -27 20 -23 19 11 22 13 29 24 -20 20 -20 -11 -11 -6 -15 -7 vhcurveto
          11 142 rmoveto
          19 3 13 2 12 hhcurveto
          9 -3 rlineto
          hintmask 100000100101111001010000
          -97 callgsubr
        </CharString>
</ttFont>
